<?xml version="1.0" standalone="no"?><!DOCTYPE svg PUBLIC "-//W3C//DTD SVG 1.1//EN" "http://www.w3.org/Graphics/SVG/1.1/DTD/svg11.dtd"><svg t="1754902406270" class="icon" viewBox="0 0 1024 1024" version="1.1" xmlns="http://www.w3.org/2000/svg" p-id="5427" xmlns:xlink="http://www.w3.org/1999/xlink" width="16" height="16"><path d="M675.617596 1.304803H147.172376C132.443383 1.304803 120.535586 13.28313 120.535586 36.463954v969.245294c0 6.288915 11.907797 18.278997 26.63679 18.278997h729.667003c14.752503 0 26.695564-11.990082 26.695565-18.278997V238.285242c0-12.707136-1.680962-16.786114-4.666728-19.783635L687.008173 5.983286a16.30416 16.30416 0 0 0-11.390577-4.678483z" fill="#e6e6e6" p-id="5428" data-spm-anchor-id="a313x.search_index.0.i27.38d93a81mTS1bh" class=""></path><path d="M681.988796 1.304803v216.373955h215.821471z" fill="#dbdbdb" p-id="5429" data-spm-anchor-id="a313x.search_index.0.i31.38d93a81mTS1bh" class=""></path><path d="M876.757094 1023.753145H147.101846a26.707319 26.707319 0 0 1-26.648545-26.719074V713.233538H903.440904v283.800533a26.707319 26.707319 0 0 1-26.68381 26.719074z" fill="#185abd" p-id="5430" data-spm-anchor-id="a313x.search_index.0.i28.38d93a81mTS1bh" class="selected"></path><path d="M347.148131 950.237487V790.052346h32.337956v160.185141h-32.337956zM410.530995 950.237487V790.052346h109.791532v27.118744h-77.453577v37.933327h66.862338v27.071724h-66.862338v68.073101h-32.337955v-0.011755zM649.403986 891.345027l31.327027 9.944715c-4.784278 17.420883-12.777666 30.421894-23.909634 38.920746-11.214253 8.545872-25.449536 12.718891-42.576545 12.71889-21.300028 0-38.826706-7.229314-52.45073-21.805492-13.682799-14.529158-20.524199-34.371568-20.524199-59.574249 0-26.695564 6.88842-47.384333 20.677014-62.07806 13.800349-14.740748 31.856001-22.158141 54.249242-22.158141 19.572045 0 35.488291 5.806961 47.760493 17.397373 7.311599 6.88842 12.754156 16.692075 16.37469 29.457985l-31.985307 7.640739c-1.892552-8.287262-5.818716-14.834787-11.837267-19.67784-5.971531-4.796033-13.30664-7.252824-21.946551-7.252824-11.802002 0-21.417577 4.290568-28.834971 12.83644-7.417394 8.522362-11.049683 22.334466-11.049683 41.436312 0 20.277344 3.644044 34.641932 10.861603 43.281844 7.311599 8.545872 16.809624 12.88346 28.411792 12.88346 8.604647 0 16.022041-2.750666 22.122876-8.193222 6.218386-5.430802 10.614749-14.094224 13.33015-25.778676z" fill="#FFFFFF" p-id="5431"></path><path d="M691.381027 375.512903L546.536137 230.715034l26.201855-25.449537 144.692075 144.127836-26.04904 26.11957z" fill="#AD302C" p-id="5432"></path><path d="M454.753237 616.207916l-144.692074-144.703829 26.201855-25.473047 144.703829 141.788594-26.21361 28.388282z m100.998806-105.101295l-65.487005-65.369455 26.918909-28.364772 67.461842 65.910185-28.893746 27.824042z" fill="#7E205D" p-id="5433"></path><path d="M688.454036 501.467536l-49.723574-49.35917 29.363945-28.388282 48.771421 50.522914-28.411792 27.224538z" fill="#1D7884" p-id="5434"></path><path d="M516.525668 395.320048l-63.958857-66.885848 26.16659-25.461292 64.722931 66.850584-26.930664 25.496556z" fill="#AD302C" p-id="5435"></path><path d="M363.299477 399.493066l-56.670769-55.742125 29.117091-19.078336 53.732023 49.147581-26.178345 25.67288z" fill="#053F76" p-id="5436"></path><path d="M559.619432 601.619983l-112.800808-114.88144 29.834145-28.388281 109.909082 114.893195-26.942419 28.376526z" fill="#1D7884" p-id="5437"></path><path d="M473.079254 229.034071L332.760033 368.624483l-26.11957-27.788777 139.566902-139.449353 26.871889 27.647718z m33.137295 174.490954l-73.456883 72.739829-27.612453-26.201855 74.185692-74.115162 26.883644 27.577188z" fill="#053F76" p-id="5438"></path><path d="M614.997153 372.538892l-60.949582 61.408027-27.635963-26.154835 61.690146-62.924419 26.895399 27.671227z" fill="#1D7884" p-id="5439"></path><path d="M507.509597 570.140141l-50.511158 47.701718-27.671228-26.1901 51.228212-49.14758 26.954174 27.635962z" fill="#7E205D" p-id="5440"></path><path d="M598.928093 232.889705l-52.356691 50.205529-27.647718-26.201855 53.10901-51.627882 26.895399 27.624208z" fill="#AD302C" p-id="5441"></path><path d="M470.857563 367.942694L340.659381 501.373496l-30.386629-29.552025 132.901828-132.984112L470.857563 367.942694z" fill="#7E205D" p-id="5442"></path><path d="M716.865828 474.242998l-141.929654 141.177334-30.539443-29.11709 144.18661-141.906144 28.282487 29.8459z" fill="#1D7884" p-id="5443"></path><path d="M715.972449 351.426945L593.097621 473.584719l-29.434475-28.270732 124.685095-122.957113 27.624208 29.070071z" fill="#AD302C" p-id="5444"></path><path d="M551.202865 360.725135L423.52025 231.361558l23.298374-27.788778 129.328313 132.361098-24.944072 24.791257z" fill="#053F76" p-id="5445"></path></svg>