<?xml version="1.0" standalone="no"?><!DOCTYPE svg PUBLIC "-//W3C//DTD SVG 1.1//EN" "http://www.w3.org/Graphics/SVG/1.1/DTD/svg11.dtd"><svg t="1754901029656" class="icon" viewBox="0 0 1024 1024" version="1.1" xmlns="http://www.w3.org/2000/svg" p-id="2482" width="16" height="16" xmlns:xlink="http://www.w3.org/1999/xlink"><path d="M486.954667 352.768l79.104 79.104-59.306667 59.306667-108.8-108.714667a41.941333 41.941333 0 0 1-1.706667-57.557333l1.706667-1.792 29.653333-29.653334 59.306667 59.306667z m415.274666 0c15.786667 15.786667 16.341333 41.088 1.706667 57.557333l-1.706667 1.792-207.658666 207.616a41.941333 41.941333 0 0 1-57.514667 1.706667l-1.792-1.706667-29.653333-29.653333 207.616-207.616-177.962667-178.005333-49.450667 49.450666-59.306666-59.306666 79.104-79.104a41.941333 41.941333 0 0 1 57.514666-1.706667l1.792 1.706667 237.312 237.269333z" fill="#F64C4D" p-id="2483"></path><path d="M407.850667 431.872l-59.306667 59.306667-148.352 148.352 177.962667 177.962666 49.493333-49.450666 59.306667 59.306666-79.104 79.146667a41.941333 41.941333 0 0 1-57.557334 1.706667l-1.792-1.706667-237.312-237.312a41.941333 41.941333 0 0 1-1.706666-57.514667l1.706666-1.792 207.658667-207.658666a41.941333 41.941333 0 0 1 57.514667-1.706667l1.792 1.706667 29.696 29.653333z m207.616 207.658667c15.786667 15.786667 16.384 41.045333 1.706666 57.514666l-1.706666 1.792-29.653334 29.653334-138.410666-138.410667 59.306666-59.306667 108.8 108.757334z" fill="#ED31BA" p-id="2484"></path><path d="M615.466667 323.114667c15.786667 15.786667 16.384 41.045333 1.706666 57.557333l-1.706666 1.792-29.653334 29.653333-207.658666-207.658666-177.92 178.005333 128.512 128.512-59.306667 59.306667L111.146667 412.16a41.941333 41.941333 0 0 1-1.706667-57.557333l1.706667-1.792 237.312-237.269334a41.941333 41.941333 0 0 1 57.557333-1.706666l1.792 1.706666 207.616 207.616z m-128.554667 187.861333l-108.757333 108.8a41.941333 41.941333 0 0 1-57.514667 1.664l-1.792-1.706667-29.653333-29.653333 138.410666-138.410667 59.306667 59.306667z" fill="#2690F8" p-id="2485"></path><path d="M902.229333 609.877333c15.786667 15.786667 16.341333 41.045333 1.706667 57.514667l-1.706667 1.792-237.312 237.312a41.941333 41.941333 0 0 1-57.514666 1.706667l-1.792-1.706667-207.658667-207.658667a41.941333 41.941333 0 0 1-1.706667-57.514666l1.706667-1.792 29.653333-29.696 59.306667 59.349333 148.352 148.309333 177.962667-177.962666-49.408-49.493334 59.306666-59.306666 79.104 79.146666z m-177.962666-178.005333l-138.453334 138.410667-59.306666-59.306667 108.757333-108.757333a41.941333 41.941333 0 0 1 57.514667-1.706667l1.792 1.706667 29.696 29.653333z" fill="#0EC4CA" p-id="2486"></path></svg>