<svg width="16" height="16" viewBox="0 0 1024 1024" xmlns="http://www.w3.org/2000/svg">
  <path
    d="M160 25.6h704A102.4 102.4 0 0 1 966.4 128v768a102.4 102.4 0 0 1-102.4 102.4H160A102.4 102.4 0 0 1 57.6 896V128A102.4 102.4 0 0 1 160 25.6z m0 76.8a25.6 25.6 0 0 0-25.6 25.6v768c0 14.08 11.52 25.6 25.6 25.6h704a25.6 25.6 0 0 0 25.6-25.6V128a25.6 25.6 0 0 0-25.6-25.6H160z"
    fill="#8a8a8a"></path>
  <path d="M608 800a160 160 0 1 0 0-320 160 160 0 0 0 0 320z m0-64a96 96 0 1 1 0-192 96 96 0 0 1 0 192z" fill="#8a8a8a">
  </path>
  <path
    d="M681.344 758.656l64 64a32 32 0 0 0 45.312-45.312l-64-64a32 32 0 0 0-45.312 45.312zM256 287.488H608a32 32 0 1 0 0-64H256a32 32 0 0 0 0 64zM256 479.488h160.128a32 32 0 0 0 0-64H256a32 32 0 0 0 0 64zM256 671.488h80a32 32 0 1 0 0-64H256a32 32 0 1 0 0 64z"
    fill="#8a8a8a"></path>
</svg>