<svg xmlns="http://www.w3.org/2000/svg" xmlns:xlink="http://www.w3.org/1999/xlink" width="24" height="24" viewBox="0 0 24 24" fill="none">
<path d="M22.4625 18.9L16.7625 15.0375L16.7625 1.34998L22.4625 4.57498L22.4625 18.9Z"   fill="#0082E6" fill-opacity="0.3">
</path>
<path d="M16.275 0C16.35 0 16.4625 0.0375 16.5375 0.075L23.0625 3.9C23.2125 3.975 23.2875 4.1625 23.2875 4.3125L23.2875 19.575C23.2875 19.8375 23.0625 20.0625 22.8 20.0625C22.6875 20.0625 22.6125 20.025 22.5 19.9875L15.9375 15.675C15.825 15.6 15.75 15.45 15.75 15.2625L15.75 0.4875C15.75 0.225 15.9375 0 16.275 0ZM16.7625 15.0375L22.3125 18.6375L22.3125 4.6125L16.7625 1.35L16.7625 15.0375ZM10.9875 23.0625L9.1875 20.025L8.55 21.1875L4.0125 18.5625L4.0125 12.8625L5.8125 12.8625L3.4875 9.75L1.5 12.8625L3.075 12.8625L3.075 19.05L8.0625 21.975L7.5 23.2875L10.9875 23.0625ZM3.075 8.775L3.075 6.4125L0.75 2.7L1.9125 2.7L3.5625 5.4375L5.25 2.7L6.4125 2.7L4.0875 6.4125L4.0875 8.775L3.075 8.775ZM16.3875 24L14.8125 21.7125L13.3125 24L12.1875 24L14.25 20.9625L12.15 17.925L13.2375 17.925L14.775 20.2125L16.3125 17.925L17.4375 17.925L15.375 20.925L17.4375 24L16.3875 24Z"   fill="#000000" >
</path>
</svg>
