<svg xmlns="http://www.w3.org/2000/svg" xmlns:xlink="http://www.w3.org/1999/xlink" width="24" height="24" viewBox="0 0 24 24" fill="none">
<path d="M2.04053 17.561L12.0005 23.0285L21.923 17.561L11.5505 12.1685L2.04053 17.561Z"   fill="#0082E6" fill-opacity="0.3">
</path>
<path d="M22.9704 17.1108L11.7754 11.3073C11.7005 11.2699 11.6256 11.2324 11.5507 11.2324C11.4758 11.2324 11.3635 11.2699 11.2886 11.3073L1.06708 17.1482C0.91731 17.2605 0.804985 17.4103 0.804985 17.5975C0.804985 17.7847 0.91731 17.9719 1.06708 18.0468L11.8502 23.925C11.9251 23.9625 12 24 12.1123 24C12.1872 24 12.2995 23.9625 12.3744 23.925L23.0078 17.9719C23.1576 17.897 23.2699 17.7098 23.2699 17.5226C23.2324 17.3729 23.1201 17.1856 22.9704 17.1108ZM12 23.0265L2.04056 17.5601L11.5133 12.1685L21.9594 17.5601L12 23.0265ZM4.84868 5.24182L8.36817 5.0546L7.6568 3.93136L12 1.04836L17.0546 3.55695L16.3058 5.20437L20.0499 4.49297L18.1778 1.38534L17.5039 2.77066L12 0L7.17005 3.14508L6.19657 2.05928L4.84868 5.24182ZM22.1092 12.2434L20.6115 9.92201L19.1139 12.2434L17.9532 12.2434L20.0125 9.17316L17.9158 6.17784L19.0016 6.17784L20.5741 8.42433L22.0718 6.17784L23.2324 6.17784L21.1732 9.17316L23.2324 12.2434L22.1092 12.2434ZM0.730103 12.2434L0.730103 11.532L4.24962 7.11389L0.91731 7.11389L0.91731 6.17784L5.56006 6.17784L5.56006 6.88924L2.11544 11.3073L5.63494 11.3073L5.63494 12.2434L0.730103 12.2434Z"   fill="#000000" >
</path>
</svg>
