<svg xmlns="http://www.w3.org/2000/svg" xmlns:xlink="http://www.w3.org/1999/xlink" width="24" height="24" viewBox="0 0 24 24" fill="none">
<path d="M7.7625 0C7.6875 0 7.575 0.0375 7.5 0.075L0.975 3.9C0.825 4.0125 0.75 4.1625 0.75 4.3125L0.75 19.575C0.75 19.8375 0.975 20.0625 1.2375 20.0625C1.35 20.0625 1.425 20.025 1.5375 19.9875L8.0625 15.675C8.175 15.6 8.25 15.45 8.25 15.2625L8.25 0.4875C8.25 0.225 8.025 0 7.7625 0ZM7.275 15L1.725 18.6375L1.725 4.6125L7.275 1.35L7.275 15Z"   fill="#000000" >
</path>
<path d="M1.72498 18.6375L7.27498 15L7.27498 1.34998L1.72498 4.61248L1.72498 18.6375Z"   fill="#0082E6" fill-opacity="0.3">
</path>
<path d="M13.0125 23.0624L14.8125 20.025L15.4875 21.1874L19.9874 18.5625L19.9874 12.8625L18.1875 12.8625L20.5125 9.74995L22.5 12.8625L20.9249 12.8625L20.9249 19.0499L15.9375 21.9749L16.5 23.2874L13.0125 23.0624ZM19.9125 8.77495L19.9125 6.41245L17.5875 2.69995L18.7875 2.69995L20.4375 5.39995L22.0875 2.69995L23.25 2.69995L20.9249 6.41245L20.9249 8.77495L19.9125 8.77495ZM7.01245 23.9999L7.01245 23.2874L10.4625 18.8624L7.12495 18.8624L7.12495 17.9249L11.775 17.9249L11.775 18.6375L8.36245 23.0624L11.85 23.0624L11.85 23.9999L7.01245 23.9999Z"   fill="#000000" >
</path>
</svg>
