<svg xmlns="http://www.w3.org/2000/svg" xmlns:xlink="http://www.w3.org/1999/xlink" width="24" height="24" viewBox="0 0 24 24" fill="none">
<path d="M2.70005 8.50003L2.30005 7.60003L9.30006 3.60003C9.50005 3.50002 9.60006 3.50002 9.80005 3.60003L16.8001 7.60003L16.3001 8.50003L9.50005 4.60004L2.70005 8.50003Z"   fill="#000000" >
</path>
<path d="M9.49999 20.4C9.40001 20.4 9.3 20.4 9.19999 20.3C9.10001 20.3 9 20.1 9 19.9L9 12C9 11.8 9.10001 11.7 9.3 11.6L16.3 7.60003C16.5 7.50002 16.6 7.50002 16.8 7.60003C17 7.70001 17 7.90003 17 8.00002L17 16C17 16.2 16.9 16.3 16.7 16.4L9.70001 20.4L9.49999 20.4ZM10 12.3L10 19.1L16 15.7L16 8.90002L10 12.3Z"   fill="#000000" >
</path>
<path d="M9.2 20.4L2.2 16.4C2.1 16.3 2 16.2 2 16L2 8.00002C2 7.80002 2.1 7.70001 2.2 7.60003C2.4 7.50002 2.50001 7.50002 2.7 7.60003L9.70002 11.6L9.2 12.5L3 8.90002L3 15.7L9.70002 19.5L9.2 20.4Z"   fill="#000000" >
</path>
<path d="M18.3 3.30005L21.5 3.30005L21.5 4.30006L18.3 4.30006L18.3 3.30005ZM18.3 19.7L21.5 19.7L21.5 20.7L18.3 20.7L18.3 19.7Z"   fill="#0063B1" >
</path>
<path d="M20.3999 18.8L19.3999 18.8L19.3999 15.8L20.3999 15.8L20.3999 18.8ZM20.3999 12.8L19.3999 12.8L19.3999 9.80005L20.3999 9.80005L20.3999 12.8ZM20.3999 6.80005L19.3999 6.80005L19.3999 3.80005L20.3999 3.80005L20.3999 6.80005Z"   fill="#0063B1" >
</path>
</svg>
