<svg xmlns="http://www.w3.org/2000/svg" xmlns:xlink="http://www.w3.org/1999/xlink" width="24" height="24" viewBox="0 0 24 24" fill="none">
<path d="M10 3.5L14 3.5L14 4.50001L10 4.50001L10 3.5ZM10 19L14 19L14 20L10 20L10 19Z"   fill="#0063B1" >
</path>
<path d="M12.5 20L11.5 20L11.5 19L12.5 19L12.5 20ZM12.5 17L11.5 17L11.5 14L12.5 14L12.5 17ZM12.5 12L11.5 12L11.5 8.99999L12.5 8.99999L12.5 12ZM12.5 7L11.5 7L11.5 4L12.5 4L12.5 7Z"   fill="#0063B1" >
</path>
<path d="M8.99999 6.00001C7.9 6.00001 7 5.10001 7 4.00001C7 2.89999 7.9 2 8.99999 2C10.1 2 11 2.89999 11 4.00001C11 5.10001 10.1 6.00001 8.99999 6.00001ZM8.99999 3C8.39999 3 7.99998 3.40001 7.99998 4.00001C7.99998 4.60002 8.39999 5 8.99999 5C9.59999 5 10 4.60002 10 4.00001C10 3.40001 9.59999 3 8.99999 3ZM4 20L20 20L20 21L4 21L4 20Z"   fill="#000000" >
</path>
</svg>
