<svg xmlns="http://www.w3.org/2000/svg" xmlns:xlink="http://www.w3.org/1999/xlink" width="24" height="24" viewBox="0 0 24 24" fill="none">
<path d="M3.70003 7.59998L3.20001 6.69998L11.7 1.79998C11.9 1.69998 12 1.69998 12.2 1.79998L20.7 6.69998L20.2 7.59998L12 2.79998L3.70003 7.59998Z"   fill="#000000" >
</path>
<path d="M16.3 9.59998L12 12L7.70001 9.59998L12 7.09998L16.3 9.59998Z"   fill="#0082E6" fill-opacity="0.3">
</path>
<path d="M7.99999 10L7.5 9.1L11.8 6.70001C12 6.6 12.1 6.6 12.3 6.70001L16.6 9.1L16 10L12 7.69999L7.99999 10Z"   fill="#0063B1" >
</path>
<path d="M16.3 9.59998L16.3 14.4L12 16.9L12 12L16.3 9.59998Z"   fill="#0082E6" fill-opacity="0.3">
</path>
<path d="M12.3 17.3L11.8 16.4L15.8 14.1L15.8 10.4L12.3 12.4L11.8 11.5L16 9.10003C16.2 9.00002 16.3 9.00002 16.5 9.10003C16.7 9.20002 16.7 9.40003 16.7 9.50002L16.7 14.4C16.7 14.6 16.6 14.7 16.4 14.8L12.3 17.3Z"   fill="#0063B1" >
</path>
<path d="M11.6 17.2L9.90001 16.2L10.4 15.3L12.1 16.3L11.6 17.2ZM8.20002 15.3L7.50001 14.9C7.30002 14.8 7.20001 14.6 7.20001 14.5L7.20001 13.3L8.20002 13.3L8.20002 14.2L8.6 14.4L8.20002 15.3ZM12.5 15L11.5 15L11.5 12.3L10.4 11.7L10.9 10.8L12.3 11.6C12.5 11.7 12.6 11.9 12.6 12L12.6 15L12.5 15ZM8.20002 11.2L7.20001 11.2L7.20001 9.59999C7.20001 9.39999 7.30002 9.29998 7.4 9.19998C7.60002 8.99999 7.80001 8.99999 8 9.09999L9.2 9.79998L8.70001 10.7L8.3 10.5L8.3 11.2L8.20002 11.2Z"   fill="#0063B1" >
</path>
<path d="M12 22.2C11.9 22.2 11.8 22.2 11.8 22.1L3.3 17.2C3.10001 17.2 3 17.1 3 16.9L3 7.09999C3 7 3.10001 6.79999 3.19999 6.70001C3.40001 6.6 3.49999 6.6 3.70001 6.70001L12.2 11.6C12.4 11.7 12.5 11.9 12.5 12L12.5 21.7C12.5 21.9 12.4 22 12.3 22.1C12.2 22.2 12.1 22.2 12 22.2ZM4.00001 16.6L11.5 20.9L11.5 12.3L4.00001 7.99999L4.00001 16.6Z"   fill="#000000" >
</path>
<path d="M12.3 22.2L11.8 21.3L20.1 16.6L20.1 8.00002L12.3 12.4L11.8 11.5L20.3 6.60003C20.5 6.50002 20.6 6.50002 20.8 6.60003C21 6.70004 21 7.00004 21 7.10002L21 16.8C21 17 20.9 17.1 20.7 17.2L12.3 22.2Z"   fill="#000000" >
</path>
</svg>
