<svg xmlns="http://www.w3.org/2000/svg" xmlns:xlink="http://www.w3.org/1999/xlink" width="24" height="24" viewBox="0 0 24 24" fill="none">
<path d="M21 2.25L16.3448 2.25L7.5 9.23276L7.5 15.75L14.0172 15.75L21 6.90517L21 2.25ZM13.0862 14.819L8.43103 14.819L8.43103 10.1638L13.0862 10.1638L13.0862 14.819Z"   fill="#0082E6" fill-opacity="0.3">
</path>
<path d="M6.4668 14.5151L5.85863 13.907C5.52075 13.4677 5.52075 12.8258 5.85863 12.3865C6.80467 11.3391 8.66298 9.71733 10.724 9.71733L11.197 9.71733L12.0755 8.83885C11.6363 8.7037 11.1633 8.63613 10.6902 8.63613C8.3589 8.63613 6.29786 10.3593 5.04773 11.677C4.3044 12.4879 4.3044 13.738 5.04773 14.5489L5.6559 15.1571L6.4668 14.5151ZM16.3665 11.677C15.7583 11.035 15.0826 10.4606 14.3731 9.95384L15.6232 8.7037L14.9474 8.02795L5.6559 17.3195L6.33165 17.9952L7.64936 16.6775C8.56162 17.2857 9.64282 17.5898 10.724 17.6236C13.0553 17.6236 15.1164 15.9004 16.3665 14.5827C17.1098 13.8056 17.1098 12.5217 16.3665 11.677ZM11.6363 12.6568C11.7376 12.792 11.7714 12.9609 11.7714 13.1299C11.7714 13.7042 11.2984 14.1435 10.724 14.1773C10.5551 14.1773 10.3861 14.1097 10.251 14.0421L11.6363 12.6568ZM15.6232 13.8732C14.6771 14.9206 12.785 16.5424 10.724 16.5424C9.91312 16.5086 9.10222 16.2721 8.39268 15.8666L9.50767 14.7517C9.84554 15.022 10.251 15.1571 10.6902 15.1571C11.839 15.1571 12.7513 14.2448 12.7513 13.0961L12.7513 12.8258C12.7513 12.7582 12.7513 12.6906 12.6837 12.623L12.6837 12.5555C12.6837 12.4879 12.6161 12.4203 12.6161 12.3527C12.6161 12.319 12.5823 12.2852 12.5485 12.2852C12.5485 12.2176 12.5147 12.1838 12.481 12.15C12.481 12.1162 12.4472 12.0824 12.4134 12.0824C12.4134 12.0487 12.3796 12.0149 12.3458 12.0149L13.5959 10.7647C14.3393 11.2378 14.9812 11.8459 15.5556 12.4879C15.9273 12.8596 15.9611 13.4677 15.6232 13.8732Z"   fill="#000000" >
</path>
<path d="M1.5 22.2556L1.5 3.9397L19.8159 3.9397L19.8159 22.2556L1.5 22.2556ZM2.57836 21.1691L18.7294 21.1691L18.7294 5.01806L2.57836 5.01806L2.57836 21.1691Z"   fill="#000000" >
</path>
</svg>
