<svg xmlns="http://www.w3.org/2000/svg" xmlns:xlink="http://www.w3.org/1999/xlink" width="32" height="32" viewBox="0 0 32 32" fill="none">
<path d="M9.8667 28.1334L3.46671 28.1334C3.06671 28.1334 2.80005 27.8668 2.80005 27.4668L2.80005 21.0668C2.80005 20.6668 3.06671 20.4001 3.46671 20.4001L9.8667 20.4001C10.2667 20.4001 10.5334 20.6668 10.5334 21.0668L10.5334 27.4668C10.5334 27.8668 10.2667 28.1334 9.8667 28.1334ZM4.13339 26.8001L9.20005 26.8001L9.20005 21.7334L4.13339 21.7334L4.13339 26.8001ZM28.5334 28.1334L22.1334 28.1334C21.7334 28.1334 21.4667 27.8668 21.4667 27.4668L21.4667 21.0668C21.4667 20.6668 21.7334 20.4001 22.1334 20.4001L28.5334 20.4001C28.9334 20.4001 29.2 20.6668 29.2 21.0668L29.2 27.4668C29.2 27.8668 28.9334 28.1334 28.5334 28.1334ZM22.8 26.8001L27.8667 26.8001L27.8667 21.7334L22.8 21.7334L22.8 26.8001ZM15.3334 12.5334L16.6667 12.5334L16.6667 17.0668L15.3334 17.0668L15.3334 12.5334Z"   fill="#000000" >
</path>
<path d="M26 21.5999L24.6667 21.5999L24.6667 17.7332L7.33334 17.7332L7.33334 21.5999L6 21.5999L6 17.0666C6 16.6666 6.26666 16.3999 6.66666 16.3999L25.3333 16.3999C25.7333 16.3999 26 16.6666 26 17.0666L26 21.5999Z"   fill="#000000" >
</path>
<path d="M20 13.2L12 13.2C11.6 13.2 11.3334 12.9334 11.3334 12.5334L11.3334 4.53339C11.3334 4.13339 11.6 3.8667 12 3.8667L20 3.8667C20.4 3.8667 20.6667 4.13339 20.6667 4.53339L20.6667 12.5334C20.6667 12.9334 20.4 13.2 20 13.2ZM12.6667 11.8667L19.3334 11.8667L19.3334 5.20004L12.6667 5.20004L12.6667 11.8667Z"   fill="#0063B1" >
</path>
</svg>
