<svg xmlns="http://www.w3.org/2000/svg" xmlns:xlink="http://www.w3.org/1999/xlink" width="24" height="24" viewBox="0 0 24 24" fill="none">
<path d="M22.2807 14.3853C21.5165 15.7401 20.0731 16.6964 18.375 16.6964C16.6769 16.6964 15.2335 15.7401 14.4693 14.3853C14.0448 15.0228 13.875 15.7401 13.875 16.4573C13.875 18.8482 15.9127 20.9999 18.375 20.9999C20.8373 20.9999 22.875 18.8482 22.875 16.4573C22.875 15.7401 22.7052 15.0228 22.2807 14.3853Z"   fill="#0082E6" fill-opacity="0.3">
</path>
<path d="M18.375 20.9998C15.9127 20.9998 13.875 18.848 13.875 16.4572C13.875 14.8633 15.1486 13.3491 16.1675 12.3131C16.22 12.2439 16.274 12.1758 16.3295 12.1087C16.385 12.0416 16.442 11.9757 16.5005 11.9109C16.5589 11.846 16.6188 11.7824 16.6801 11.7199C16.7413 11.6574 16.8039 11.5961 16.8679 11.536C16.9319 11.476 16.9972 11.4172 17.0638 11.3597C17.1304 11.3022 17.1982 11.246 17.2673 11.1911C17.3364 11.1363 17.4066 11.0828 17.4781 11.0307C17.5495 10.9785 17.6221 10.9278 17.6958 10.8785C17.8656 10.7192 18.0354 10.6395 18.1203 10.5598C18.2901 10.4801 18.4599 10.4801 18.6297 10.5598C18.7146 10.6395 18.8844 10.7192 19.0543 10.8785C19.6486 11.3567 20.158 11.7552 20.5826 12.2334C21.6863 13.2694 22.875 14.8633 22.875 16.4572C22.875 18.848 20.8373 20.9998 18.375 20.9998ZM18.375 11.3567C18.2901 11.3567 18.2901 11.4364 18.2052 11.5161C17.6958 11.9146 17.1863 12.3131 16.7618 12.7912C15.8278 13.7476 14.7241 15.1024 14.7241 16.4572C14.7241 18.5292 16.4222 20.2028 18.375 20.2028C20.3278 20.2028 22.026 18.4495 22.026 16.4572C22.026 15.1821 20.9222 13.7476 19.9882 12.7912C19.5637 12.3131 19.0543 11.9146 18.5448 11.5161C18.4599 11.4364 18.4599 11.3567 18.375 11.3567Z"   fill="#0063B1" >
</path>
<path d="M10.8 22.0001C10.7 22.0001 10.6 22.0001 10.6 21.9001L2.3 17.2001C2.1 17.1001 2 16.9001 2 16.7001L2 7.30009C2 7.10007 2.1 7.00009 2.2 6.90008C2.4 6.80007 2.50001 6.80007 2.7 6.90008L11 11.6001C11.2 11.7001 11.3 11.9001 11.3 12.0001L11.3 21.5001C11.3 21.7001 11.2 21.8001 11.1 21.9001C11 21.9001 10.9 22.0001 10.8 22.0001ZM3 16.4001L10.3 20.6001L10.3 12.3001L3 8.10008L3 16.4001Z"   fill="#000000" >
</path>
<path d="M10.8025 21.9976C10.7025 21.9976 10.6026 22.0001 10.5025 21.9001C10.3026 21.8001 10.3 21.6026 10.3 21.5026L10.3 12.0001C10.3 11.8001 10.4 11.7026 10.6 11.6026L18.9025 6.90007C19.1025 6.80007 19.1976 6.80007 19.3975 6.90007C19.5976 7.00008 19.6 7.19757 19.6 7.29757L19.6 11.4001L18.6025 11.4001L18.6025 8.19757L11.2975 12.3976L11.2975 20.7001L14.7025 18.7276L15.2125 19.6126L10.9975 21.9001C10.9975 21.9001 10.9026 21.9976 10.8025 21.9976Z"   fill="#000000" >
</path>
<path d="M10.8 12.5C10.7 12.5 10.6 12.5 10.6 12.4L2.3 7.69999C2.1 7.6 2 7.5 2 7.3C2 7.09999 2.1 7 2.3 6.9L10.6 2.19999C10.7 1.99999 10.9 1.99999 11 2.09999L19.3 6.79999C19.5 6.9 19.6 7.09999 19.6 7.2C19.6 7.39999 19.5 7.5 19.3 7.6L11 12.4C11 12.5 10.9 12.5 10.8 12.5ZM3.49999 7.3L10.8 11.5L18.1 7.3L10.8 3.1L3.49999 7.3Z"   fill="#000000" >
</path>
</svg>
