<svg xmlns="http://www.w3.org/2000/svg" xmlns:xlink="http://www.w3.org/1999/xlink" width="32" height="32" viewBox="0 0 32 32" fill="none">
<path d="M14.4001 29.3334C14.2667 29.3334 14.1334 29.3334 14.1334 29.2001L3.06675 22.9334C2.80008 22.8001 2.66675 22.5334 2.66675 22.2668L2.66675 9.73345C2.66675 9.46676 2.80008 9.33345 2.93342 9.20011C3.20008 9.06676 3.33343 9.06676 3.60008 9.20011L14.6667 15.4668C14.9334 15.6001 15.0667 15.8668 15.0667 16.0001L15.0667 28.6668C15.0667 28.9334 14.9334 29.0668 14.8001 29.2001C14.6667 29.2001 14.5334 29.3334 14.4001 29.3334ZM4.00008 21.8668L13.7334 27.4668L13.7334 16.4001L4.00008 10.8001L4.00008 21.8668Z"   fill="#000000" >
</path>
<path d="M14.4034 29.3301C14.2701 29.3301 14.1367 29.3334 14.0034 29.2001C13.7367 29.0668 13.7334 28.8034 13.7334 28.6701L13.7334 16.0001C13.7334 15.7334 13.8667 15.6034 14.1334 15.4701L25.2034 9.2001C25.4701 9.06675 25.5967 9.06675 25.8634 9.2001C26.1301 9.33344 26.1334 9.59675 26.1334 9.7301L26.1334 15.2001L24.8034 15.2001L24.8034 10.9301L15.0634 16.5301L15.0634 27.6001L19.6034 24.9701L20.2834 26.1501L14.6634 29.2001C14.6634 29.2001 14.5367 29.3301 14.4034 29.3301Z"   fill="#000000" >
</path>
<path d="M14.4001 16.6667C14.2667 16.6667 14.1334 16.6667 14.1334 16.5333L3.06675 10.2667C2.80008 10.1333 2.66675 10 2.66675 9.73334C2.66675 9.46665 2.80008 9.33334 3.06675 9.2L14.1334 2.93332C14.2667 2.66665 14.5334 2.66665 14.6667 2.79998L25.7334 9.06665C26.0001 9.2 26.1334 9.46665 26.1334 9.6C26.1334 9.86665 26.0001 10 25.7334 10.1333L14.6667 16.5333C14.6667 16.6667 14.5334 16.6667 14.4001 16.6667ZM4.66674 9.73334L14.4001 15.3333L24.1334 9.73334L14.4001 4.13333L4.66674 9.73334Z"   fill="#000000" >
</path>
<path d="M29.7076 19.1803C28.6887 20.9867 26.7642 22.2618 24.5 22.2618C22.2359 22.2618 20.3113 20.9867 19.2925 19.1803C18.7264 20.0304 18.5 20.9867 18.5 21.943C18.5 25.1308 21.217 27.9998 24.5 27.9998C27.783 27.9998 30.5 25.1308 30.5 21.943C30.5 20.9867 30.2736 20.0304 29.7076 19.1803Z"   fill="#FFB700" fill-opacity="0.3">
</path>
<path d="M24.5 27.9997C21.217 27.9997 18.5 25.1307 18.5 21.9429C18.5 19.8177 20.1981 17.7988 21.5566 16.4174C21.6266 16.3252 21.6986 16.2344 21.7727 16.1449C21.8467 16.0555 21.9227 15.9676 22.0006 15.8812C22.0786 15.7947 22.1584 15.7098 22.2401 15.6265C22.3218 15.5432 22.4053 15.4615 22.4906 15.3814C22.5759 15.3013 22.6629 15.2229 22.7517 15.1462C22.8405 15.0696 22.9309 14.9947 23.023 14.9215C23.1151 14.8484 23.2088 14.777 23.3041 14.7075C23.3993 14.6381 23.4961 14.5704 23.5943 14.5047C23.8208 14.2922 24.0472 14.1859 24.1604 14.0797C24.3868 13.9734 24.6132 13.9734 24.8396 14.0797C24.9528 14.1859 25.1793 14.2922 25.4057 14.5047C26.1981 15.1423 26.8774 15.6736 27.4434 16.3111C28.9151 17.6925 30.5 19.8177 30.5 21.9429C30.5 25.1307 27.783 27.9997 24.5 27.9997ZM24.5 15.1423C24.3868 15.1423 24.3868 15.2485 24.2736 15.3548C23.5943 15.8861 22.9151 16.4174 22.3491 17.055C21.1038 18.3301 19.6321 20.1365 19.6321 21.9429C19.6321 24.7057 21.8962 26.9371 24.5 26.9371C27.1038 26.9371 29.3679 24.5994 29.3679 21.9429C29.3679 20.2428 27.8962 18.3301 26.651 17.055C26.0849 16.4174 25.4057 15.8861 24.7264 15.3548C24.6132 15.2485 24.6132 15.1423 24.5 15.1423Z"   fill="#FFB700" >
</path>
</svg>
