<svg xmlns="http://www.w3.org/2000/svg" xmlns:xlink="http://www.w3.org/1999/xlink" width="24" height="24" viewBox="0 0 24 24" fill="none">
<path d="M11.5 14C9.60001 14 8 12.4 8 10.5C8 8.59998 9.60001 7 11.5 7C13.4 7 15 8.5 15 10.5C15 12.5 13.4 14 11.5 14ZM11.5 7.99998C10.1 7.99998 9.00001 9.1 9.00001 10.5C9.00001 11.9 10.1 13 11.5 13C12.9 13 14 11.9 14 10.5C14 9.1 12.9 7.99998 11.5 7.99998Z"   fill="#000000" >
</path>
<path d="M11.5 16.6C5 16.6 2.2 10.9 2.1 10.7C2 10.6 2 10.4 2 10.2C2.1 10 5.3 4.30005 11.4 4.30005C17.5 4.30005 20.7 9.90004 20.8 10.2C20.9 10.3 20.9 10.5 20.8 10.7C20.8 10.7 20.6 11.1 20.2 11.7C20 11.9 19.7 12 19.5 11.8C19.3 11.6 19.2 11.3 19.4 11.1C19.6 10.9 19.7 10.6 19.8 10.5C19.2 9.50003 16.2 5.40004 11.4 5.40004C6.5 5.40004 3.6 9.50003 3 10.5C3.6 11.5 6.30001 15.6 11.4 15.6C12.1 15.6 12.7 15.5 13.4 15.4C13.7 15.3 13.9 15.5 14 15.8C14.1 16.1 13.9 16.3 13.6 16.4C12.9 16.5 12.2 16.6 11.5 16.6Z"   fill="#000000" >
</path>
<path d="M18 20C17.9 20 17.7 20 17.6 19.9L14.4 18C14.2 17.9 14 17.6 14 17.3L14 13.6C14 13.3 14.2 13 14.4 12.9L17.6 11.1C17.8 11 18.2 11 18.4 11.1L21.6 12.9C21.8 13 22 13.3 22 13.6L22 17.3C22 17.6 21.8 17.9 21.6 18L18.4 19.8C18.3 20 18.2 20 18 20ZM15 17.2L18 18.9L21 17.2L21 13.7L18 12L15 13.7L15 17.2Z"   fill="#0063B1" >
</path>
<path d="M18 17.1C17.1 17.1 16.4 16.4 16.4 15.5C16.4 14.6 17.1 13.9 18 13.9C18.9 13.9 19.6 14.6 19.6 15.5C19.6 16.4 18.9 17.1 18 17.1ZM18 14.9C17.7 14.9 17.4 15.2 17.4 15.5C17.4 15.8 17.7 16.1 18 16.1C18.3 16.1 18.6 15.8 18.6 15.5C18.6 15.2 18.4 14.9 18 14.9Z"   fill="#0063B1" >
</path>
</svg>
