<svg xmlns="http://www.w3.org/2000/svg" xmlns:xlink="http://www.w3.org/1999/xlink" width="24" height="24" viewBox="0 0 24 24" fill="none">
<path d="M12 23C10.5 23 8.59999 22 6.9 20.5C5.1 18.8001 3 14.9 3 13.1L3 6.30005C3 5.80006 3.4 5.30005 4 5.30005L4.7 5.30005C4.7 5.30005 7.09998 5.30005 8.5 4.70005C10 4.20006 11 3.50005 11 3.50005L11.4 3.20005C11.7 3.00006 12.2 3.00006 12.5 3.20005L13 3.50005C13 3.50005 14 4.20005 15.5 4.80005C16.9 5.40006 19.3 5.40005 19.3 5.40005L20 5.40005C20.5 5.40005 21 5.80005 21 6.40005L21 13.2C21 15 18.9 19 17.1 20.7C15.5 22.1 13.5 23 12 23ZM12 4.00005L11.6 4.30005C11.6 4.30005 10.5 5.10004 8.9 5.70005C7.20001 6.30005 4.7 6.30005 4.7 6.30005L4 6.30005L4 13C4 14.5 5.89998 18.2 7.6 19.7C9.1 21.1 10.8 22 12 22C13.2 22 15 21.1 16.4 19.8C18 18.3 20 14.6 20 13.1L20 6.30005L19.3 6.30005C19.3 6.30005 16.7 6.30006 15.1 5.60005C13.4 5.00004 12.4 4.20005 12.4 4.20005L12 4.00005Z"   fill="#000000" >
</path>
<path d="M15.49 17C15.39 17 15.2 17 15.1 16.9L8.10002 9.89995C8.00001 9.69996 8.00001 9.29994 8.10002 9.09995C8.20003 8.89996 8.6 8.89996 8.80002 9.09995L15.79 16.1C15.99 16.2999 15.99 16.6 15.79 16.8C15.79 17 15.59 17 15.49 17Z"   fill="#000000" >
</path>
<path d="M8 16C8 16.0164 8.00041 16.0327 8.00122 16.0491C8.00202 16.0654 8.00322 16.0817 8.00483 16.098C8.00642 16.1143 8.00842 16.1305 8.01083 16.1467C8.01323 16.1629 8.01603 16.1791 8.01922 16.1951C8.02241 16.2111 8.02599 16.2271 8.02998 16.243C8.03395 16.2589 8.03831 16.2746 8.04308 16.2903C8.04783 16.306 8.05295 16.3215 8.05845 16.3369C8.06397 16.3523 8.06986 16.3676 8.07613 16.3827C8.08239 16.3978 8.08902 16.4128 8.09602 16.4276C8.10302 16.4424 8.11037 16.457 8.11808 16.4714C8.1258 16.4858 8.13387 16.5001 8.14229 16.5141C8.15069 16.5281 8.15944 16.542 8.16854 16.5556C8.17763 16.5692 8.18705 16.5826 8.19681 16.5957C8.20655 16.6089 8.21662 16.6217 8.22699 16.6344C8.23738 16.647 8.24807 16.6594 8.25905 16.6716C8.27004 16.6837 8.28132 16.6955 8.2929 16.7071C8.30448 16.7187 8.31633 16.73 8.32845 16.741C8.34058 16.7519 8.35297 16.7626 8.36563 16.773C8.37826 16.7834 8.39116 16.7935 8.4043 16.8032C8.41745 16.813 8.43083 16.8224 8.44445 16.8315C8.45806 16.8406 8.47187 16.8493 8.48591 16.8577C8.49994 16.8661 8.51417 16.8742 8.52861 16.8819C8.54305 16.8896 8.55766 16.897 8.57246 16.904C8.58724 16.911 8.6022 16.9176 8.61732 16.9239C8.63244 16.9302 8.64771 16.936 8.66312 16.9415C8.67852 16.9471 8.69406 16.9522 8.70973 16.9569C8.72539 16.9617 8.74116 16.9661 8.75703 16.97C8.77291 16.974 8.78887 16.9776 8.80491 16.9808C8.82096 16.984 8.83709 16.9868 8.85329 16.9892C8.86948 16.9916 8.88571 16.9936 8.90199 16.9952C8.91827 16.9968 8.93459 16.998 8.95093 16.9988C8.96729 16.9996 8.98365 17 9.00001 17C9.01637 17 9.03273 16.9996 9.04909 16.9988C9.06543 16.998 9.08174 16.9968 9.09802 16.9952C9.11431 16.9936 9.13054 16.9916 9.14673 16.9892C9.16293 16.9868 9.17905 16.984 9.1951 16.9808C9.21115 16.9776 9.22711 16.974 9.24298 16.97C9.25886 16.9661 9.27462 16.9617 9.29028 16.9569C9.30595 16.9522 9.32149 16.9471 9.3369 16.9415C9.3523 16.936 9.36757 16.9302 9.3827 16.9239C9.3978 16.9176 9.41276 16.911 9.42756 16.904C9.44235 16.897 9.45697 16.8896 9.47141 16.8819C9.48584 16.8742 9.50008 16.8661 9.51411 16.8577C9.52814 16.8493 9.54196 16.8406 9.55557 16.8315C9.56918 16.8224 9.58256 16.813 9.59572 16.8032C9.60886 16.7935 9.62175 16.7834 9.63439 16.773C9.64705 16.7626 9.65944 16.7519 9.67156 16.741C9.68369 16.73 9.69554 16.7187 9.70712 16.7071C9.7187 16.6955 9.72998 16.6837 9.74096 16.6716C9.75195 16.6594 9.76263 16.647 9.77302 16.6344C9.7834 16.6217 9.79346 16.6089 9.80321 16.5957C9.81296 16.5826 9.82238 16.5692 9.83148 16.5556C9.84057 16.542 9.84932 16.5281 9.85773 16.5141C9.86615 16.5001 9.87422 16.4858 9.88194 16.4714C9.88964 16.457 9.89699 16.4424 9.90399 16.4276C9.91099 16.4128 9.91763 16.3978 9.92389 16.3827C9.93016 16.3676 9.93605 16.3523 9.94156 16.3369C9.94706 16.3215 9.95219 16.306 9.95694 16.2903C9.96169 16.2746 9.96605 16.2589 9.97004 16.243C9.97401 16.2271 9.97759 16.2111 9.9808 16.1951C9.98398 16.1791 9.98678 16.1629 9.98919 16.1467C9.99159 16.1305 9.99359 16.1143 9.99519 16.098C9.9968 16.0817 9.998 16.0654 9.9988 16.0491C9.99961 16.0327 10 16.0164 10 16C10 15.9836 9.99961 15.9673 9.9988 15.9509C9.998 15.9346 9.9968 15.9183 9.99519 15.902C9.99359 15.8857 9.99159 15.8695 9.98919 15.8533C9.98678 15.8371 9.98398 15.821 9.9808 15.8049C9.97759 15.7889 9.97401 15.7729 9.97004 15.757C9.96605 15.7412 9.96169 15.7254 9.95694 15.7097C9.95219 15.6941 9.94706 15.6785 9.94156 15.6631C9.93605 15.6477 9.93016 15.6324 9.92389 15.6173C9.91763 15.6022 9.91099 15.5872 9.90399 15.5725C9.89699 15.5577 9.88964 15.543 9.88194 15.5286C9.87422 15.5142 9.86615 15.4999 9.85773 15.4859C9.84932 15.4719 9.84057 15.4581 9.83148 15.4444C9.82238 15.4308 9.81296 15.4175 9.80321 15.4043C9.79346 15.3912 9.7834 15.3783 9.77302 15.3656C9.76263 15.353 9.75195 15.3406 9.74096 15.3285C9.72998 15.3163 9.7187 15.3045 9.70712 15.2929C9.69554 15.2813 9.68369 15.27 9.67156 15.2591C9.65944 15.2481 9.64705 15.2374 9.63441 15.227C9.62176 15.2166 9.60886 15.2066 9.59572 15.1968C9.58256 15.1871 9.56918 15.1776 9.55557 15.1685C9.54196 15.1594 9.52814 15.1507 9.51411 15.1423C9.50008 15.1339 9.48584 15.1258 9.47141 15.1181C9.45697 15.1104 9.44235 15.103 9.42756 15.096C9.41276 15.089 9.3978 15.0824 9.3827 15.0761C9.36757 15.0699 9.3523 15.064 9.3369 15.0585C9.32149 15.053 9.30595 15.0478 9.29028 15.0431C9.27462 15.0383 9.25886 15.034 9.24298 15.03C9.22711 15.026 9.21115 15.0224 9.1951 15.0192C9.17905 15.016 9.16293 15.0132 9.14673 15.0108C9.13054 15.0084 9.11431 15.0064 9.09802 15.0048C9.08174 15.0032 9.06543 15.002 9.04909 15.0012C9.03273 15.0004 9.01637 15 9.00001 15C8.98365 15 8.96729 15.0004 8.95093 15.0012C8.93459 15.002 8.91827 15.0032 8.90199 15.0048C8.88571 15.0064 8.86948 15.0084 8.85329 15.0108C8.83709 15.0132 8.82096 15.016 8.80491 15.0192C8.78887 15.0224 8.77291 15.026 8.75703 15.03C8.74116 15.034 8.72539 15.0383 8.70973 15.0431C8.69406 15.0478 8.67852 15.053 8.66312 15.0585C8.64771 15.064 8.63244 15.0699 8.61732 15.0761C8.6022 15.0824 8.58724 15.089 8.57246 15.096C8.55766 15.103 8.54305 15.1104 8.52861 15.1181C8.51417 15.1258 8.49994 15.1339 8.48591 15.1423C8.47187 15.1507 8.45806 15.1594 8.44445 15.1685C8.43083 15.1776 8.41745 15.1871 8.4043 15.1968C8.39116 15.2066 8.37826 15.2166 8.36563 15.227C8.35297 15.2374 8.34058 15.2481 8.32845 15.2591C8.31633 15.27 8.30448 15.2813 8.2929 15.2929C8.28132 15.3045 8.27004 15.3163 8.25905 15.3285C8.24807 15.3406 8.23738 15.353 8.22699 15.3656C8.21662 15.3783 8.20655 15.3912 8.19681 15.4043C8.18705 15.4175 8.17763 15.4308 8.16854 15.4444C8.15944 15.4581 8.15069 15.4719 8.14229 15.4859C8.13387 15.4999 8.1258 15.5142 8.11808 15.5286C8.11037 15.543 8.10302 15.5577 8.09602 15.5725C8.08902 15.5872 8.08239 15.6022 8.07613 15.6173C8.06986 15.6324 8.06397 15.6477 8.05845 15.6631C8.05295 15.6785 8.04783 15.6941 8.04308 15.7097C8.03831 15.7254 8.03395 15.7412 8.02998 15.757C8.02599 15.7729 8.02241 15.7889 8.01922 15.8049C8.01603 15.821 8.01323 15.8371 8.01083 15.8533C8.00842 15.8695 8.00642 15.8857 8.00483 15.902C8.00322 15.9183 8.00202 15.9346 8.00122 15.9509C8.00041 15.9673 8 15.9836 8 16Z"   fill="#0063B1" >
</path>
<path d="M14 10.001C14 10.0173 14.0004 10.0337 14.0012 10.0501C14.002 10.0664 14.0031 10.0828 14.0047 10.0991C14.0063 10.1154 14.0083 10.1316 14.0107 10.1478C14.0131 10.164 14.0159 10.1801 14.0191 10.1962C14.0222 10.2123 14.0258 10.2282 14.0298 10.2441C14.0337 10.26 14.0381 10.2758 14.0428 10.2915C14.0476 10.3071 14.0527 10.3227 14.0582 10.3381C14.0637 10.3535 14.0696 10.3688 14.0758 10.384C14.0821 10.3991 14.0887 10.4141 14.0957 10.4289C14.1027 10.4437 14.1101 10.4583 14.1178 10.4727C14.1255 10.4872 14.1335 10.5014 14.142 10.5155C14.1504 10.5296 14.1591 10.5434 14.1682 10.557C14.1773 10.5706 14.1867 10.584 14.1965 10.5972C14.2062 10.6103 14.2163 10.6233 14.2266 10.6359C14.237 10.6486 14.2477 10.661 14.2587 10.6731C14.2697 10.6853 14.281 10.6971 14.2925 10.7087C14.3041 10.7203 14.316 10.7316 14.3281 10.7426C14.3402 10.7536 14.3526 10.7643 14.3653 10.7747C14.378 10.7851 14.3909 10.7952 14.404 10.8049C14.4171 10.8147 14.4305 10.8241 14.4441 10.8332C14.4577 10.8423 14.4716 10.8511 14.4856 10.8595C14.4997 10.8679 14.5139 10.876 14.5284 10.8837C14.5428 10.8915 14.5574 10.8988 14.5722 10.9058C14.587 10.9128 14.602 10.9195 14.6171 10.9257C14.6322 10.932 14.6475 10.9379 14.6629 10.9434C14.6783 10.9489 14.6939 10.9541 14.7095 10.9588C14.7252 10.9636 14.741 10.968 14.7569 10.9719C14.7728 10.9759 14.7887 10.9795 14.8048 10.9827C14.8209 10.9859 14.837 10.9887 14.8532 10.9911C14.8694 10.9935 14.8856 10.9955 14.9019 10.9971C14.9182 10.9987 14.9345 10.9999 14.9509 11.0007C14.9673 11.0015 14.9836 11.0019 15 11.0019C15.0164 11.0019 15.0328 11.0015 15.0491 11.0007C15.0655 10.9999 15.0818 10.9987 15.0981 10.9971C15.1144 10.9955 15.1306 10.9935 15.1468 10.9911C15.163 10.9887 15.1792 10.9859 15.1952 10.9827C15.2113 10.9795 15.2273 10.9759 15.2431 10.9719C15.259 10.968 15.2748 10.9636 15.2905 10.9588C15.3061 10.9541 15.3217 10.9489 15.3371 10.9434C15.3525 10.9379 15.3678 10.932 15.3829 10.9257C15.3981 10.9195 15.413 10.9128 15.4278 10.9058C15.4426 10.8988 15.4572 10.8915 15.4717 10.8837C15.4861 10.876 15.5004 10.8679 15.5144 10.8595C15.5284 10.8511 15.5423 10.8423 15.5559 10.8332C15.5695 10.8241 15.5829 10.8147 15.596 10.8049C15.6092 10.7952 15.6221 10.7851 15.6347 10.7747C15.6474 10.7643 15.6598 10.7536 15.6719 10.7426C15.684 10.7316 15.6959 10.7203 15.7075 10.7087C15.719 10.6971 15.7303 10.6853 15.7413 10.6731C15.7523 10.661 15.763 10.6486 15.7734 10.6359C15.7837 10.6233 15.7938 10.6103 15.8036 10.5972C15.8133 10.584 15.8227 10.5706 15.8318 10.557C15.8409 10.5434 15.8497 10.5296 15.8581 10.5155C15.8665 10.5014 15.8745 10.4872 15.8822 10.4727C15.89 10.4583 15.8973 10.4437 15.9043 10.4289C15.9113 10.4141 15.9179 10.3991 15.9242 10.384C15.9304 10.3688 15.9363 10.3535 15.9418 10.3381C15.9473 10.3227 15.9524 10.3071 15.9572 10.2915C15.9619 10.2758 15.9663 10.26 15.9703 10.2441C15.9742 10.2282 15.9778 10.2123 15.981 10.1962C15.9841 10.1801 15.9869 10.164 15.9893 10.1478C15.9917 10.1316 15.9937 10.1154 15.9953 10.0991C15.9969 10.0828 15.9981 10.0664 15.9988 10.0501C15.9996 10.0337 16 10.0173 16 10.001C16 9.98459 15.9996 9.96823 15.9988 9.95187C15.9981 9.93551 15.9969 9.91918 15.9953 9.90288C15.9937 9.88659 15.9917 9.87034 15.9893 9.85413C15.9869 9.83793 15.9841 9.8218 15.981 9.80573C15.9778 9.78967 15.9742 9.77369 15.9703 9.7578C15.9663 9.74191 15.9619 9.72613 15.9572 9.71046C15.9524 9.69479 15.9473 9.67924 15.9418 9.66382C15.9363 9.6484 15.9304 9.63312 15.9242 9.61798C15.9179 9.60285 15.9113 9.58788 15.9043 9.57307C15.8973 9.55826 15.89 9.54363 15.8822 9.5292C15.8745 9.51474 15.8665 9.50049 15.8581 9.48645C15.8497 9.4724 15.8409 9.45856 15.8318 9.44494C15.8227 9.43131 15.8133 9.41792 15.8036 9.40477C15.7938 9.39161 15.7837 9.3787 15.7734 9.36602C15.763 9.35337 15.7523 9.34097 15.7413 9.32883C15.7303 9.31669 15.719 9.30482 15.7075 9.29323C15.6959 9.28165 15.684 9.27036 15.6719 9.25936C15.6598 9.24834 15.6474 9.23764 15.6347 9.22725C15.6221 9.21686 15.6092 9.20678 15.596 9.19702C15.5829 9.18727 15.5695 9.17784 15.5559 9.16873C15.5423 9.15963 15.5284 9.15087 15.5144 9.14243C15.5004 9.13401 15.4861 9.12594 15.4717 9.11822C15.4572 9.1105 15.4426 9.10313 15.4278 9.09612C15.413 9.08912 15.3981 9.08249 15.3829 9.07622C15.3678 9.06994 15.3525 9.06404 15.3371 9.05852C15.3217 9.05301 15.3061 9.04787 15.2905 9.0431C15.2748 9.03835 15.259 9.03398 15.2431 9.03C15.2273 9.02602 15.2113 9.02243 15.1952 9.01924C15.1792 9.01604 15.163 9.01323 15.1468 9.01083C15.1306 9.00842 15.1144 9.00641 15.0981 9.0048C15.0818 9.00321 15.0655 9.00201 15.0491 9.00119C15.0328 9.0004 15.0164 9 15 9C14.9836 9 14.9673 9.0004 14.9509 9.00119C14.9345 9.00201 14.9182 9.00321 14.9019 9.0048C14.8856 9.00641 14.8694 9.00842 14.8532 9.01083C14.837 9.01323 14.8209 9.01604 14.8048 9.01924C14.7887 9.02243 14.7728 9.02602 14.7569 9.03C14.741 9.03398 14.7252 9.03835 14.7095 9.0431C14.6939 9.04787 14.6783 9.05301 14.6629 9.05852C14.6475 9.06404 14.6322 9.06994 14.6171 9.07622C14.602 9.08249 14.587 9.08912 14.5722 9.09612C14.5574 9.10313 14.5428 9.1105 14.5284 9.11822C14.5139 9.12594 14.4997 9.13401 14.4856 9.14243C14.4716 9.15087 14.4577 9.15963 14.4441 9.16873C14.4305 9.17784 14.4171 9.18727 14.404 9.19702C14.3909 9.20678 14.378 9.21686 14.3653 9.22725C14.3526 9.23764 14.3402 9.24834 14.3281 9.25936C14.316 9.27036 14.3041 9.28165 14.2925 9.29323C14.281 9.30482 14.2697 9.31669 14.2587 9.32883C14.2477 9.34097 14.237 9.35337 14.2266 9.36602C14.2163 9.3787 14.2062 9.39161 14.1965 9.40477C14.1867 9.41792 14.1773 9.43131 14.1682 9.44494C14.1591 9.45856 14.1504 9.4724 14.142 9.48645C14.1335 9.50049 14.1255 9.51474 14.1178 9.5292C14.1101 9.54363 14.1027 9.55826 14.0957 9.57307C14.0887 9.58788 14.0821 9.60285 14.0758 9.61798C14.0696 9.63312 14.0637 9.6484 14.0582 9.66382C14.0527 9.67924 14.0476 9.69479 14.0428 9.71046C14.0381 9.72615 14.0337 9.74193 14.0298 9.7578C14.0258 9.77369 14.0222 9.78967 14.0191 9.80573C14.0159 9.8218 14.0131 9.83793 14.0107 9.85413C14.0083 9.87034 14.0063 9.88659 14.0047 9.90288C14.0031 9.91918 14.002 9.93551 14.0012 9.95187C14.0004 9.96823 14 9.98459 14 10.001Z"   fill="#0063B1" >
</path>
</svg>
