<svg xmlns="http://www.w3.org/2000/svg" xmlns:xlink="http://www.w3.org/1999/xlink" width="32" height="32" viewBox="0 0 32 32" fill="none">
<path d="M8.12 13.09L11.88 15.34L11.55 13.21L11.91 13.15C12.4595 13.0624 13.0159 12.9911 13.57 12.94C14.1241 12.8889 14.6737 12.8544 15.23 12.84L15.23 27.23C15.23 27.2425 15.23 27.2575 15.23 27.27C15.23 27.2825 15.24 27.2975 15.24 27.31C15.24 27.3225 15.24 27.3376 15.24 27.35C15.24 27.3624 15.25 27.3677 15.25 27.38C15.25 27.3923 15.26 27.4078 15.26 27.42C15.26 27.4321 15.27 27.448 15.27 27.46C15.27 27.472 15.28 27.4782 15.28 27.49C15.28 27.5018 15.29 27.5184 15.29 27.53C15.29 27.5415 15.31 27.5487 15.31 27.56C15.31 27.5713 15.32 27.579 15.32 27.59C15.32 27.601 15.34 27.6193 15.34 27.63C15.34 27.6407 15.36 27.6496 15.36 27.66C15.36 27.6704 15.38 27.6799 15.38 27.69C15.38 27.7 15.41 27.72 15.41 27.72L15.43 27.75L15.46 27.78L15.48 27.8L15.51 27.83C15.51 27.83 15.5299 27.85 15.54 27.85C15.5501 27.85 15.5596 27.87 15.57 27.87C15.5804 27.87 15.5893 27.89 15.6 27.89C15.6107 27.89 15.6289 27.91 15.64 27.91C15.651 27.91 15.6587 27.93 15.67 27.93C15.6813 27.93 15.6984 27.94 15.71 27.94C15.7216 27.94 15.7282 27.95 15.74 27.95C15.7518 27.95 15.768 27.97 15.78 27.97C15.792 27.97 15.7978 27.98 15.81 27.98C15.8222 27.98 15.8377 27.98 15.85 27.98C15.8623 27.98 15.8776 27.99 15.89 27.99C15.9024 27.99 15.9075 28 15.92 28C15.9325 28 15.9475 28 15.96 28C15.9725 28 15.9875 28 16 28C16.0125 28 16.0275 28 16.04 28C16.0525 28 16.0575 28 16.07 28C16.0825 28 16.0976 27.99 16.11 27.99C16.1224 27.99 16.1377 27.98 16.15 27.98C16.1623 27.98 16.1678 27.98 16.18 27.98C16.1921 27.98 16.208 27.97 16.22 27.97C16.232 27.97 16.2482 27.95 16.26 27.95C16.2718 27.95 16.2784 27.94 16.29 27.94C16.3016 27.94 16.3187 27.93 16.33 27.93C16.3413 27.93 16.3489 27.91 16.36 27.91C16.371 27.91 16.3793 27.89 16.39 27.89C16.4007 27.89 16.4096 27.87 16.42 27.87C16.4304 27.87 16.4399 27.85 16.45 27.85C16.4601 27.85 16.48 27.83 16.48 27.83L16.51 27.8L16.54 27.78L16.57 27.75L16.59 27.72C16.59 27.72 16.61 27.7 16.61 27.69C16.61 27.6799 16.63 27.6704 16.63 27.66C16.63 27.6496 16.65 27.6407 16.65 27.63C16.65 27.6193 16.67 27.601 16.67 27.59C16.67 27.579 16.69 27.5713 16.69 27.56C16.69 27.5487 16.71 27.5415 16.71 27.53C16.71 27.5184 16.72 27.5018 16.72 27.49C16.72 27.4782 16.73 27.472 16.73 27.46C16.73 27.448 16.74 27.4321 16.74 27.42C16.74 27.4078 16.75 27.3923 16.75 27.38C16.75 27.3677 16.76 27.3624 16.76 27.35C16.76 27.3376 16.76 27.3225 16.76 27.31C16.76 27.2975 16.76 27.2825 16.76 27.27C16.76 27.2575 16.76 27.2425 16.76 27.23L16.76 12.84C22.2136 12.9942 26.47 14.7758 26.47 16.56C26.47 17.5169 25.1141 18.6022 22.71 19.36L23.17 20.82C26.146 19.8835 28 18.3942 28 16.56C28 13.584 23.01 11.4703 16.77 11.31L16.77 4.77C16.77 4.75746 16.77 4.74252 16.77 4.73C16.77 4.71748 16.76 4.70248 16.76 4.69C16.76 4.67752 16.76 4.6624 16.76 4.65C16.76 4.6376 16.75 4.63229 16.75 4.62C16.75 4.60771 16.74 4.59216 16.74 4.58C16.74 4.56784 16.73 4.552 16.73 4.54C16.73 4.528 16.72 4.5218 16.72 4.51C16.72 4.4982 16.71 4.48158 16.71 4.47C16.71 4.45842 16.69 4.45133 16.69 4.44C16.69 4.42867 16.68 4.41106 16.68 4.4C16.68 4.38895 16.66 4.38075 16.66 4.37C16.66 4.35925 16.64 4.35042 16.64 4.34C16.64 4.32958 16.62 4.32007 16.62 4.31C16.62 4.29993 16.59 4.28 16.59 4.28L16.57 4.25L16.54 4.22L16.51 4.2L16.49 4.17C16.49 4.17 16.4701 4.15 16.46 4.15C16.4499 4.15 16.4404 4.13 16.43 4.13C16.4196 4.13 16.4007 4.11 16.39 4.11C16.3792 4.11 16.371 4.09 16.36 4.09C16.3489 4.09 16.3413 4.07 16.33 4.07C16.3187 4.07 16.3016 4.06 16.29 4.06C16.2784 4.06 16.2718 4.04 16.26 4.04C16.2482 4.04 16.232 4.03 16.22 4.03C16.208 4.03 16.2022 4.02 16.19 4.02C16.1778 4.02 16.1623 4.01 16.15 4.01C16.1377 4.01 16.1224 4.01 16.11 4.01C16.0976 4.01 16.0924 4 16.08 4C16.0675 4 16.0525 4 16.04 4C16.0275 4 16.0125 4 16 4C15.9875 4 15.9725 4 15.96 4C15.9475 4 15.9325 4 15.92 4C15.9075 4 15.9024 4.01 15.89 4.01C15.8776 4.01 15.8623 4.01 15.85 4.01C15.8377 4.01 15.8222 4.02 15.81 4.02C15.7978 4.02 15.792 4.03 15.78 4.03C15.768 4.03 15.7518 4.04 15.74 4.04C15.7282 4.04 15.7216 4.06 15.71 4.06C15.6984 4.06 15.6813 4.07 15.67 4.07C15.6587 4.07 15.651 4.09 15.64 4.09C15.6289 4.09 15.6207 4.11 15.61 4.11C15.5993 4.11 15.5804 4.13 15.57 4.13C15.5596 4.13 15.5501 4.15 15.54 4.15C15.5299 4.15 15.51 4.17 15.51 4.17L15.49 4.2L15.46 4.22L15.43 4.25L15.41 4.28C15.41 4.28 15.38 4.29993 15.38 4.31C15.38 4.32007 15.36 4.32958 15.36 4.34C15.36 4.35042 15.34 4.35925 15.34 4.37C15.34 4.38075 15.32 4.38895 15.32 4.4C15.32 4.41106 15.31 4.42867 15.31 4.44C15.31 4.45133 15.29 4.45842 15.29 4.47C15.29 4.48158 15.28 4.4982 15.28 4.51C15.28 4.5218 15.27 4.528 15.27 4.54C15.27 4.552 15.26 4.56784 15.26 4.58C15.26 4.59216 15.25 4.60771 15.25 4.62C15.25 4.63229 15.24 4.6376 15.24 4.65C15.24 4.6624 15.24 4.67752 15.24 4.69C15.24 4.70248 15.23 4.71748 15.23 4.73C15.23 4.74252 15.23 4.75746 15.23 4.77L15.23 11.31C13.8635 11.3457 12.5468 11.4804 11.31 11.7L11.01 9.79L8.12 13.09ZM18.38 20.19L18.53 21.71L18.74 21.69C19.2022 21.646 19.6611 21.5905 20.12 21.52C20.5789 21.4495 21.0359 21.3668 21.49 21.27L21.69 21.22L21.36 19.73L21.17 19.77C20.3581 19.9457 19.4897 20.0822 18.59 20.17L18.38 20.19ZM10.31 21.22L10.51 21.27C10.9652 21.3664 11.4201 21.4493 11.88 21.52C12.3399 21.5907 12.8068 21.6453 13.27 21.69L13.47 21.71L13.62 20.19L13.41 20.17C12.7155 20.1026 12.0465 20.0005 11.4 19.88L11.11 19.83L10.63 19.73L10.31 21.22ZM6.31 19.75L6.49 19.85C7.23553 20.2657 8.13485 20.6228 9.15 20.92L9.34 20.98L9.77 19.51L9.58 19.45C8.67311 19.1845 7.88238 18.8685 7.24 18.51L7.06 18.41L6.31 19.75ZM4 16.65C4.04085 17.5048 4.46689 18.2927 5.24 18.98L5.39 19.11L6.41 17.97L6.26 17.83C5.79226 17.4133 5.54838 16.9991 5.53 16.61C5.53 16.4313 5.55587 16.302 5.61 16.16L5.68 15.97L4.24 15.43L4.17 15.62C4.04752 15.9437 4 16.2568 4 16.65Z"   fill="#0063B1" >
</path>
<path d="M16.77 12.84L16.77 27.23C16.77 27.2425 16.77 27.2575 16.77 27.27C16.77 27.2825 16.76 27.2975 16.76 27.31C16.76 27.3225 16.76 27.3376 16.76 27.35C16.76 27.3624 16.75 27.3677 16.75 27.38C16.75 27.3923 16.74 27.4078 16.74 27.42C16.74 27.4321 16.73 27.448 16.73 27.46C16.73 27.472 16.72 27.4782 16.72 27.49C16.72 27.5018 16.71 27.5184 16.71 27.53C16.71 27.5415 16.69 27.5487 16.69 27.56C16.69 27.5713 16.68 27.579 16.68 27.59C16.68 27.601 16.66 27.6193 16.66 27.63C16.66 27.6407 16.64 27.6496 16.64 27.66C16.64 27.6704 16.62 27.6799 16.62 27.69C16.62 27.7 16.59 27.72 16.59 27.72L16.57 27.75L16.54 27.78L16.52 27.8L16.49 27.83C16.49 27.83 16.47 27.85 16.46 27.85C16.4499 27.85 16.4404 27.87 16.43 27.87C16.4196 27.87 16.4107 27.89 16.4 27.89C16.3892 27.89 16.371 27.91 16.36 27.91C16.3489 27.91 16.3413 27.93 16.33 27.93C16.3186 27.93 16.3016 27.94 16.29 27.94C16.2784 27.94 16.2718 27.95 16.26 27.95C16.2482 27.95 16.232 27.97 16.22 27.97C16.208 27.97 16.2021 27.98 16.19 27.98C16.1778 27.98 16.1623 27.98 16.15 27.98C16.1377 27.98 16.1224 27.99 16.11 27.99C16.0976 27.99 16.0925 28 16.08 28C16.0675 28 16.0525 28 16.04 28C16.0275 28 16.0125 28 16 28C15.9875 28 15.9725 28 15.96 28C15.9475 28 15.9425 28 15.93 28C15.9175 28 15.9024 27.99 15.89 27.99C15.8776 27.99 15.8623 27.98 15.85 27.98C15.8377 27.98 15.8321 27.98 15.82 27.98C15.8078 27.98 15.792 27.97 15.78 27.97C15.768 27.97 15.7518 27.95 15.74 27.95C15.7282 27.95 15.7216 27.94 15.71 27.94C15.6984 27.94 15.6813 27.93 15.67 27.93C15.6586 27.93 15.651 27.91 15.64 27.91C15.6289 27.91 15.6207 27.89 15.61 27.89C15.5992 27.89 15.5904 27.87 15.58 27.87C15.5696 27.87 15.56 27.85 15.55 27.85C15.5399 27.85 15.52 27.83 15.52 27.83L15.49 27.8L15.46 27.78L15.43 27.75L15.41 27.72C15.41 27.72 15.39 27.7 15.39 27.69C15.39 27.6799 15.37 27.6704 15.37 27.66C15.37 27.6496 15.35 27.6407 15.35 27.63C15.35 27.6193 15.33 27.601 15.33 27.59C15.33 27.579 15.31 27.5713 15.31 27.56C15.31 27.5487 15.29 27.5415 15.29 27.53C15.29 27.5184 15.28 27.5018 15.28 27.49C15.28 27.4782 15.27 27.472 15.27 27.46C15.27 27.448 15.26 27.4321 15.26 27.42C15.26 27.4078 15.25 27.3923 15.25 27.38C15.25 27.3677 15.24 27.3624 15.24 27.35C15.24 27.3376 15.24 27.3225 15.24 27.31C15.24 27.2975 15.24 27.2825 15.24 27.27C15.24 27.2575 15.24 27.2425 15.24 27.23L15.24 12.84L15.23 4.77C15.23 4.75746 15.23 4.74252 15.23 4.73C15.23 4.71748 15.24 4.70248 15.24 4.69C15.24 4.67752 15.24 4.6624 15.24 4.65C15.24 4.6376 15.25 4.63229 15.25 4.62C15.25 4.60771 15.26 4.59216 15.26 4.58C15.26 4.56784 15.27 4.552 15.27 4.54C15.27 4.528 15.28 4.5218 15.28 4.51C15.28 4.4982 15.29 4.48158 15.29 4.47C15.29 4.45842 15.31 4.45133 15.31 4.44C15.31 4.42867 15.32 4.41106 15.32 4.4C15.32 4.38895 15.34 4.38075 15.34 4.37C15.34 4.35925 15.36 4.35042 15.36 4.34C15.36 4.32958 15.38 4.32007 15.38 4.31C15.38 4.29993 15.41 4.28 15.41 4.28L15.43 4.25L15.46 4.22L15.49 4.2L15.51 4.17C15.51 4.17 15.5299 4.15 15.54 4.15C15.55 4.15 15.5596 4.13 15.57 4.13C15.5804 4.13 15.5992 4.11 15.61 4.11C15.6208 4.11 15.6289 4.09 15.64 4.09C15.651 4.09 15.6586 4.07 15.67 4.07C15.6813 4.07 15.6984 4.06 15.71 4.06C15.7216 4.06 15.7282 4.04 15.74 4.04C15.7518 4.04 15.768 4.03 15.78 4.03C15.792 4.03 15.7978 4.02 15.81 4.02C15.8221 4.02 15.8377 4.01 15.85 4.01C15.8623 4.01 15.8776 4.01 15.89 4.01C15.9024 4.01 15.9075 4 15.92 4C15.9325 4 15.9475 4 15.96 4C15.9725 4 15.9874 4 16 4C16.0125 4 16.0275 4 16.04 4C16.0525 4 16.0675 4 16.08 4C16.0925 4 16.0976 4.01 16.11 4.01C16.1224 4.01 16.1377 4.01 16.15 4.01C16.1623 4.01 16.1778 4.02 16.19 4.02C16.2021 4.02 16.208 4.03 16.22 4.03C16.232 4.03 16.2482 4.04 16.26 4.04C16.2718 4.04 16.2784 4.06 16.29 4.06C16.3016 4.06 16.3186 4.07 16.33 4.07C16.3413 4.07 16.3489 4.09 16.36 4.09C16.371 4.09 16.3792 4.11 16.39 4.11C16.4007 4.11 16.4196 4.13 16.43 4.13C16.4404 4.13 16.4499 4.15 16.46 4.15C16.47 4.15 16.49 4.17 16.49 4.17L16.51 4.2L16.54 4.22L16.57 4.25L16.59 4.28C16.59 4.28 16.62 4.29993 16.62 4.31C16.62 4.32007 16.64 4.32958 16.64 4.34C16.64 4.35042 16.66 4.35925 16.66 4.37C16.66 4.38075 16.68 4.38895 16.68 4.4C16.68 4.41106 16.69 4.42867 16.69 4.44C16.69 4.45133 16.71 4.45842 16.71 4.47C16.71 4.48158 16.72 4.4982 16.72 4.51C16.72 4.5218 16.73 4.528 16.73 4.54C16.73 4.552 16.74 4.56784 16.74 4.58C16.74 4.59216 16.75 4.60771 16.75 4.62C16.75 4.63229 16.76 4.6376 16.76 4.65C16.76 4.6624 16.76 4.67752 16.76 4.69C16.76 4.70248 16.77 4.71748 16.77 4.73C16.77 4.74252 16.77 4.75746 16.77 4.77L16.77 12.84Z"   fill="#000000" >
</path>
</svg>
