<svg xmlns="http://www.w3.org/2000/svg" xmlns:xlink="http://www.w3.org/1999/xlink" width="24" height="24" viewBox="0 0 24 24" fill="none">
<path d="M11.1 22L11 21C12 21 12.9 20.9 13.8 20.6L14.1 21.6C13.1 21.8 12.1 22 11.1 22ZM7.89999 21.5C6.89998 21.2 5.99998 20.7 5.09998 20L5.69998 19.2C6.49998 19.8 7.29999 20.2 8.19999 20.5L7.89999 21.5ZM16.9 20.1L16.3 19.3C17.1 18.7 17.7 18.1 18.3 17.3L19.1 17.9C18.5 18.8 17.8 19.5 16.9 20.1ZM2.89997 17.8C2.29998 16.9 1.79998 16 1.49998 15L2.49998 14.7C2.79998 15.6 3.19997 16.5 3.79998 17.2L2.89997 17.8ZM20.6 15.1L19.6 14.8C19.9 13.9 20 13 20 12L21 12C21.1 13.1 20.9 14.1 20.6 15.1ZM2.09998 11.9L1.09998 11.9C1.09998 10.8 1.29998 9.8 1.59998 8.80002L2.49998 9.10002C2.29998 10 2.09998 10.9 2.09998 11.9ZM19.7 9.5C19.4 8.6 19 7.7 18.5 6.90001L19.3 6.30001C19.9 7.20001 20.4 8.10001 20.7 9.10002L19.7 9.5ZM3.89998 6.60001L3.09998 6.00001C3.69999 5.20002 4.49998 4.4 5.39998 3.79999L5.99998 4.60002C5.19999 5.20002 4.49998 5.80002 3.89998 6.60001ZM16.6 4.90002C15.8 4.30001 15 3.9 14.1 3.6L14.4 2.7C15.4 3 16.3 3.6 17.2 4.2L16.6 4.90002ZM8.49999 3.40001L8.19999 2.4C9.09999 2.1 10.1 2 11.1 2L11.3 2L11.3 3L11.1 3C10.2 3 9.29998 3.10001 8.49999 3.40001Z"   fill="#0063B1" >
</path>
<path d="M11.1 18.4C7.59997 18.4 4.69995 15.6 4.69995 12C4.69995 8.39998 7.49996 5.59998 11.1 5.59998C14.7 5.59998 17.5 8.39998 17.5 12C17.5 15.6 14.5999 18.4 11.1 18.4ZM11.1 6.59998C8.09996 6.59998 5.69996 8.99998 5.69996 12C5.69996 15 8.09996 17.4 11.1 17.4C14.1 17.4 16.5 15 16.5 12C16.5 8.99998 14 6.59998 11.1 6.59998Z"   fill="#000000" >
</path>
<path d="M18.8 11.5L22.4 11.5L22.4 12.5L18.8 12.5L18.8 11.5Z"   fill="#0063B1" >
</path>
</svg>
