<svg xmlns="http://www.w3.org/2000/svg" xmlns:xlink="http://www.w3.org/1999/xlink" width="24" height="24"
    viewBox="0 0 24 24" fill="none">
    <path
        d="M7.49477 10.8633L4.63163 10.8633C4.37899 10.8633 4.21057 10.6949 4.21057 10.4422L4.21057 4.37906C4.21057 4.12643 4.37899 3.95801 4.63163 3.95801L10.6948 3.95801C10.9474 3.95801 11.1158 4.12643 11.1158 4.37906L11.1158 7.41063C11.1158 7.66327 10.9474 7.83169 10.6948 7.83169L7.91583 7.83169L7.91583 10.4422C7.91583 10.6949 7.74741 10.8633 7.49477 10.8633ZM5.05268 10.0212L7.15795 10.0212L7.15795 7.41063C7.15795 7.15802 7.32635 6.9896 7.57899 6.9896L10.3579 6.9896L10.3579 4.80012L5.05268 4.80012L5.05268 10.0212Z"
        fill="#000000"></path>
    <path
        d="M13.3053 16.9263L7.49476 16.9263C7.24213 16.9263 7.07373 16.7579 7.07373 16.5053L7.07373 7.41053C7.07373 7.15792 7.24215 6.9895 7.49476 6.9895L16.5895 6.9895C16.8421 6.9895 17.0106 7.15792 17.0106 7.41053L17.0106 13.5579C17.0106 13.8105 16.8421 13.979 16.5895 13.979L13.7263 13.979L13.7263 16.5053C13.7263 16.7579 13.5579 16.9263 13.3053 16.9263L13.3053 16.9263ZM7.91582 16.0842L12.8842 16.0842L12.8842 13.5579C12.8842 13.3053 13.0527 13.1369 13.3053 13.1369L16.1685 13.1369L16.1685 7.83159L7.91582 7.83159L7.91582 16.0842Z"
        fill="#0063B1"></path>
    <path
        d="M19.3684 20.0422L13.3052 20.0422C13.0526 20.0422 12.8842 19.8738 12.8842 19.6212L12.8842 13.558C12.8842 13.3054 13.0526 13.137 13.3052 13.137L19.3684 13.137C19.621 13.137 19.7894 13.3054 19.7894 13.558L19.7894 19.6212C19.7894 19.8738 19.621 20.0422 19.3684 20.0422ZM13.7263 19.2001L18.9473 19.2001L18.9473 13.9791L13.7263 13.9791L13.7263 19.2001Z"
        fill="#000000"></path>
    <path
        d="M13.4737 19.9579C13.3895 19.9579 13.2211 19.9579 13.1369 19.8737C12.9685 19.7052 12.9685 19.4526 13.1369 19.2842L18.9474 13.4737C19.1158 13.3053 19.3685 13.3053 19.5369 13.4737C19.7053 13.6421 19.7053 13.8947 19.5369 14.0632L13.7264 19.8737C13.6422 19.8737 13.558 19.9579 13.4737 19.9579ZM16.0001 20.0421C15.9159 20.0421 15.7474 20.0421 15.6632 19.9579C15.4948 19.7895 15.4948 19.5369 15.6632 19.3684L19.0316 16C19.2001 15.8316 19.4527 15.8316 19.6211 16C19.7896 16.1684 19.7896 16.4211 19.6211 16.5895L16.2527 19.9579C16.2527 19.9579 16.0843 20.0421 16.0001 20.0421ZM13.3053 17.2631C13.2211 17.2631 13.0527 17.2631 12.9685 17.1789C12.8001 17.0105 12.8001 16.7579 12.9685 16.5895L16.3369 13.221C16.5053 13.0526 16.7579 13.0526 16.9264 13.221C17.0948 13.3895 17.0948 13.6421 16.9264 13.8105L13.558 17.1789C13.4737 17.2631 13.3895 17.2631 13.3053 17.2631Z"
        fill="#000000"></path>
</svg>