<svg xmlns="http://www.w3.org/2000/svg" xmlns:xlink="http://www.w3.org/1999/xlink" width="24" height="24" viewBox="0 0 24 24" fill="none">
<path d="M10.8 13.3L15.6 13.3L15.6 14.3L10.8 14.3L10.8 13.3ZM8.70001 6.00004L9.70002 6.00004L9.70002 12.3L8.70001 12.3L8.70001 6.00004ZM9.2 2.80005L7.50001 5.70004L11 5.70004L9.2 2.80005ZM3.91001 18.564L7.72801 14.746L8.43601 15.453L4.61701 19.271L3.91001 18.564ZM2 21.2L5.3 20.4L2.80001 17.9L2 21.2Z"   fill="#0063B1" >
</path>
<path d="M9.19998 16C7.99998 16 7.09998 15.1 7.09998 13.9C7.09998 12.7 7.99998 11.8 9.19998 11.8C10.4 11.8 11.3 12.7 11.3 13.9C11.3 15.1 10.4 16 9.19998 16ZM9.19998 12.9C8.59998 12.9 8.09998 13.4 8.09998 14C8.09998 14.6 8.59998 15 9.19998 15C9.79998 15 10.3 14.5 10.3 13.9C10.3 13.3 9.79998 12.9 9.19998 12.9Z"   fill="#000000" >
</path>
<path d="M22 19.3001L17.1 19.3001C16.8 19.3001 16.6 19.1 16.6 18.8L16.6 4.30006C16.6 4.00006 16.8 3.80005 17.1 3.80005L22 3.80005C22.3 3.80005 22.5 4.00006 22.5 4.30006L22.5 18.8C22.5 19.1 22.3 19.3001 22 19.3001ZM17.6 18.3001L21.5 18.3001L21.5 4.80006L17.6 4.80006L17.6 18.3001Z"   fill="#000000" >
</path>
<path d="M19.1 17L17.3 17C17 17 16.8 16.8 16.8 16.5C16.8 16.2001 17 16.0001 17.3 16.0001L19.1 16.0001C19.4 16.0001 19.6001 16.2001 19.6001 16.5C19.6001 16.8 19.4 17 19.1 17ZM19.1 13.8L17.3 13.8C17 13.8 16.8 13.6001 16.8 13.3001C16.8 13.0001 17 12.8 17.3 12.8L19.1 12.8C19.4 12.8 19.6001 13.0001 19.6001 13.3001C19.6001 13.6001 19.4 13.8 19.1 13.8ZM20.3 10.6001L17.3 10.6001C17 10.6001 16.8 10.4 16.8 10.1C16.8 9.80004 17 9.60005 17.3 9.60005L20.3 9.60005C20.6 9.60005 20.8001 9.80004 20.8001 10.1C20.8001 10.4 20.6 10.6001 20.3 10.6001ZM19.1 7.30006L17.3 7.30006C17 7.30006 16.8 7.10004 16.8 6.80004C16.8 6.50004 17 6.30005 17.3 6.30005L19.1 6.30005C19.4 6.30005 19.6001 6.50004 19.6001 6.80004C19.6001 7.10004 19.4 7.30006 19.1 7.30006Z"   fill="#000000" >
</path>
</svg>
