<svg xmlns="http://www.w3.org/2000/svg" xmlns:xlink="http://www.w3.org/1999/xlink" width="24" height="24" viewBox="0 0 24 24" fill="none">
<path d="M8.25326 4.70996L6.00326 4.70996C4.99891 4.70996 4.99891 6.20996 6.00326 6.20996L8.25326 6.20996C9.25525 6.20996 9.25525 4.70996 8.25326 4.70996ZM8.25326 11.47L6.00326 11.47C4.99891 11.47 4.99891 12.98 6.00326 12.98L8.25326 12.98C9.25525 12.98 9.25525 11.47 8.25326 11.47ZM8.25326 18.49L6.00326 18.49C4.99891 18.49 4.99891 20 6.00326 20L8.25326 20C9.25525 20 9.25525 18.49 8.25326 18.49Z"   fill="#0063B1" >
</path>
<path d="M20.3 3L4.76 3C3.79117 3 3 3.79117 3 4.76L3 6.26C3 7.22883 3.79117 8.01 4.76 8.01L20.3 8.01C21.2688 8.01 22.06 7.22883 22.06 6.26L22.06 4.76C22.06 3.79117 21.2688 3 20.3 3ZM21.05 6.26C21.05 6.67455 20.7169 7.01 20.3 7.01L4.76 7.01C4.34545 7.01 4 6.67689 4 6.26L4 4.76C4 4.34547 4.34309 4 4.76 4L20.3 4C20.7145 4 21.05 4.34309 21.05 4.76L21.05 6.26ZM20.3 9.77L4.76 9.77C3.79117 9.77 3 10.5512 3 11.52L3 13.03C3 13.9988 3.79117 14.78 4.76 14.78L20.3 14.78C21.2688 14.78 22.06 13.9988 22.06 13.03L22.06 11.52C22.06 10.5512 21.2688 9.77 20.3 9.77ZM21.05 13.03C21.05 13.4445 20.7169 13.78 20.3 13.78L4.76 13.78C4.34545 13.78 4 13.4469 4 13.03L4 11.53C4 11.1155 4.34309 10.77 4.76 10.77L20.3 10.77C20.7145 10.77 21.05 11.1131 21.05 11.53L21.05 13.03ZM20.3 16.79L4.76 16.79C3.79117 16.79 3 17.5712 3 18.54L3 20.05C3 21.0188 3.79117 21.8 4.76 21.8L20.3 21.8C21.2688 21.8 22.06 21.0188 22.06 20.05L22.06 18.54C22.06 17.5712 21.2688 16.79 20.3 16.79ZM21.05 20.05C21.05 20.4645 20.7169 20.8 20.3 20.8L4.76 20.8C4.34545 20.8 4 20.4669 4 20.05L4 18.54C4 18.1255 4.34309 17.79 4.76 17.79L20.3 17.79C20.7145 17.79 21.05 18.1231 21.05 18.54L21.05 20.05Z"   fill="#000000" >
</path>
</svg>
