<svg xmlns="http://www.w3.org/2000/svg" xmlns:xlink="http://www.w3.org/1999/xlink" width="16" height="16"
    viewBox="0 0 16 16" fill="none">
    <path
        d="M13.4768 11.9019C13.2314 12.1819 12.9844 12.3794 12.7357 12.4943C12.4904 12.6092 12.1963 12.6666 11.8534 12.6666C11.309 12.6666 10.8906 12.5123 10.5982 12.2035C10.3024 11.8983 10.1545 11.4855 10.1545 10.9649C10.1545 10.2613 10.4217 9.74428 10.9561 9.414C11.2922 9.20575 11.8232 9.10163 12.5492 9.10163C12.7408 9.10163 13.0281 9.11241 13.4113 9.13397L13.4113 9.03166C13.4113 8.18078 13.0231 7.75535 12.2467 7.75538C11.8064 7.75538 11.3325 7.91156 10.825 8.22391L10.5024 7.29763C11.1141 6.96735 11.7476 6.80222 12.4029 6.80222C13.2533 6.80222 13.8616 7.04635 14.2279 7.53456C14.3758 7.73566 14.4767 7.96903 14.5304 8.23463C14.5876 8.50028 14.6162 8.89878 14.6162 9.43013L14.6162 11.1103C14.6162 11.7063 14.633 12.3076 14.6666 12.6666L13.4768 12.6666L13.4768 11.9019ZM13.4113 9.94172C13.213 9.92375 13.0315 9.91478 12.8668 9.91478C12.3794 9.91478 12.0283 9.9866 11.8132 10.1302C11.5409 10.3133 11.4048 10.5826 11.4048 10.938C11.4048 11.1929 11.4787 11.3993 11.6266 11.5573C11.7745 11.7117 11.9728 11.7888 12.2215 11.7888C12.6819 11.7888 13.0785 11.5268 13.4113 11.0026L13.4113 9.94172ZM6.96747 9.90406L3.73053 9.90406L2.99991 12.6666L1.33325 12.6666L4.52147 3.33325L6.20078 3.33325L9.66653 12.6666L7.99991 12.6666L6.96747 9.90406ZM6.55372 8.64316L5.82966 6.45941C5.65775 5.93435 5.49753 5.40574 5.349 4.8736C5.22731 5.32853 5.06506 5.85714 4.86222 6.45941L4.13819 8.64316L6.55372 8.64316Z"
        fill="#8a8a8a">
    </path>
</svg>