<svg xmlns="http://www.w3.org/2000/svg" xmlns:xlink="http://www.w3.org/1999/xlink" width="32" height="32" viewBox="0 0 32 32" fill="none">
<path d="M10.4 27.8666L3.99997 27.8666C3.59997 27.8666 3.33331 27.6 3.33331 27.2L3.33331 20.8C3.33331 20.4 3.59997 20.1333 3.99997 20.1333L10.4 20.1333C10.8 20.1333 11.0666 20.4 11.0666 20.8L11.0666 27.2C11.0666 27.4666 10.8 27.8666 10.4 27.8666ZM4.66663 26.5333L9.73331 26.5333L9.73331 21.4666L4.66663 21.4666L4.66663 26.5333Z"   fill="#000000" >
</path>
<path d="M7.19998 20.9333C6.79998 20.9333 6.53333 20.6667 6.53333 20.2667L6.53333 11.2C6.53333 10.8 6.79998 10.5333 7.19998 10.5333C7.59998 10.5333 7.86664 10.8 7.86664 11.2L7.86664 20.1334C7.86664 20.5333 7.59998 20.9333 7.19998 20.9333ZM28 6.26666L14.9333 6.26666C14.5333 6.26666 14.2666 6.00001 14.2666 5.60001C14.2666 5.20001 14.5333 4.93335 14.9333 4.93335L28 4.93335C28.4 4.93335 28.6666 5.20001 28.6666 5.60001C28.6666 6.00001 28.4 6.26666 28 6.26666ZM28 11.2L14.9333 11.2C14.5333 11.2 14.2666 10.9333 14.2666 10.5333C14.2666 10.1333 14.5333 9.86666 14.9333 9.86666L28 9.86666C28.4 9.86666 28.6666 10.1333 28.6666 10.5333C28.6666 10.9333 28.4 11.2 28 11.2ZM28 22.1333L14.9333 22.1333C14.5333 22.1333 14.2666 21.8667 14.2666 21.4667C14.2666 21.0667 14.5333 20.8 14.9333 20.8L28 20.8C28.4 20.8 28.6666 21.0667 28.6666 21.4667C28.6666 21.8667 28.4 22.1333 28 22.1333ZM28 27.0667L14.9333 27.0667C14.5333 27.0667 14.2666 26.8 14.2666 26.4C14.2666 26 14.5333 25.7333 14.9333 25.7333L28 25.7333C28.4 25.7333 28.6666 26 28.6666 26.4C28.6666 26.8 28.4 27.0667 28 27.0667Z"   fill="#000000" >
</path>
<path d="M10.4 11.8666L3.99997 11.8666C3.59997 11.8666 3.33331 11.6 3.33331 11.2L3.33331 4.79996C3.33331 4.39996 3.59997 4.1333 3.99997 4.1333L10.4 4.1333C10.8 4.1333 11.0666 4.39996 11.0666 4.79996L11.0666 11.2C11.0666 11.6 10.8 11.8666 10.4 11.8666ZM4.66663 10.5333L9.73331 10.5333L9.73331 5.46661L4.66663 5.46661L4.66663 10.5333Z"   fill="#0063B1" >
</path>
</svg>
