<svg xmlns="http://www.w3.org/2000/svg" xmlns:xlink="http://www.w3.org/1999/xlink" width="24" height="24" viewBox="0 0 24 24" fill="none"><path d="M13.09 2.25C13.119 2.25 13.141 2.25 13.17 2.25C13.199 2.25 13.2311 2.26 13.26 2.26C13.2889 2.26 13.3212 2.27 13.35 2.27C13.3788 2.27 13.4014 2.28 13.43 2.28C13.4586 2.28 13.4916 2.3 13.52 2.3C13.5484 2.3 13.5719 2.32 13.6 2.32C13.6281 2.32 13.6623 2.34 13.69 2.34C13.7177 2.34 13.7427 2.37 13.77 2.37C13.7973 2.37 13.8232 2.38889 13.85 2.4C13.8769 2.41111 13.9037 2.42773 13.93 2.44C13.9563 2.45227 13.9842 2.4666 14.01 2.48C14.0358 2.4934 14.0548 2.50549 14.08 2.52C14.1052 2.53452 14.1355 2.5444 14.16 2.56C14.1845 2.5756 14.2062 2.59335 14.23 2.61C14.2538 2.62665 14.2769 2.64233 14.3 2.66C14.3231 2.67767 14.3477 2.70134 14.37 2.72L14.5 2.84L18.91 7.25C18.9305 7.27055 18.9504 7.28857 18.97 7.31C18.9896 7.33143 19.0114 7.35775 19.03 7.38C19.0487 7.40225 19.0723 7.42695 19.09 7.45C19.1077 7.47305 19.1233 7.49619 19.14 7.52C19.1567 7.54379 19.1744 7.56549 19.19 7.59C19.2056 7.61449 19.2155 7.63484 19.23 7.66C19.2446 7.68516 19.2566 7.71424 19.27 7.74C19.2834 7.76576 19.2978 7.79369 19.31 7.82C19.3224 7.84633 19.3389 7.87316 19.35 7.9C19.3612 7.92684 19.38 7.9527 19.38 7.98C19.39 8.00729 19.41 8.0323 19.41 8.06C19.41 8.08772 19.43 8.12193 19.43 8.15C19.43 8.17807 19.45 8.20164 19.45 8.23C19.45 8.25836 19.47 8.29139 19.47 8.32C19.47 8.34861 19.48 8.37119 19.48 8.4C19.48 8.42881 19.49 8.46105 19.49 8.49L19.5 8.66L19.5 19.75C19.5 19.7812 19.5 19.8088 19.5 19.84C19.5 19.8711 19.49 19.909 19.49 19.94C19.49 19.971 19.48 19.9991 19.48 20.03C19.48 20.0609 19.47 20.0894 19.47 20.12C19.47 20.1506 19.45 20.1797 19.45 20.21C19.45 20.2403 19.42 20.27 19.42 20.3C19.42 20.33 19.39 20.3605 19.39 20.39C19.38 20.4195 19.3715 20.451 19.36 20.48C19.3487 20.509 19.3428 20.5415 19.33 20.57C19.3172 20.5985 19.3039 20.6222 19.29 20.65C19.2759 20.6778 19.2554 20.7029 19.24 20.73C19.2246 20.7571 19.2065 20.7836 19.19 20.81C19.1735 20.8364 19.1578 20.8644 19.14 20.89C19.1222 20.9156 19.1089 20.9453 19.09 20.97C19.071 20.9947 19.0501 21.0162 19.03 21.04C19.0099 21.0638 18.9912 21.0871 18.97 21.11C18.9488 21.1329 18.9222 21.1582 18.9 21.18C18.8778 21.2019 18.8532 21.2192 18.83 21.24C18.8068 21.2608 18.7842 21.2803 18.76 21.3C18.7358 21.3197 18.7151 21.3414 18.69 21.36C18.6649 21.3786 18.6359 21.3926 18.61 21.41C18.5841 21.4274 18.5567 21.4438 18.53 21.46C18.5033 21.476 18.4774 21.4952 18.45 21.51C18.4226 21.5248 18.3981 21.5365 18.37 21.55C18.3419 21.5635 18.3087 21.5777 18.28 21.59C18.2513 21.6021 18.2292 21.6191 18.2 21.63C18.1708 21.6407 18.1397 21.66 18.11 21.66C18.0803 21.66 18.0501 21.68 18.02 21.68C17.9899 21.68 17.9604 21.7 17.93 21.7C17.8995 21.7 17.8707 21.72 17.84 21.72C17.8093 21.72 17.7709 21.74 17.74 21.74C17.709 21.74 17.6811 21.74 17.65 21.74L17.5 21.75L6.5 21.75C6.46883 21.75 6.44115 21.75 6.41 21.75C6.37887 21.75 6.34104 21.74 6.31 21.74C6.27896 21.74 6.25086 21.73 6.22 21.73C6.18913 21.73 6.16062 21.72 6.13 21.72C6.09936 21.72 6.07033 21.7 6.04 21.7C6.00967 21.7 5.97996 21.67 5.95 21.67C5.92004 21.67 5.88952 21.64 5.86 21.64C5.83048 21.64 5.79902 21.6215 5.77 21.61C5.74098 21.5987 5.70846 21.5927 5.68 21.58C5.65155 21.5673 5.62784 21.5539 5.6 21.54C5.57217 21.5259 5.54715 21.5054 5.52 21.49C5.49285 21.4746 5.46639 21.4566 5.44 21.44C5.41359 21.4234 5.3856 21.4078 5.36 21.39C5.3344 21.3722 5.30473 21.3589 5.28 21.34C5.25526 21.3211 5.23383 21.3002 5.21 21.28C5.18617 21.2599 5.16285 21.2412 5.14 21.22C5.11715 21.1988 5.09185 21.1722 5.07 21.15C5.04816 21.1278 5.03078 21.1032 5.01 21.08C4.98922 21.0568 4.96967 21.0342 4.95 21.01C4.93034 20.9858 4.90853 20.9651 4.89 20.94C4.87148 20.9149 4.85733 20.8859 4.84 20.86C4.82268 20.8341 4.80609 20.8067 4.79 20.78C4.77389 20.7533 4.75483 20.7274 4.74 20.7C4.72517 20.6726 4.71353 20.6481 4.7 20.62C4.68647 20.5919 4.67221 20.5587 4.66 20.53C4.6478 20.5013 4.63086 20.4792 4.62 20.45C4.60915 20.4208 4.59 20.3897 4.59 20.36C4.59 20.3303 4.57 20.3001 4.57 20.27C4.57 20.2399 4.55 20.2104 4.55 20.18C4.55 20.1496 4.53 20.1207 4.53 20.09C4.53 20.0593 4.51 20.0209 4.51 19.99C4.51 19.959 4.51 19.9311 4.51 19.9L4.5 19.75L4.5 4.25C4.5 4.21883 4.5 4.19114 4.5 4.16C4.5 4.12886 4.51 4.09104 4.51 4.06C4.51 4.02896 4.52 4.00087 4.52 3.97C4.52 3.93913 4.53 3.91063 4.53 3.88C4.53 3.84937 4.55 3.82033 4.55 3.79C4.55 3.75967 4.58 3.72996 4.58 3.7C4.58 3.67004 4.59999 3.63952 4.61 3.61C4.62001 3.58048 4.62862 3.54902 4.64 3.52C4.65138 3.49098 4.65728 3.45846 4.67 3.43C4.68272 3.40154 4.69595 3.37783 4.71 3.35C4.72404 3.32217 4.74468 3.29715 4.76 3.27C4.77533 3.24285 4.79343 3.2164 4.81 3.19C4.82658 3.1636 4.8422 3.1356 4.86 3.11C4.87779 3.0844 4.89103 3.05474 4.91 3.03C4.92897 3.00526 4.9499 2.98382 4.97 2.96C4.9901 2.93618 5.0088 2.91286 5.03 2.89C5.0512 2.86714 5.07776 2.84184 5.1 2.82C5.12224 2.79816 5.14676 2.78078 5.17 2.76C5.19324 2.73922 5.21582 2.71967 5.24 2.7C5.26418 2.68033 5.28492 2.65852 5.31 2.64C5.33508 2.62148 5.36409 2.60733 5.39 2.59C5.41591 2.57267 5.4433 2.5561 5.47 2.54C5.49669 2.5239 5.52258 2.50483 5.55 2.49C5.57742 2.47517 5.60193 2.46353 5.63 2.45C5.65809 2.43647 5.69132 2.42221 5.72 2.41C5.74869 2.39779 5.77078 2.38085 5.8 2.37C5.82923 2.35915 5.86031 2.34 5.89 2.34C5.9197 2.34 5.94988 2.32 5.98 2.32C6.0101 2.32 6.03955 2.3 6.07 2.3C6.10046 2.3 6.12927 2.28 6.16 2.28C6.19073 2.28 6.22906 2.26 6.26 2.26C6.29095 2.26 6.31892 2.25 6.35 2.25L6.5 2.25L13.09 2.25ZM6.5 3.25L6.38 3.26C6.36617 3.26 6.35374 3.26 6.34 3.26C6.32625 3.26 6.31363 3.27 6.3 3.27C6.28635 3.27 6.27352 3.28 6.26 3.28C6.2465 3.28 6.23336 3.29 6.22 3.29C6.20664 3.29 6.19319 3.3 6.18 3.3C6.16682 3.3 6.15299 3.32 6.14 3.32C6.12702 3.32 6.11277 3.33 6.1 3.33C6.08724 3.33 6.07253 3.35 6.06 3.35C6.04747 3.35 6.04227 3.37 6.03 3.37C6.01775 3.37 6.00198 3.39 5.99 3.39C5.97802 3.39 5.96167 3.41 5.95 3.41C5.93833 3.41 5.93134 3.44 5.92 3.44C5.90866 3.44 5.90099 3.46 5.89 3.46C5.879 3.46 5.86062 3.49 5.85 3.49C5.83938 3.49 5.83025 3.51 5.82 3.51C5.80975 3.51 5.79 3.54 5.79 3.54C5.79 3.54 5.76 3.55976 5.76 3.57C5.76 3.58024 5.74 3.58937 5.74 3.6C5.74 3.61063 5.71 3.62901 5.71 3.64C5.71 3.65099 5.69 3.65866 5.69 3.67C5.69 3.68134 5.66 3.68833 5.66 3.7C5.66 3.71167 5.64 3.72803 5.64 3.74C5.64 3.75197 5.62 3.76774 5.62 3.78C5.62 3.79226 5.6 3.79747 5.6 3.81C5.6 3.82253 5.58 3.83723 5.58 3.85C5.58 3.86277 5.57 3.87701 5.57 3.89C5.57 3.90299 5.55 3.91681 5.55 3.93C5.55 3.94319 5.54 3.95664 5.54 3.97C5.54 3.98336 5.53 3.99649 5.53 4.01C5.53 4.02351 5.52 4.03636 5.52 4.05C5.52 4.06364 5.51 4.07626 5.51 4.09C5.51 4.10374 5.51 4.11618 5.51 4.13L5.5 4.25L5.5 19.75L5.51 19.87C5.51 19.8838 5.51 19.8962 5.51 19.91C5.51 19.9237 5.52 19.9363 5.52 19.95C5.52 19.9636 5.53 19.9765 5.53 19.99C5.53 20.0035 5.54 20.0166 5.54 20.03C5.54 20.0434 5.55 20.0568 5.55 20.07C5.55 20.0832 5.57 20.097 5.57 20.11C5.57 20.123 5.58 20.1372 5.58 20.15C5.58 20.1628 5.6 20.1775 5.6 20.19C5.6 20.2025 5.62 20.2077 5.62 20.22C5.62 20.2323 5.64 20.248 5.64 20.26C5.64 20.272 5.66 20.2883 5.66 20.3C5.66 20.3117 5.69 20.3187 5.69 20.33C5.69 20.3413 5.71 20.349 5.71 20.36C5.71 20.371 5.74 20.3894 5.74 20.4C5.74 20.4106 5.76 20.4198 5.76 20.43C5.76 20.4403 5.79 20.46 5.79 20.46C5.79 20.46 5.80975 20.49 5.82 20.49C5.83025 20.49 5.83938 20.51 5.85 20.51C5.86062 20.51 5.879 20.54 5.89 20.54C5.90099 20.54 5.90866 20.56 5.92 20.56C5.93134 20.56 5.93833 20.59 5.95 20.59C5.96167 20.59 5.97802 20.61 5.99 20.61C6.00198 20.61 6.01775 20.63 6.03 20.63C6.04227 20.63 6.04747 20.65 6.06 20.65C6.07253 20.65 6.08724 20.67 6.1 20.67C6.11277 20.67 6.12702 20.68 6.14 20.68C6.15298 20.68 6.16681 20.7 6.18 20.7C6.19319 20.7 6.20664 20.71 6.22 20.71C6.23336 20.71 6.2465 20.72 6.26 20.72C6.27352 20.72 6.28635 20.73 6.3 20.73C6.31363 20.73 6.32625 20.74 6.34 20.74C6.35374 20.74 6.36617 20.74 6.38 20.74L6.5 20.75L17.5 20.75L17.62 20.74C17.6338 20.74 17.6462 20.74 17.66 20.74C17.6737 20.74 17.6863 20.73 17.7 20.73C17.7136 20.73 17.7265 20.72 17.74 20.72C17.7535 20.72 17.7666 20.71 17.78 20.71C17.7934 20.71 17.8068 20.7 17.82 20.7C17.8332 20.7 17.847 20.68 17.86 20.68C17.873 20.68 17.8872 20.67 17.9 20.67C17.9128 20.67 17.9275 20.65 17.94 20.65C17.9525 20.65 17.9577 20.63 17.97 20.63C17.9823 20.63 17.998 20.61 18.01 20.61C18.022 20.61 18.0383 20.59 18.05 20.59C18.0617 20.59 18.0687 20.56 18.08 20.56C18.0913 20.56 18.099 20.54 18.11 20.54C18.121 20.54 18.1394 20.51 18.15 20.51C18.1606 20.51 18.1698 20.49 18.18 20.49C18.1903 20.49 18.21 20.46 18.21 20.46C18.21 20.46 18.24 20.4403 18.24 20.43C18.24 20.4198 18.26 20.4106 18.26 20.4C18.26 20.3894 18.29 20.371 18.29 20.36C18.29 20.349 18.31 20.3413 18.31 20.33C18.31 20.3187 18.34 20.3117 18.34 20.3C18.34 20.2883 18.36 20.272 18.36 20.26C18.36 20.248 18.38 20.2323 18.38 20.22C18.38 20.2077 18.4 20.2025 18.4 20.19C18.4 20.1775 18.42 20.1628 18.42 20.15C18.42 20.1372 18.43 20.123 18.43 20.11C18.43 20.097 18.45 20.0832 18.45 20.07C18.45 20.0568 18.46 20.0434 18.46 20.03C18.46 20.0166 18.47 20.0035 18.47 19.99C18.47 19.9765 18.48 19.9637 18.48 19.95C18.48 19.9364 18.49 19.9237 18.49 19.91C18.49 19.8962 18.49 19.8838 18.49 19.87L18.5 19.75L18.5 8.75L13.5 8.75L13.48 8.75L13.46 8.75L13.44 8.75L13.41 8.74L13.39 8.74L13.37 8.73L13.35 8.73L13.33 8.72L13.31 8.71L13.29 8.7L13.27 8.69L13.25 8.68L13.23 8.67L13.21 8.66L13.2 8.65L13.18 8.63L13.16 8.62L13.15 8.6L13.13 8.59L13.12 8.57L13.1 8.56L13.09 8.54L13.08 8.52L13.07 8.5L13.06 8.48L13.05 8.46L13.04 8.44L13.03 8.42L13.02 8.4L13.02 8.38L13.01 8.36L13.01 8.34L13 8.25L13 3.25L6.5 3.25ZM18 7.75L14 3.75L14 7.75L18 7.75Z"   fill="#000000" ></path><path d="M11.4959 15.4703C11.3796 15.7689 11.1602 15.9461 10.9103 16.0164C9.35582 16.4291 9.00975 13.7071 10.124 13.0008C10.8997 12.6239 11.3583 13.0453 11.4966 13.3631L11.4966 12.9371L11.9114 12.9371C11.927 16.2709 12.4179 17.5833 9.47373 17.5672C7.99861 16.9702 6.99983 15.8206 7 14.5006C7.00023 12.5667 9.14418 10.9994 11.7886 11C13.5153 11.0003 15.0254 11.7047 15.8676 12.7071C15.096 12.1089 13.9356 11.7642 12.6415 11.7642C10.3183 11.7642 8.43505 12.9897 8.43505 14.5016C8.43505 15.4494 9.17799 16.2857 10.3028 16.777C11.1839 17.1034 11.5529 16.4836 11.4959 15.4703L11.4959 15.4703ZM15.8583 16.3059C14.6893 17.1628 13.1306 17.3438 11.8132 17.1858C11.5623 17.4521 11.1141 17.7561 10.5038 17.8755C12.6806 18.2874 14.6733 17.6553 15.8583 16.3059ZM14.4612 13.5632L15.2453 13.5632L15.2453 12.9371L13.0521 12.9371L13.0521 13.5632L13.8362 13.5632L13.8362 16.02L14.4612 16.0217L14.4612 13.5632L14.4612 13.5632ZM16.1956 14.7671L17.3375 14.7671L17.3375 14.141L16.1956 14.141L16.1956 13.5632L17.5 13.5632L17.5 12.937L15.5706 12.937L15.5706 16.0234L16.1956 16.0252L16.1956 14.7671L16.1956 14.7671ZM12.275 16.0164L12.7103 16.0182L12.7103 12.1676L12.275 12.1676L12.275 16.0164ZM11.4761 14.4501C11.4761 13.5507 10.8286 12.9855 10.3135 13.4352C9.79829 13.8849 9.79826 15.0152 10.3135 15.4649C10.8287 15.9146 11.4761 15.3494 11.4761 14.4501Z"   fill="#0063B1" ></path></svg>