<svg xmlns="http://www.w3.org/2000/svg" xmlns:xlink="http://www.w3.org/1999/xlink" width="32" height="32" viewBox="0 0 32 32" fill="none">
<path d="M24.814 27.6521L12.7158 27.6521C11.7336 27.6521 10.9301 26.8485 10.9301 25.8664L10.9301 13.1431C10.9301 12.161 11.7336 11.3574 12.7158 11.3574L24.814 11.3574C25.7961 11.3574 26.5997 12.161 26.5997 13.1431L26.5997 25.8664C26.5997 26.8485 25.7961 27.6521 24.814 27.6521Z"   fill="#0082E6" fill-opacity="0.3">
</path>
<path d="M24.814 28.5001L7.13541 28.5001C5.79613 28.5001 4.68005 27.384 4.68005 26.0447L4.68005 5.95538C4.68005 4.61607 5.79613 3.5 7.13541 3.5L24.8587 3.5C26.198 3.5 27.314 4.61607 27.314 5.95538L27.314 26.0447C27.2694 27.384 26.198 28.5001 24.814 28.5001ZM7.13541 4.83928C6.5104 4.83928 6.01933 5.33037 6.01933 5.95538L6.01933 26.0447C6.01933 26.6697 6.5104 27.1608 7.13541 27.1608L24.8587 27.1608C25.4837 27.1608 25.9748 26.6697 25.9748 26.0447L25.9748 5.95538C25.9748 5.33037 25.4837 4.83928 24.8587 4.83928L7.13541 4.83928Z"   fill="#000000" >
</path>
<path d="M13.1621 14.7502L10.2157 14.7502C9.36747 14.7502 8.6532 14.0359 8.6532 13.1877L8.6532 9.97338C8.6532 9.12516 9.36747 8.41089 10.2157 8.41089L13.1621 8.41089C14.0104 8.41089 14.7246 9.12516 14.7246 9.97338L14.7246 13.1877C14.7246 14.0805 14.055 14.7502 13.1621 14.7502ZM10.2157 9.75017C10.0818 9.75017 9.99248 9.83946 9.99248 9.97338L9.99248 13.1877C9.99248 13.3216 10.0818 13.4109 10.2157 13.4109L13.1621 13.4109C13.296 13.4109 13.3853 13.3216 13.3853 13.1877L13.3853 9.97338C13.3853 9.83946 13.296 9.75017 13.1621 9.75017L10.2157 9.75017ZM22.6264 10.3305L18.1621 10.3305C17.805 10.3305 17.4925 10.018 17.4925 9.66088C17.4925 9.30375 17.805 8.99125 18.1621 8.99125L22.6264 8.99125C22.9836 8.99125 23.2961 9.30375 23.2961 9.66088C23.2961 10.018 22.9836 10.3305 22.6264 10.3305ZM22.6264 14.1698L18.1621 14.1698C17.805 14.1698 17.4925 13.8573 17.4925 13.5002C17.4925 13.143 17.805 12.8305 18.1621 12.8305L22.6264 12.8305C22.9836 12.8305 23.2961 13.143 23.2961 13.5002C23.2961 13.8573 22.9836 14.1698 22.6264 14.1698ZM22.6264 19.5716L9.32285 19.5716C8.9657 19.5716 8.6532 19.2591 8.6532 18.902C8.6532 18.5448 8.9657 18.2323 9.32285 18.2323L22.5818 18.2323C22.9389 18.2323 23.2514 18.5448 23.2514 18.902C23.2514 19.2591 22.9836 19.5716 22.6264 19.5716ZM22.6264 23.5895L9.32285 23.5895C8.9657 23.5895 8.6532 23.277 8.6532 22.9199C8.6532 22.5627 8.9657 22.2502 9.32285 22.2502L22.5818 22.2502C22.9389 22.2502 23.2514 22.5627 23.2514 22.9199C23.2514 23.277 22.9836 23.5895 22.6264 23.5895Z"   fill="#000000" >
</path>
</svg>
