<svg xmlns="http://www.w3.org/2000/svg" xmlns:xlink="http://www.w3.org/1999/xlink" width="32" height="32" viewBox="0 0 32 32" fill="none">
<path d="M10.1507 20.5027L10.0187 5.604L3.67334 11.52L3.67334 26.5133L10.1507 20.5027Z"   fill="#0082E6" fill-opacity="0.3">
</path>
<path d="M28.7334 3.23999C28.7487 3.23999 28.7639 3.24037 28.7792 3.24112C28.7944 3.24187 28.8096 3.24299 28.8249 3.24449C28.8401 3.24599 28.8552 3.24785 28.8703 3.25008C28.8854 3.25233 28.9005 3.25495 28.9155 3.25793C28.9304 3.26091 28.9453 3.26425 28.9602 3.26796C28.975 3.27167 28.9897 3.27574 29.0043 3.28018C29.0189 3.28462 29.0334 3.28941 29.0478 3.29455C29.0622 3.2997 29.0765 3.30519 29.0906 3.31102C29.1046 3.31688 29.1186 3.32307 29.1324 3.32962C29.1462 3.33614 29.1599 3.343 29.1734 3.35021C29.1868 3.3574 29.2001 3.36492 29.2132 3.37277C29.2263 3.38063 29.2392 3.38879 29.2519 3.39727C29.2646 3.40577 29.2771 3.41457 29.2894 3.42368C29.3016 3.43276 29.3137 3.44215 29.3255 3.45183C29.3373 3.46154 29.3489 3.47152 29.3602 3.48177C29.3715 3.49202 29.3826 3.50255 29.3934 3.51337C29.4042 3.52416 29.4147 3.53521 29.4249 3.54652C29.4352 3.55786 29.4452 3.56942 29.4549 3.58121C29.4646 3.59302 29.474 3.60506 29.4831 3.61733C29.4921 3.62961 29.5009 3.64209 29.5094 3.6548C29.5179 3.66749 29.5261 3.68039 29.5339 3.69349C29.5418 3.70659 29.5493 3.71989 29.5565 3.73337C29.5637 3.74682 29.5706 3.76046 29.5771 3.77427C29.5836 3.78808 29.5898 3.80204 29.5957 3.81615C29.6015 3.83027 29.607 3.84452 29.6122 3.8589C29.6173 3.87327 29.6221 3.88777 29.6265 3.9024C29.631 3.917 29.635 3.93172 29.6387 3.94655C29.6425 3.96137 29.6458 3.97626 29.6488 3.99124C29.6517 4.00622 29.6544 4.02126 29.6566 4.03637C29.6589 4.05149 29.6607 4.06665 29.6622 4.08183C29.6637 4.09704 29.6648 4.11227 29.6656 4.12752C29.6663 4.14277 29.6667 4.15804 29.6667 4.17333L29.6667 20.6573C29.6667 20.6726 29.6663 20.6879 29.6656 20.7031C29.6648 20.7184 29.6637 20.7336 29.6622 20.7488C29.6607 20.764 29.6589 20.7792 29.6566 20.7943C29.6544 20.8094 29.6517 20.8244 29.6488 20.8394C29.6458 20.8544 29.6425 20.8693 29.6387 20.8841C29.635 20.8989 29.631 20.9136 29.6265 20.9282C29.6221 20.9429 29.6173 20.9574 29.6122 20.9717C29.607 20.9861 29.6015 21.0004 29.5957 21.0145C29.5898 21.0286 29.5836 21.0426 29.5771 21.0564C29.5706 21.0702 29.5637 21.0838 29.5565 21.0973C29.5493 21.1108 29.5418 21.1241 29.5339 21.1371C29.5261 21.1502 29.5179 21.1631 29.5094 21.1759C29.5009 21.1886 29.4921 21.201 29.4831 21.2133C29.474 21.2256 29.4646 21.2376 29.4549 21.2494C29.4452 21.2612 29.4352 21.2728 29.4249 21.2841C29.4147 21.2954 29.4042 21.3065 29.3934 21.3173C29.3826 21.3281 29.3715 21.3386 29.3602 21.3489C29.3489 21.3591 29.3373 21.3691 29.3255 21.3788C29.3137 21.3885 29.3016 21.3979 29.2894 21.407C29.2771 21.4161 29.2646 21.4249 29.2519 21.4334C29.2392 21.4418 29.2263 21.45 29.2132 21.4579C29.2001 21.4657 29.1868 21.4732 29.1734 21.4805C29.1599 21.4876 29.1462 21.4945 29.1324 21.5011C29.1186 21.5076 29.1046 21.5138 29.0906 21.5196C29.0765 21.5255 29.0622 21.5309 29.0478 21.5361C29.0334 21.5412 29.0189 21.546 29.0043 21.5505C28.9897 21.5549 28.975 21.559 28.9602 21.5627C28.9453 21.5664 28.9304 21.5697 28.9155 21.5727C28.9005 21.5757 28.8854 21.5783 28.8703 21.5806C28.8552 21.5828 28.8401 21.5847 28.8249 21.5862C28.8096 21.5876 28.7944 21.5888 28.7792 21.5895C28.7639 21.5903 28.7487 21.5906 28.7334 21.5906L28.5201 21.588L28.5307 20.3133L28.4827 20.3453C28.4741 20.3522 28.4658 20.3595 28.4578 20.3671C28.4498 20.3747 28.4421 20.3826 28.4348 20.3909C28.4274 20.3991 28.4205 20.4077 28.4138 20.4165C28.4071 20.4253 28.4009 20.4344 28.395 20.4437C28.3891 20.4531 28.3836 20.4626 28.3785 20.4725C28.3734 20.4822 28.3688 20.4922 28.3645 20.5024C28.3602 20.5126 28.3564 20.523 28.353 20.5335C28.3496 20.544 28.3466 20.5546 28.3441 20.5653L28.3334 20.6573L28.3334 4.57333L11.3414 4.57333L10.0081 4.57599L10.0081 4.17333C10.0081 4.15804 10.0084 4.14277 10.0092 4.12752C10.0099 4.11227 10.0111 4.09704 10.0126 4.08183C10.0141 4.06665 10.0159 4.05149 10.0182 4.03637C10.0204 4.02126 10.023 4.00622 10.026 3.99124C10.029 3.97626 10.0323 3.96137 10.036 3.94655C10.0397 3.93172 10.0438 3.917 10.0482 3.9024C10.0527 3.88777 10.0575 3.87327 10.0626 3.8589C10.0678 3.84452 10.0733 3.83027 10.0791 3.81615C10.0849 3.80204 10.0911 3.78808 10.0977 3.77427C10.1042 3.76046 10.1111 3.74682 10.1183 3.73337C10.1255 3.71989 10.133 3.70659 10.1408 3.69349C10.1487 3.68039 10.1569 3.66749 10.1653 3.6548C10.1738 3.64209 10.1826 3.62961 10.1917 3.61733C10.2008 3.60506 10.2102 3.59302 10.2199 3.58121C10.2296 3.56942 10.2396 3.55786 10.2498 3.54652C10.2601 3.53521 10.2706 3.52416 10.2814 3.51337C10.2922 3.50255 10.3033 3.49202 10.3146 3.48177C10.3259 3.47152 10.3375 3.46154 10.3493 3.45183C10.3611 3.44215 10.3731 3.43276 10.3854 3.42368C10.3977 3.41457 10.4102 3.40577 10.4229 3.39727C10.4356 3.38879 10.4485 3.38063 10.4616 3.37277C10.4747 3.36492 10.488 3.3574 10.5014 3.35021C10.5149 3.343 10.5285 3.33614 10.5423 3.32962C10.5562 3.32307 10.5701 3.31688 10.5842 3.31102C10.5983 3.30519 10.6126 3.2997 10.627 3.29455C10.6413 3.28941 10.6558 3.28462 10.6705 3.28018C10.6851 3.27574 10.6998 3.27167 10.7146 3.26796C10.7294 3.26425 10.7443 3.26091 10.7593 3.25793C10.7743 3.25495 10.7893 3.25233 10.8044 3.25008C10.8196 3.24785 10.8347 3.24599 10.8499 3.24449C10.8651 3.24299 10.8803 3.24187 10.8956 3.24112C10.9109 3.24037 10.9261 3.23999 10.9414 3.23999L28.7334 3.23999Z"   fill="#000000" >
</path>
<path d="M21.0574 10.4133C21.0727 10.4133 21.0879 10.4137 21.1032 10.4145C21.1184 10.4152 21.1337 10.4163 21.1488 10.4178C21.1641 10.4193 21.1792 10.4212 21.1943 10.4234C21.2094 10.4257 21.2245 10.4283 21.2394 10.4312C21.2544 10.4342 21.2693 10.4376 21.2842 10.4413C21.299 10.445 21.3137 10.4491 21.3283 10.4535C21.3429 10.4579 21.3574 10.4627 21.3718 10.4679C21.3862 10.473 21.4004 10.4785 21.4145 10.4844C21.4287 10.4902 21.4426 10.4964 21.4564 10.5029C21.4702 10.5095 21.4839 10.5163 21.4973 10.5235C21.5108 10.5307 21.5241 10.5383 21.5372 10.5461C21.5503 10.554 21.5632 10.5621 21.5759 10.5706C21.5886 10.5791 21.6011 10.5879 21.6133 10.597C21.6256 10.6061 21.6377 10.6155 21.6495 10.6252C21.6613 10.6349 21.6728 10.6448 21.6842 10.6551C21.6955 10.6654 21.7065 10.6759 21.7173 10.6867C21.7281 10.6975 21.7387 10.7086 21.7489 10.7199C21.7592 10.7312 21.7692 10.7427 21.7788 10.7545C21.7885 10.7664 21.7979 10.7784 21.807 10.7907C21.8161 10.8029 21.8249 10.8154 21.8334 10.8281C21.8419 10.8408 21.8501 10.8537 21.8579 10.8668C21.8658 10.8799 21.8733 10.8932 21.8805 10.9067C21.8877 10.9202 21.8946 10.9338 21.9011 10.9476C21.9076 10.9614 21.9138 10.9754 21.9197 10.9895C21.9255 11.0036 21.931 11.0178 21.9361 11.0322C21.9413 11.0466 21.9461 11.0611 21.9505 11.0757C21.9549 11.0903 21.959 11.1051 21.9627 11.1199C21.9664 11.1347 21.9698 11.1496 21.9727 11.1646C21.9757 11.1796 21.9783 11.1946 21.9806 11.2097C21.9828 11.2248 21.9847 11.24 21.9862 11.2552C21.9877 11.2704 21.9888 11.2856 21.9896 11.3009C21.9903 11.3161 21.9907 11.3314 21.9907 11.3466L21.9907 27.832C21.9907 27.8473 21.9903 27.8625 21.9896 27.8778C21.9888 27.893 21.9877 27.9083 21.9862 27.9235C21.9847 27.9387 21.9828 27.9538 21.9806 27.9689C21.9783 27.9841 21.9757 27.9991 21.9727 28.0141C21.9698 28.0291 21.9664 28.044 21.9627 28.0588C21.959 28.0736 21.9549 28.0883 21.9505 28.1029C21.9461 28.1175 21.9413 28.132 21.9361 28.1464C21.931 28.1608 21.9255 28.1751 21.9197 28.1891C21.9138 28.2033 21.9076 28.2172 21.9011 28.2311C21.8946 28.2448 21.8877 28.2585 21.8805 28.272C21.8733 28.2854 21.8658 28.2987 21.8579 28.3118C21.8501 28.3249 21.8419 28.3378 21.8334 28.3505C21.8249 28.3632 21.8161 28.3757 21.807 28.388C21.7979 28.4002 21.7885 28.4123 21.7788 28.4241C21.7692 28.4359 21.7592 28.4475 21.7489 28.4588C21.7387 28.4701 21.7281 28.4811 21.7173 28.492C21.7065 28.5027 21.6955 28.5133 21.6842 28.5236C21.6728 28.5338 21.6613 28.5438 21.6495 28.5535C21.6377 28.5631 21.6256 28.5725 21.6133 28.5816C21.6011 28.5907 21.5886 28.5996 21.5759 28.608C21.5632 28.6165 21.5503 28.6247 21.5372 28.6325C21.5241 28.6404 21.5108 28.6479 21.4973 28.6551C21.4839 28.6623 21.4702 28.6692 21.4564 28.6757C21.4426 28.6822 21.4287 28.6884 21.4145 28.6943C21.4004 28.7001 21.3862 28.7056 21.3718 28.7108C21.3574 28.7159 21.3429 28.7207 21.3283 28.7251C21.3137 28.7295 21.299 28.7336 21.2842 28.7374C21.2693 28.7411 21.2544 28.7444 21.2394 28.7474C21.2245 28.7504 21.2094 28.753 21.1943 28.7552C21.1792 28.7575 21.1641 28.7593 21.1488 28.7608C21.1337 28.7623 21.1184 28.7635 21.1032 28.7642C21.0879 28.765 21.0727 28.7653 21.0574 28.7653L3.2667 28.7653C3.25142 28.7653 3.23616 28.765 3.22091 28.7642C3.20566 28.7635 3.19044 28.7623 3.17523 28.7608C3.16002 28.7593 3.14486 28.7575 3.12976 28.7552C3.11465 28.753 3.0996 28.7504 3.08462 28.7474C3.06964 28.7444 3.05474 28.7411 3.03992 28.7373C3.02511 28.7336 3.01039 28.7295 2.99577 28.7251C2.98116 28.7207 2.96666 28.7159 2.95228 28.7108C2.93789 28.7056 2.92365 28.7001 2.90954 28.6943C2.89542 28.6884 2.88146 28.6822 2.86766 28.6757C2.85385 28.6692 2.84021 28.6623 2.82674 28.6551C2.81326 28.6479 2.79998 28.6404 2.78688 28.6325C2.77377 28.6247 2.76087 28.6165 2.74817 28.608C2.73547 28.5996 2.72299 28.5907 2.71072 28.5816C2.69845 28.5725 2.68641 28.5631 2.67461 28.5535C2.6628 28.5438 2.65124 28.5338 2.63992 28.5236C2.6286 28.5133 2.61754 28.5027 2.60674 28.492C2.59594 28.4811 2.58541 28.4701 2.57515 28.4588C2.56489 28.4475 2.55492 28.4359 2.54523 28.4241C2.53554 28.4123 2.52615 28.4002 2.51705 28.388C2.50795 28.3757 2.49915 28.3632 2.49067 28.3505C2.48218 28.3378 2.47401 28.3249 2.46616 28.3118C2.45831 28.2987 2.45078 28.2854 2.44358 28.272C2.43638 28.2585 2.42951 28.2448 2.42298 28.231C2.41645 28.2172 2.41026 28.2033 2.40442 28.1891C2.39857 28.1751 2.39308 28.1608 2.38793 28.1464C2.38278 28.132 2.37799 28.1175 2.37356 28.1029C2.36913 28.0883 2.36505 28.0736 2.36134 28.0588C2.35763 28.044 2.35429 28.0291 2.35131 28.0141C2.34833 27.9991 2.34572 27.9841 2.34347 27.9689C2.34123 27.9538 2.33936 27.9387 2.33787 27.9235C2.33637 27.9083 2.33525 27.893 2.3345 27.8778C2.33375 27.8625 2.33337 27.8473 2.33337 27.832L2.33337 11.3453C2.33337 11.33 2.33375 11.3148 2.3345 11.2995C2.33525 11.2843 2.33637 11.269 2.33787 11.2538C2.33936 11.2386 2.34123 11.2235 2.34347 11.2084C2.34572 11.1933 2.34833 11.1782 2.35131 11.1632C2.35429 11.1483 2.35763 11.1334 2.36134 11.1185C2.36505 11.1037 2.36913 11.089 2.37356 11.0744C2.37799 11.0598 2.38278 11.0453 2.38793 11.0309C2.39308 11.0165 2.39857 11.0023 2.40442 10.9881C2.41026 10.974 2.41645 10.9601 2.42298 10.9463C2.42951 10.9325 2.43638 10.9188 2.44358 10.9054C2.45078 10.8919 2.45831 10.8786 2.46616 10.8655C2.47401 10.8524 2.48218 10.8395 2.49067 10.8268C2.49915 10.8141 2.50795 10.8016 2.51705 10.7893C2.52615 10.7771 2.53554 10.765 2.54523 10.7532C2.55492 10.7414 2.56489 10.7299 2.57515 10.7185C2.58541 10.7072 2.59594 10.6962 2.60674 10.6854C2.61754 10.6746 2.6286 10.664 2.63992 10.6538C2.65124 10.6435 2.6628 10.6335 2.67461 10.6238C2.68641 10.6141 2.69845 10.6048 2.71072 10.5957C2.72299 10.5866 2.73547 10.5778 2.74817 10.5693C2.76087 10.5608 2.77377 10.5526 2.78688 10.5448C2.79998 10.5369 2.81326 10.5294 2.82674 10.5222C2.84021 10.515 2.85385 10.5081 2.86766 10.5016C2.88146 10.4951 2.89542 10.4889 2.90954 10.483C2.92365 10.4772 2.93789 10.4717 2.95228 10.4665C2.96666 10.4614 2.98116 10.4566 2.99577 10.4522C3.01039 10.4477 3.02511 10.4437 3.03992 10.44C3.05474 10.4362 3.06964 10.4329 3.08462 10.4299C3.0996 10.4269 3.11465 10.4243 3.12976 10.4221C3.14486 10.4199 3.16002 10.418 3.17523 10.4165C3.19044 10.415 3.20566 10.4139 3.22091 10.4131C3.23616 10.4124 3.25142 10.412 3.2667 10.412L21.0574 10.412L21.0574 10.4133ZM20.656 11.7466L3.6667 11.7466L3.6667 27.4306L20.656 27.4306L20.656 11.7466Z"   fill="#000000" >
</path>
<path d="M28.5439 20.28L29.4559 21.2534L21.7786 28.4334L20.8679 27.46L28.5439 20.28ZM28.5453 3.42004L29.4546 4.39339L21.7786 11.5667L20.8679 10.5934L28.5453 3.42004ZM10.3613 3.45339L11.2719 4.4267L3.55728 11.636L2.64661 10.6627L10.3613 3.45339Z"   fill="#000000" >
</path>
<path d="M14.0573 20.0999L14.0573 21.4333L11.3906 21.4333L11.3906 20.0999L14.0573 20.0999ZM18.3239 20.0999L18.3239 21.4333L15.6573 21.4333L15.6573 20.0999L18.3239 20.0999ZM22.5906 20.0999L22.5906 21.4333L19.9239 21.4333L19.9239 20.0999L22.5906 20.0999ZM26.8573 20.0999L26.8573 21.4333L24.1906 21.4333L24.1906 20.0999L26.8573 20.0999ZM28.7199 20.0999L28.7199 21.4333L28.4573 21.4333L28.4573 20.0999L28.7199 20.0999ZM11.4519 17.0693L11.4746 19.7359L10.1413 19.7466L10.1186 17.0799L11.4519 17.0693ZM11.4159 12.8026L11.4386 15.4693L10.1053 15.4799L10.0826 12.8133L11.4159 12.8026ZM11.3786 8.53594L11.4013 11.2026L10.0679 11.2133L10.0466 8.5466L11.3799 8.53594L11.3786 8.53594ZM11.3426 4.26929L11.3653 6.93594L10.0319 6.9466L10.0093 4.27994L11.3426 4.26929ZM4.59995 25.6413L5.50795 26.6173L3.55595 28.4346L2.64795 27.4586L4.59995 25.6399L4.59995 25.6413ZM7.72261 22.7346L8.63195 23.7106L6.67995 25.5279L5.77061 24.5519L7.72261 22.7346ZM10.3626 20.2786L11.2706 21.2559L9.80395 22.6213L8.89461 21.6453L10.3613 20.2786L10.3626 20.2786Z"   fill="#000000" >
</path>
</svg>
