<svg xmlns="http://www.w3.org/2000/svg" xmlns:xlink="http://www.w3.org/1999/xlink" width="32" height="32" viewBox="0 0 32 32" fill="none">
<path d="M9.06662 17.8666C8.66662 17.8666 8.39995 17.6 8.39995 17.2L8.39995 5.46665C8.39995 3.86665 9.7333 2.53333 11.3333 2.53333C12.9333 2.53333 14.2666 3.86665 14.2666 5.46665L14.4 14C14.4 14.4 14.1333 14.6666 13.7333 14.6666C13.3333 14.6666 13.0666 14.4 13.0666 14L12.9333 5.46665C12.9333 4.53333 12.2666 3.86665 11.3333 3.86665C10.4 3.86665 9.7333 4.66665 9.7333 5.59999L9.7333 17.3333C9.7333 17.6 9.46662 17.8666 9.06662 17.8666ZM13.6 14.1333C13.2 14.1333 12.9333 13.8666 12.9333 13.4666L12.9333 10.6666C12.9333 9.19998 14.1333 7.99998 15.6 7.99998C17.0666 7.99998 18.2666 9.19998 18.2666 10.6666L18.2666 13.0666C18.2666 13.4666 18 13.7333 17.6 13.7333C17.2 13.7333 16.9333 13.4666 16.9333 13.0666L16.9333 10.6666C16.9333 9.99998 16.4 9.33332 15.6 9.33332C14.8 9.33332 14.2666 9.86664 14.2666 10.6666L14.2666 13.4666C14.2666 13.7333 14 14.1333 13.6 14.1333ZM21.4666 14.2666C21.0666 14.2666 20.8 14 20.8 13.6L20.8 11.4666C20.8 10.8 20.2666 10.1333 19.4666 10.1333C18.8 10.1333 18.1333 10.6666 18.1333 11.4666L18.1333 13.0666C18.1333 13.4666 17.8666 13.7333 17.4666 13.7333C17.0666 13.7333 16.8 13.4666 16.8 13.0666L16.8 11.4666C16.8 9.99998 18 8.79998 19.4666 8.79998C20.9333 8.79998 22.1333 9.99998 22.1333 11.4666L22.1333 13.6C22.1333 14 21.8666 14.2666 21.4666 14.2666ZM15.7333 29.4666L14.9333 29.4666C13.2 29.4666 11.7333 29.0666 10.2666 27.8666C8.79996 26.5333 7.46661 24.2666 5.86661 20.6666C3.99995 15.3333 8.39995 11.7333 8.66662 11.6C8.9333 11.3333 9.3333 11.3333 9.59996 11.6C9.86662 11.8666 9.7333 12.2666 9.46662 12.5333C9.3333 12.6666 5.59995 15.8666 6.9333 20C8.39995 23.4666 9.7333 25.6 11.0666 26.6666C12.2666 27.7333 13.3333 27.8666 14.9333 28C17.0666 28.1333 18.4 27.8666 19.6 27.2C20.8 26.5333 21.7333 25.4666 22.9333 23.8666C26.4 19.4666 25.2 14.5333 25.2 14.4L24.9333 12.5333C24.9333 11.7333 24.2666 11.0666 23.4666 11.0666C22.6666 11.0666 22.2666 11.7333 22.2666 12.4L22.2666 13.3333C22.2666 13.7333 22 14 21.6 14C21.2 14 20.9333 13.7333 20.9333 13.3333L20.9333 12.8C20.9333 11.2 22 10.1333 23.4666 10.1333C24.9333 10.1333 26.1333 11.3333 26.2666 12.8L26.5333 14.5333C26.5333 14.6666 27.7333 20 24 25.0666C22.6666 26.8 21.6 28 20.2666 28.6666C18.9333 29.0666 17.6 29.4666 15.7333 29.4666Z"   fill="#000000" >
</path>
</svg>
