<svg xmlns="http://www.w3.org/2000/svg" xmlns:xlink="http://www.w3.org/1999/xlink" width="32" height="32" viewBox="0 0 32 32" fill="none">
<path d="M20.912 27.4319L27.2987 21.4533L11.116 21.424L4.6427 27.4319L20.912 27.4319Z"   fill="#0082E6" fill-opacity="0.3">
</path>
<path d="M21.0534 10.412C21.0687 10.412 21.0881 10.412 21.1034 10.412C21.1186 10.412 21.1382 10.422 21.1534 10.422C21.1686 10.422 21.1783 10.422 21.1934 10.422C21.2085 10.422 21.2284 10.432 21.2434 10.432C21.2584 10.432 21.2686 10.442 21.2834 10.442C21.2982 10.442 21.3088 10.452 21.3234 10.452C21.338 10.452 21.359 10.472 21.3734 10.472C21.3878 10.472 21.3993 10.482 21.4134 10.482C21.4275 10.482 21.4396 10.502 21.4534 10.502C21.4672 10.502 21.4799 10.522 21.4934 10.522C21.5068 10.522 21.5203 10.542 21.5334 10.542C21.5465 10.542 21.5607 10.572 21.5734 10.572C21.5861 10.572 21.6011 10.602 21.6134 10.602C21.6257 10.602 21.6416 10.622 21.6534 10.622C21.6652 10.622 21.6721 10.6417 21.6834 10.652C21.6947 10.6622 21.7026 10.6712 21.7134 10.682C21.7242 10.6928 21.7431 10.7107 21.7534 10.722C21.7637 10.7333 21.7834 10.7402 21.7834 10.752C21.7834 10.7638 21.8034 10.7797 21.8034 10.792C21.8034 10.8043 21.8334 10.8193 21.8334 10.832C21.8334 10.8447 21.8534 10.8489 21.8534 10.862C21.8534 10.8751 21.8834 10.8885 21.8834 10.902C21.8834 10.9155 21.9034 10.9382 21.9034 10.952C21.9034 10.9658 21.9234 10.9779 21.9234 10.992C21.9234 11.0061 21.9334 11.0176 21.9334 11.032C21.9334 11.0464 21.9534 11.0574 21.9534 11.072C21.9534 11.0866 21.9634 11.1072 21.9634 11.122C21.9634 11.1368 21.9734 11.147 21.9734 11.162C21.9734 11.177 21.9834 11.1969 21.9834 11.212C21.9834 11.2271 21.9834 11.2368 21.9834 11.252C21.9834 11.2672 21.9934 11.2867 21.9934 11.302C21.9934 11.3172 21.9934 11.3267 21.9934 11.342L21.9934 27.832C21.9934 27.8473 21.9934 27.8667 21.9934 27.882C21.9934 27.8973 21.9834 27.9068 21.9834 27.922C21.9834 27.9372 21.9834 27.9569 21.9834 27.972C21.9834 27.9871 21.9734 27.997 21.9734 28.012C21.9734 28.027 21.9634 28.0472 21.9634 28.062C21.9634 28.0768 21.9534 28.0874 21.9534 28.102C21.9534 28.1166 21.9334 28.1276 21.9334 28.142C21.9334 28.1564 21.9234 28.1779 21.9234 28.192C21.9234 28.2061 21.9034 28.2182 21.9034 28.232C21.9034 28.2458 21.8834 28.2585 21.8834 28.272C21.8834 28.2855 21.8534 28.2989 21.8534 28.312C21.8534 28.3251 21.8334 28.3393 21.8334 28.352C21.8334 28.3647 21.8034 28.3797 21.8034 28.392C21.8034 28.4043 21.7834 28.4102 21.7834 28.422C21.7834 28.4338 21.7637 28.4507 21.7534 28.462C21.7431 28.4733 21.7242 28.4812 21.7134 28.492C21.7026 28.5028 21.6947 28.5117 21.6834 28.522C21.6721 28.5322 21.6652 28.552 21.6534 28.552C21.6416 28.552 21.6257 28.582 21.6134 28.582C21.6011 28.582 21.5861 28.612 21.5734 28.612C21.5607 28.612 21.5465 28.632 21.5334 28.632C21.5203 28.632 21.5068 28.652 21.4934 28.652C21.4799 28.652 21.4672 28.672 21.4534 28.672C21.4396 28.672 21.4275 28.692 21.4134 28.692C21.3993 28.692 21.3878 28.712 21.3734 28.712C21.359 28.712 21.338 28.722 21.3234 28.722C21.3087 28.722 21.2982 28.742 21.2834 28.742C21.2686 28.742 21.2584 28.752 21.2434 28.752C21.2284 28.752 21.2085 28.752 21.1934 28.752C21.1783 28.752 21.1686 28.762 21.1534 28.762C21.1382 28.762 21.1186 28.762 21.1034 28.762C21.0881 28.762 21.0687 28.762 21.0534 28.762L3.26337 28.762C3.2481 28.762 3.23862 28.762 3.22337 28.762C3.20812 28.762 3.18858 28.762 3.17337 28.762C3.15816 28.762 3.14848 28.752 3.13337 28.752C3.11826 28.752 3.09836 28.752 3.08337 28.752C3.06839 28.752 3.05819 28.742 3.04337 28.742C3.02856 28.742 3.00799 28.722 2.99337 28.722C2.97876 28.722 2.96776 28.712 2.95337 28.712C2.93899 28.712 2.92748 28.692 2.91337 28.692C2.89926 28.692 2.87718 28.672 2.86337 28.672C2.84956 28.672 2.83685 28.652 2.82337 28.652C2.8099 28.652 2.79648 28.632 2.78337 28.632C2.77027 28.632 2.75607 28.612 2.74337 28.612C2.73067 28.612 2.72564 28.582 2.71337 28.582C2.70111 28.582 2.68518 28.552 2.67337 28.552C2.66157 28.552 2.65469 28.5322 2.64337 28.522C2.63206 28.5117 2.61417 28.5028 2.60337 28.492C2.59257 28.4812 2.58363 28.4733 2.57337 28.462C2.56312 28.4507 2.54337 28.4338 2.54337 28.422C2.54337 28.4102 2.51337 28.4043 2.51337 28.392C2.51337 28.3797 2.49337 28.3647 2.49337 28.352C2.49337 28.3393 2.46337 28.3251 2.46337 28.312C2.46337 28.2989 2.44337 28.2855 2.44337 28.272C2.44337 28.2585 2.42337 28.2458 2.42337 28.232C2.42337 28.2182 2.40337 28.2061 2.40337 28.192C2.40337 28.1779 2.38337 28.1564 2.38337 28.142C2.38337 28.1276 2.37337 28.1166 2.37337 28.102C2.37337 28.0874 2.36337 28.0768 2.36337 28.062C2.36337 28.0472 2.35337 28.027 2.35337 28.012C2.35337 27.997 2.34337 27.9871 2.34337 27.972C2.34337 27.9569 2.33337 27.9372 2.33337 27.922C2.33337 27.9068 2.33337 27.8973 2.33337 27.882C2.33337 27.8667 2.33337 27.8473 2.33337 27.832L2.33337 11.342C2.33337 11.3267 2.33337 11.3172 2.33337 11.302C2.33337 11.2867 2.33337 11.2672 2.33337 11.252C2.33337 11.2368 2.34337 11.2271 2.34337 11.212C2.34337 11.1969 2.35337 11.177 2.35337 11.162C2.35337 11.147 2.36337 11.1368 2.36337 11.122C2.36337 11.1072 2.37337 11.0866 2.37337 11.072C2.37337 11.0574 2.38337 11.0464 2.38337 11.032C2.38337 11.0176 2.40337 11.0061 2.40337 10.992C2.40337 10.9779 2.42337 10.9558 2.42337 10.942C2.42337 10.9282 2.44337 10.9154 2.44337 10.902C2.44337 10.8885 2.46337 10.8751 2.46337 10.862C2.46337 10.8489 2.49337 10.8347 2.49337 10.822C2.49337 10.8093 2.51337 10.8043 2.51337 10.792C2.51337 10.7797 2.54337 10.7638 2.54337 10.752C2.54337 10.7402 2.56312 10.7333 2.57337 10.722C2.58363 10.7107 2.59257 10.6928 2.60337 10.682C2.61417 10.6712 2.63206 10.6622 2.64337 10.652C2.65469 10.6417 2.66157 10.622 2.67337 10.622C2.68518 10.622 2.70111 10.592 2.71337 10.592C2.72564 10.592 2.73067 10.572 2.74337 10.572C2.75607 10.572 2.77027 10.542 2.78337 10.542C2.79648 10.542 2.8099 10.522 2.82337 10.522C2.83685 10.522 2.84956 10.502 2.86337 10.502C2.87718 10.502 2.89926 10.482 2.91337 10.482C2.92748 10.482 2.93899 10.462 2.95337 10.462C2.96776 10.462 2.97876 10.452 2.99337 10.452C3.00799 10.452 3.02856 10.442 3.04337 10.442C3.05819 10.442 3.06839 10.432 3.08337 10.432C3.09836 10.432 3.11826 10.422 3.13337 10.422C3.14848 10.422 3.15816 10.412 3.17337 10.412C3.18858 10.412 3.20812 10.412 3.22337 10.412C3.23862 10.412 3.2481 10.412 3.26337 10.412L21.0534 10.412ZM20.6534 11.742L3.66337 11.742L3.66337 27.432L20.6534 27.432L20.6534 11.742Z"   fill="#000000" >
</path>
<path d="M28.544 20.28L29.456 21.2534L21.7787 28.4334L20.868 27.46L28.544 20.28Z"   fill="#000000" >
</path>
<path d="M28.7334 3.23999C28.7487 3.23999 28.7639 3.24037 28.7792 3.24112C28.7944 3.24187 28.8096 3.24299 28.8249 3.24449C28.8401 3.24599 28.8552 3.24785 28.8703 3.25008C28.8854 3.25233 28.9005 3.25495 28.9155 3.25793C28.9304 3.26091 28.9453 3.26425 28.9602 3.26796C28.975 3.27167 28.9897 3.27574 29.0043 3.28018C29.0189 3.28462 29.0334 3.28941 29.0478 3.29455C29.0622 3.2997 29.0765 3.30519 29.0906 3.31102C29.1046 3.31688 29.1186 3.32307 29.1324 3.32962C29.1462 3.33614 29.1599 3.343 29.1734 3.35021C29.1868 3.3574 29.2001 3.36492 29.2132 3.37277C29.2263 3.38063 29.2392 3.38879 29.2519 3.39727C29.2646 3.40577 29.2771 3.41457 29.2894 3.42368C29.3016 3.43276 29.3137 3.44215 29.3255 3.45183C29.3373 3.46154 29.3489 3.47152 29.3602 3.48177C29.3715 3.49202 29.3826 3.50255 29.3934 3.51337C29.4042 3.52416 29.4147 3.53521 29.4249 3.54652C29.4352 3.55786 29.4452 3.56942 29.4549 3.58121C29.4646 3.59302 29.474 3.60506 29.4831 3.61733C29.4921 3.62961 29.5009 3.64209 29.5094 3.6548C29.5179 3.66749 29.5261 3.68039 29.5339 3.69349C29.5418 3.70659 29.5493 3.71989 29.5565 3.73337C29.5637 3.74682 29.5706 3.76046 29.5771 3.77427C29.5836 3.78808 29.5898 3.80204 29.5957 3.81615C29.6015 3.83027 29.607 3.84452 29.6122 3.8589C29.6173 3.87327 29.6221 3.88777 29.6265 3.9024C29.631 3.917 29.635 3.93172 29.6387 3.94655C29.6425 3.96137 29.6458 3.97626 29.6488 3.99124C29.6517 4.00622 29.6544 4.02126 29.6566 4.03637C29.6589 4.05149 29.6607 4.06665 29.6622 4.08183C29.6637 4.09704 29.6648 4.11227 29.6656 4.12752C29.6663 4.14277 29.6667 4.15804 29.6667 4.17333L29.6667 20.6573C29.6667 20.6726 29.6663 20.6879 29.6656 20.7031C29.6648 20.7184 29.6637 20.7336 29.6622 20.7488C29.6607 20.764 29.6589 20.7792 29.6566 20.7943C29.6544 20.8094 29.6517 20.8244 29.6488 20.8394C29.6458 20.8544 29.6425 20.8693 29.6387 20.8841C29.635 20.8989 29.631 20.9136 29.6265 20.9282C29.6221 20.9429 29.6173 20.9574 29.6122 20.9717C29.607 20.9861 29.6015 21.0004 29.5957 21.0145C29.5898 21.0286 29.5836 21.0426 29.5771 21.0564C29.5706 21.0702 29.5637 21.0838 29.5565 21.0973C29.5493 21.1108 29.5418 21.1241 29.5339 21.1371C29.5261 21.1502 29.5179 21.1631 29.5094 21.1759C29.5009 21.1886 29.4921 21.201 29.4831 21.2133C29.474 21.2256 29.4646 21.2376 29.4549 21.2494C29.4452 21.2612 29.4352 21.2728 29.4249 21.2841C29.4147 21.2954 29.4042 21.3065 29.3934 21.3173C29.3826 21.3281 29.3715 21.3386 29.3602 21.3489C29.3489 21.3591 29.3373 21.3691 29.3255 21.3788C29.3137 21.3885 29.3016 21.3979 29.2894 21.407C29.2771 21.4161 29.2646 21.4249 29.2519 21.4334C29.2392 21.4418 29.2263 21.45 29.2132 21.4579C29.2001 21.4657 29.1868 21.4732 29.1734 21.4805C29.1599 21.4876 29.1462 21.4945 29.1324 21.5011C29.1186 21.5076 29.1046 21.5138 29.0906 21.5196C29.0765 21.5255 29.0622 21.5309 29.0478 21.5361C29.0334 21.5412 29.0189 21.546 29.0043 21.5505C28.9897 21.5549 28.975 21.559 28.9602 21.5627C28.9453 21.5664 28.9304 21.5697 28.9155 21.5727C28.9005 21.5757 28.8854 21.5783 28.8703 21.5806C28.8552 21.5828 28.8401 21.5847 28.8249 21.5862C28.8096 21.5876 28.7944 21.5888 28.7792 21.5895C28.7639 21.5903 28.7487 21.5906 28.7334 21.5906L28.5201 21.588L28.5307 20.3133L28.4827 20.3453C28.4741 20.3522 28.4658 20.3595 28.4578 20.3671C28.4498 20.3747 28.4421 20.3826 28.4348 20.3909C28.4274 20.3991 28.4205 20.4077 28.4138 20.4165C28.4071 20.4253 28.4009 20.4344 28.395 20.4437C28.3891 20.4531 28.3836 20.4626 28.3785 20.4725C28.3734 20.4822 28.3688 20.4922 28.3645 20.5024C28.3602 20.5126 28.3564 20.523 28.353 20.5335C28.3496 20.544 28.3466 20.5546 28.3441 20.5653L28.3334 20.6573L28.3334 4.57333L11.3414 4.57333L10.0081 4.57599L10.0081 4.17333C10.0081 4.15804 10.0084 4.14277 10.0092 4.12752C10.0099 4.11227 10.0111 4.09704 10.0126 4.08183C10.0141 4.06665 10.0159 4.05149 10.0182 4.03637C10.0204 4.02126 10.023 4.00622 10.026 3.99124C10.029 3.97626 10.0323 3.96137 10.036 3.94655C10.0397 3.93172 10.0438 3.917 10.0482 3.9024C10.0527 3.88777 10.0575 3.87327 10.0626 3.8589C10.0678 3.84452 10.0733 3.83027 10.0791 3.81615C10.0849 3.80204 10.0911 3.78808 10.0977 3.77427C10.1042 3.76046 10.1111 3.74682 10.1183 3.73337C10.1255 3.71989 10.133 3.70659 10.1408 3.69349C10.1487 3.68039 10.1569 3.66749 10.1653 3.6548C10.1738 3.64209 10.1826 3.62961 10.1917 3.61733C10.2008 3.60506 10.2102 3.59302 10.2199 3.58121C10.2296 3.56942 10.2396 3.55786 10.2498 3.54652C10.2601 3.53521 10.2706 3.52416 10.2814 3.51337C10.2922 3.50255 10.3033 3.49202 10.3146 3.48177C10.3259 3.47152 10.3375 3.46154 10.3493 3.45183C10.3611 3.44215 10.3731 3.43276 10.3854 3.42368C10.3977 3.41457 10.4102 3.40577 10.4229 3.39727C10.4356 3.38879 10.4485 3.38063 10.4616 3.37277C10.4747 3.36492 10.488 3.3574 10.5014 3.35021C10.5149 3.343 10.5285 3.33614 10.5423 3.32962C10.5562 3.32307 10.5701 3.31688 10.5842 3.31102C10.5983 3.30519 10.6126 3.2997 10.627 3.29455C10.6413 3.28941 10.6558 3.28462 10.6705 3.28018C10.6851 3.27574 10.6998 3.27167 10.7146 3.26796C10.7294 3.26425 10.7443 3.26091 10.7593 3.25793C10.7743 3.25495 10.7893 3.25233 10.8044 3.25008C10.8196 3.24785 10.8347 3.24599 10.8499 3.24449C10.8651 3.24299 10.8803 3.24187 10.8956 3.24112C10.9109 3.24037 10.9261 3.23999 10.9414 3.23999L28.7334 3.23999Z"   fill="#000000" >
</path>
<path d="M28.5453 3.42004L29.4546 4.39339L21.7786 11.5667L20.868 10.5934L28.5453 3.42004ZM10.3613 3.45339L11.2719 4.4267L3.55728 11.636L2.64661 10.6627L10.3613 3.45339Z"   fill="#000000" >
</path>
<path d="M14.0573 20.0999L14.0573 21.4333L11.3906 21.4333L11.3906 20.0999L14.0573 20.0999ZM18.3239 20.0999L18.3239 21.4333L15.6573 21.4333L15.6573 20.0999L18.3239 20.0999ZM22.5906 20.0999L22.5906 21.4333L19.9239 21.4333L19.9239 20.0999L22.5906 20.0999ZM26.8573 20.0999L26.8573 21.4333L24.1906 21.4333L24.1906 20.0999L26.8573 20.0999ZM28.7199 20.0999L28.7199 21.4333L28.4573 21.4333L28.4573 20.0999L28.7199 20.0999ZM11.4519 17.0693L11.4746 19.7359L10.1413 19.7466L10.1186 17.0799L11.4519 17.0693ZM11.4159 12.8026L11.4386 15.4693L10.1053 15.4799L10.0826 12.8133L11.4159 12.8026ZM11.3786 8.53594L11.4013 11.2026L10.0679 11.2133L10.0466 8.5466L11.3799 8.53594L11.3786 8.53594ZM11.3426 4.26929L11.3653 6.93594L10.0319 6.9466L10.0093 4.27994L11.3426 4.26929ZM4.59995 25.6413L5.50795 26.6173L3.55595 28.4346L2.64795 27.4586L4.59995 25.6399L4.59995 25.6413ZM7.72261 22.7346L8.63195 23.7106L6.67995 25.5279L5.77061 24.5519L7.72261 22.7346ZM10.3626 20.2786L11.2706 21.2559L9.80395 22.6213L8.89461 21.6453L10.3613 20.2786L10.3626 20.2786Z"   fill="#000000" >
</path>
</svg>
