<svg xmlns="http://www.w3.org/2000/svg" xmlns:xlink="http://www.w3.org/1999/xlink" width="24" height="24" viewBox="0 0 24 24" fill="none">
<path d="M21.36 9.09021C21.3467 9.07175 21.3244 9.0578 21.3099 9.04016C21.2955 9.02252 21.2853 8.99686 21.2699 8.9801C21.2545 8.96335 21.2464 8.95589 21.23 8.94007C21.2136 8.9243 21.1871 8.91486 21.1699 8.90003C21.1527 8.88519 21.1381 8.86401 21.12 8.85022C21.1019 8.83648 21.0788 8.82288 21.0599 8.81018C21.0411 8.79749 21.0295 8.78168 21.0099 8.77014C20.9903 8.7586 20.9602 8.75044 20.9399 8.74011C20.9197 8.72973 20.9007 8.71008 20.8799 8.71008C20.859 8.71008 20.8413 8.69007 20.8199 8.69007C20.7986 8.69007 20.7816 8.67005 20.7599 8.67005C20.7381 8.67005 20.7121 8.65003 20.6899 8.65003C20.6679 8.65003 20.6424 8.63001 20.62 8.63001C20.5976 8.63001 20.5825 8.62024 20.5599 8.62024C20.5374 8.62024 20.5127 8.62024 20.49 8.62024C20.4672 8.62024 20.4427 8.62024 20.4199 8.62024L17.9399 8.62L17.9399 7.13C17.9399 7.11112 17.9299 7.09887 17.9299 7.08C17.9299 7.06114 17.9299 7.03879 17.9299 7.02C17.9299 7.0012 17.9199 6.97868 17.9199 6.96C17.9199 6.94131 17.9099 6.92852 17.9099 6.91C17.9099 6.89148 17.8999 6.86832 17.8999 6.85C17.8999 6.83168 17.8899 6.81808 17.8899 6.8C17.8899 6.78192 17.8699 6.75778 17.8699 6.74C17.8699 6.72222 17.8499 6.70745 17.8499 6.69C17.8499 6.67255 17.8299 6.65707 17.8299 6.64C17.8299 6.62293 17.7999 6.59666 17.7999 6.58C17.7999 6.56334 17.7699 6.5562 17.7699 6.54C17.7699 6.5238 17.7504 6.5057 17.7399 6.49C17.7295 6.4743 17.7212 6.45517 17.7099 6.44C17.6987 6.42483 17.6919 6.4146 17.6799 6.4C17.668 6.3854 17.6426 6.37399 17.6299 6.36C17.6173 6.346 17.6134 6.32335 17.5999 6.31C17.5866 6.29665 17.5639 6.29268 17.5499 6.28C17.5359 6.26731 17.5345 6.25198 17.5199 6.24C17.5054 6.22802 17.4751 6.22125 17.4599 6.21C17.4448 6.19875 17.4357 6.18049 17.4199 6.17C17.4042 6.15951 17.3962 6.15 17.3799 6.15C17.3638 6.15 17.3366 6.11 17.3199 6.11C17.3032 6.11 17.287 6.09 17.2699 6.09C17.2529 6.09 17.2373 6.07 17.2199 6.07C17.2025 6.07 17.1877 6.05 17.1699 6.05C17.1522 6.05 17.128 6.03 17.1099 6.03C17.0919 6.03 17.0782 6.01 17.0599 6.01C17.0416 6.01 17.0285 6 17.0099 6C16.9914 6 16.9687 5.99 16.9499 5.99C16.9312 5.99 16.9087 5.99 16.8899 5.99C16.8711 5.99 16.8588 5.98 16.8399 5.98C16.8211 5.98 16.7988 5.98 16.7799 5.98L11.0099 5.98L8.67994 4.23C8.65516 4.21147 8.62615 4.1965 8.59994 4.18C8.57379 4.16351 8.54739 4.14435 8.51994 4.13C8.49252 4.11565 8.46843 4.10211 8.43994 4.09C8.41145 4.0779 8.3893 4.06 8.35994 4.06C8.33057 4.06 8.29999 4.04 8.26994 4.04C8.23989 4.04 8.20049 4.02 8.16994 4.02C8.1394 4.02 8.11079 4 8.07994 4C8.04909 4 8.02089 4 7.98994 4L3.58994 4C3.57106 4 3.55881 4 3.53994 4C3.52108 4 3.49873 4.01 3.47994 4.01C3.46114 4.01 3.43862 4.01 3.41994 4.01C3.40126 4.01 3.38846 4.03 3.36994 4.03C3.35142 4.03 3.32826 4.04 3.30994 4.04C3.29162 4.04 3.27802 4.05 3.25994 4.05C3.24187 4.05 3.21772 4.07 3.19994 4.07C3.18217 4.07 3.16739 4.09 3.14994 4.09C3.1325 4.09 3.11701 4.11 3.09994 4.11C3.08287 4.11 3.0666 4.13 3.04994 4.13C3.03329 4.13 3.01613 4.17 2.99994 4.17C2.98374 4.17 2.96565 4.17951 2.94994 4.19C2.93424 4.20049 2.92511 4.21875 2.90994 4.23C2.89478 4.24125 2.87454 4.24802 2.85994 4.26C2.84534 4.27198 2.83393 4.28732 2.81994 4.3C2.80595 4.31268 2.78329 4.31665 2.76994 4.33C2.75659 4.34335 2.75262 4.366 2.73994 4.38C2.72726 4.39399 2.71192 4.4054 2.69994 4.42C2.68796 4.4346 2.68119 4.45483 2.66994 4.47C2.65869 4.48517 2.64044 4.4943 2.62994 4.51C2.61945 4.5257 2.60994 4.5438 2.60994 4.56C2.60994 4.57619 2.56994 4.59334 2.56994 4.61C2.56994 4.62666 2.54994 4.64293 2.54994 4.66C2.54994 4.67707 2.52994 4.69255 2.52994 4.71C2.52994 4.72745 2.50994 4.74222 2.50994 4.76C2.50994 4.77778 2.48994 4.80193 2.48994 4.82C2.48994 4.83808 2.47994 4.85168 2.47994 4.87C2.47994 4.88832 2.46994 4.91148 2.46994 4.93C2.46994 4.94852 2.44994 4.96132 2.44994 4.98C2.44994 4.99868 2.44994 5.0212 2.44994 5.04C2.44994 5.05879 2.43994 5.08114 2.43994 5.1C2.43994 5.11887 2.43994 5.13112 2.43994 5.15L2.44994 19.5L2.44994 19.53L2.44994 19.55L2.45994 19.58L2.45994 19.6L2.46994 19.62L2.46994 19.65L2.47994 19.67L2.48994 19.69L2.48994 19.71L2.50994 19.74L2.51994 19.76L2.52994 19.77L2.54994 19.8L2.55994 19.82L2.57994 19.83L2.58994 19.85L2.60994 19.87L2.62994 19.89L2.64994 19.9L2.66994 19.91L2.68994 19.92L2.70994 19.94L2.72994 19.95L2.75994 19.96L2.77994 19.97L2.79994 19.98L2.82994 19.98L2.84994 19.98L2.86994 19.99L2.89994 19.99L2.91994 19.99L2.93994 20L17.6999 20C17.7128 20 17.7371 19.99 17.7499 19.99C17.7627 19.99 17.7672 19.99 17.7799 19.99C17.7926 19.99 17.8074 19.98 17.8199 19.98C17.8324 19.98 17.8477 19.98 17.8599 19.98C17.8722 19.98 17.888 19.96 17.8999 19.96C17.9118 19.96 17.9185 19.94 17.9299 19.94C17.9414 19.94 17.959 19.92 17.9699 19.92C17.9809 19.92 17.9795 19.9 17.9899 19.9C18.0004 19.9 18.0299 19.88 18.0299 19.88L18.0599 19.85L18.0799 19.83C18.0799 19.83 18.1099 19.8103 18.1099 19.8C18.1099 19.7896 18.1299 19.771 18.1299 19.76C18.1299 19.749 18.1399 19.7415 18.1399 19.73C18.1399 19.7186 18.1599 19.7019 18.1599 19.69C18.1599 19.6781 18.1799 19.6722 18.1799 19.66L21.5199 10.14C21.5199 10.1184 21.5299 10.0922 21.5299 10.0702C21.5299 10.0482 21.5499 10.0224 21.5499 10.0001C21.5499 9.97781 21.5599 9.95258 21.5599 9.93006C21.5599 9.90753 21.5699 9.88287 21.5699 9.86023C21.5699 9.83754 21.5699 9.82292 21.5699 9.80017C21.5699 9.77737 21.5699 9.75285 21.5699 9.7301C21.5699 9.70736 21.5699 9.68268 21.5699 9.66004C21.5699 9.63734 21.5599 9.61274 21.5599 9.59021C21.5599 9.56773 21.5499 9.55241 21.5499 9.53015C21.5499 9.50784 21.5299 9.48201 21.5299 9.46008C21.5299 9.43816 21.5099 9.42162 21.5099 9.40003C21.5099 9.37849 21.49 9.36125 21.49 9.34021C21.49 9.31911 21.46 9.29069 21.46 9.27014C21.46 9.24965 21.441 9.23003 21.4299 9.21008C21.4189 9.1902 21.4021 9.16925 21.3899 9.15003C21.3777 9.1308 21.3733 9.10867 21.36 9.09021ZM3.58994 4.99L7.98994 4.99C8.00778 4.99 8.02302 4.99 8.03994 4.99C8.05685 4.99 8.07567 5.0093 8.08994 5.02L10.5499 6.87C10.5712 6.88595 10.5964 6.89766 10.6199 6.91C10.6435 6.92233 10.6647 6.95 10.6899 6.95C10.7151 6.95 10.7436 6.96 10.7699 6.96C10.7962 6.96 10.8133 6.97 10.8399 6.97L16.7799 6.97L16.7999 6.97L16.8099 6.97L16.8299 6.97L16.8399 6.98L16.8599 6.99L16.8799 7L16.8799 7.01L16.8999 7.02L16.9099 7.02L16.9199 7.04L16.9299 7.05L16.9399 7.07L16.9399 7.09L16.9499 7.1L16.9499 7.11L16.9499 7.13L16.9499 8.62L7.03992 8.62024C7.02491 8.62024 7.015 8.62024 7 8.62024C6.985 8.62024 6.97493 8.62024 6.95996 8.62024C6.94499 8.62024 6.92482 8.62024 6.90991 8.62024C6.895 8.62024 6.88482 8.63001 6.87 8.63001C6.85517 8.63001 6.83468 8.63001 6.81995 8.63001C6.80522 8.63001 6.79451 8.65003 6.77991 8.65003C6.76531 8.65003 6.75445 8.66004 6.73999 8.66004C6.72553 8.66004 6.70423 8.67005 6.68994 8.67005C6.67566 8.67005 6.664 8.69007 6.6499 8.69007C6.63581 8.69007 6.61386 8.70008 6.59998 8.70008C6.5861 8.70008 6.5836 8.72009 6.56995 8.72009C6.5563 8.72009 6.5433 8.74011 6.52991 8.74011C6.51651 8.74011 6.50311 8.77014 6.48999 8.77014C6.47687 8.77014 6.46278 8.78015 6.44995 8.78015C6.43713 8.78015 6.42242 8.81018 6.40991 8.81018C6.3974 8.81018 6.39207 8.84021 6.37988 8.84021C6.36771 8.84021 6.35179 8.86023 6.33997 8.86023C6.32814 8.86023 6.32139 8.89002 6.30994 8.89002C6.29847 8.89002 6.28097 8.89987 6.2699 8.91004C6.25883 8.92015 6.25066 8.93947 6.23999 8.95008C6.22932 8.96062 6.2102 8.96917 6.19995 8.9801C6.18971 8.99109 6.16992 8.99876 6.16992 9.01013C6.16992 9.02151 6.1499 9.03847 6.1499 9.05017C6.1499 9.06193 6.12 9.06811 6.12 9.0802C6.12 9.09229 6.09998 9.11759 6.09998 9.13001C6.09998 9.14248 6.06995 9.14729 6.06995 9.16004C6.06995 9.17279 6.03992 9.18705 6.03992 9.20008C6.03992 9.21315 6.0199 9.22682 6.0199 9.24011C6.0199 9.25347 6.00989 9.26658 6.00989 9.28015C6.00989 9.29373 5.97998 9.30634 5.97998 9.32019C5.97998 9.33404 5.96997 9.34622 5.96997 9.36023C5.96997 9.3743 5.94995 9.3958 5.94995 9.41004L3.42994 15.97L3.42994 5.15L3.42994 5.13L3.42994 5.11L3.43994 5.09L3.44994 5.07L3.45994 5.06L3.46994 5.05L3.47994 5.04L3.48994 5.03L3.49994 5.02L3.50994 5.01L3.52994 5L3.54994 4.99L3.56994 4.99L3.58994 4.99ZM20.5699 9.82019L17.3499 19.01L3.62994 19.01L6.8999 9.71008L6.8999 9.70008L6.90991 9.67005L6.92993 9.65003L6.94995 9.64002L6.96997 9.63001L7 9.61023L7.0199 9.61023L7.03992 9.61023L20.4199 9.61023L20.4299 9.61023L20.45 9.61023L20.46 9.61023L20.47 9.61023L20.48 9.62024L20.49 9.62024L20.5 9.63001L20.5099 9.64002L20.5199 9.64002L20.5299 9.65003L20.5399 9.66004L20.5499 9.66004L20.5499 9.67005L20.5599 9.68006L20.5699 9.69007L20.5699 9.70008L20.5699 9.71008L20.5699 9.72009L20.58 9.7301L20.58 9.74011L20.58 9.75012L20.58 9.77014L20.58 9.78015L20.58 9.79016L20.58 9.80017L20.5699 9.81018L20.5699 9.82019Z"   fill="#ffffff" >
</path>
</svg>
