<svg xmlns="http://www.w3.org/2000/svg" xmlns:xlink="http://www.w3.org/1999/xlink" width="24" height="24" viewBox="0 0 24 24" fill="none">
<path d="M7 5.5C7 5.49182 6.9998 5.48365 6.99939 5.47547C6.99899 5.46729 6.99839 5.45913 6.9976 5.451C6.99679 5.44285 6.99579 5.43473 6.99459 5.42664C6.99339 5.41854 6.99199 5.41048 6.99039 5.40246C6.98879 5.39443 6.987 5.38645 6.98502 5.37852C6.98303 5.37057 6.98085 5.36269 6.97848 5.35486C6.97609 5.34703 6.97353 5.33926 6.97078 5.33156C6.96802 5.32385 6.96507 5.31622 6.96193 5.30865C6.95881 5.3011 6.95549 5.29363 6.95199 5.28623C6.94849 5.27882 6.94481 5.27151 6.94096 5.2643C6.9371 5.25708 6.93307 5.24997 6.92887 5.24295C6.92466 5.23593 6.92029 5.22902 6.91574 5.22221C6.91119 5.21541 6.90647 5.20872 6.9016 5.20215C6.89673 5.19557 6.8917 5.18913 6.8865 5.18281C6.88131 5.17648 6.87596 5.17029 6.87047 5.16422C6.86497 5.15815 6.85934 5.15223 6.85355 5.14645C6.84777 5.14066 6.84185 5.13503 6.83578 5.12953C6.82971 5.12404 6.82352 5.11869 6.81719 5.1135C6.81087 5.1083 6.80443 5.10327 6.79785 5.0984C6.79128 5.09353 6.78459 5.08882 6.77779 5.08426C6.77098 5.07971 6.76407 5.07534 6.75705 5.07113C6.75003 5.06693 6.74292 5.0629 6.7357 5.05904C6.72849 5.05519 6.72118 5.05151 6.71377 5.04801C6.70637 5.04451 6.6989 5.04119 6.69135 5.03807C6.68378 5.03493 6.67615 5.03198 6.66844 5.02922C6.66074 5.02647 6.65297 5.02391 6.64514 5.02152C6.63731 5.01915 6.62943 5.01697 6.62148 5.01498C6.61355 5.01299 6.60557 5.0112 6.59754 5.00961C6.58952 5.00801 6.58146 5.00661 6.57336 5.00541C6.56527 5.00421 6.55715 5.00321 6.549 5.0024C6.54086 5.00161 6.53271 5.00101 6.52453 5.00061C6.51635 5.0002 6.50818 5 6.5 5C6.49182 5 6.48365 5.0002 6.47547 5.00061C6.46729 5.00101 6.45913 5.00161 6.451 5.0024C6.44285 5.00321 6.43473 5.00421 6.42664 5.00541C6.41854 5.00661 6.41048 5.00801 6.40246 5.00961C6.39443 5.0112 6.38645 5.01299 6.37852 5.01498C6.37057 5.01697 6.36269 5.01915 6.35486 5.02152C6.34703 5.02391 6.33926 5.02647 6.33156 5.02922C6.32385 5.03198 6.31622 5.03493 6.30865 5.03807C6.3011 5.04119 6.29363 5.04451 6.28623 5.04801C6.27882 5.05151 6.27151 5.05519 6.2643 5.05904C6.25708 5.0629 6.24997 5.06693 6.24295 5.07113C6.23593 5.07534 6.22902 5.07971 6.22221 5.08426C6.21541 5.08882 6.20872 5.09353 6.20215 5.0984C6.19557 5.10327 6.18913 5.1083 6.18281 5.1135C6.17648 5.11869 6.17029 5.12404 6.16422 5.12953C6.15815 5.13503 6.15223 5.14066 6.14645 5.14645C6.14066 5.15223 6.13503 5.15815 6.12953 5.16422C6.12404 5.17029 6.11869 5.17648 6.1135 5.18281C6.1083 5.18913 6.10327 5.19557 6.0984 5.20215C6.09353 5.20872 6.08882 5.21541 6.08426 5.22221C6.07971 5.22902 6.07534 5.23593 6.07113 5.24295C6.06693 5.24997 6.0629 5.25708 6.05904 5.2643C6.05519 5.27151 6.05151 5.27882 6.04801 5.28623C6.04451 5.29363 6.04119 5.3011 6.03807 5.30865C6.03493 5.31622 6.03198 5.32385 6.02922 5.33156C6.02647 5.33926 6.02391 5.34703 6.02152 5.35486C6.01915 5.36269 6.01697 5.37057 6.01498 5.37852C6.01299 5.38645 6.0112 5.39443 6.00961 5.40246C6.00801 5.41048 6.00661 5.41854 6.00541 5.42664C6.00421 5.43473 6.00321 5.44285 6.0024 5.451C6.00161 5.45913 6.00101 5.46729 6.00061 5.47547C6.0002 5.48365 6 5.49182 6 5.5L6 10.4C6.00003 10.4098 6.00029 10.4196 6.0008 10.4294C6.00131 10.4392 6.00206 10.449 6.00305 10.4587C6.00404 10.4685 6.00526 10.4782 6.00672 10.4879C6.00818 10.4977 6.00988 10.5073 6.01182 10.5169C6.01376 10.5266 6.01592 10.5361 6.01832 10.5456C6.02073 10.5551 6.02337 10.5646 6.02623 10.574C6.0291 10.5834 6.03219 10.5927 6.03551 10.6019C6.03883 10.6111 6.04237 10.6203 6.04613 10.6293C6.04991 10.6384 6.0539 10.6474 6.05811 10.6562C6.06231 10.6651 6.06673 10.6738 6.07137 10.6825C6.076 10.6912 6.08085 10.6997 6.0859 10.7081C6.09095 10.7165 6.0962 10.7248 6.10166 10.7329C6.10712 10.7411 6.11277 10.7491 6.11861 10.757C6.12446 10.7648 6.1305 10.7726 6.13674 10.7802C6.14296 10.7878 6.14937 10.7952 6.15596 10.8024C6.16255 10.8097 6.16931 10.8168 6.17625 10.8237C6.18319 10.8307 6.19029 10.8375 6.19756 10.844C6.20482 10.8506 6.21225 10.857 6.21984 10.8633C6.22742 10.8695 6.23515 10.8755 6.24303 10.8814C6.2509 10.8872 6.25892 10.8929 6.26707 10.8983C6.27522 10.9038 6.2835 10.909 6.29191 10.9141C6.30033 10.9192 6.30885 10.924 6.3175 10.9286C6.32616 10.9333 6.33492 10.9377 6.34377 10.9419C6.35264 10.9461 6.3616 10.9501 6.37066 10.9539C6.37973 10.9576 6.38887 10.9612 6.39811 10.9645C6.40734 10.9678 6.41664 10.9709 6.42602 10.9738C6.4354 10.9766 6.44486 10.9793 6.45437 10.9817C6.46388 10.9841 6.47344 10.9862 6.48307 10.9882C6.49269 10.9901 6.50235 10.9918 6.51205 10.9933C6.52175 10.9947 6.53148 10.996 6.54125 10.997C6.551 10.9979 6.56078 10.9987 6.57059 10.9992C6.58038 10.9997 6.59018 11 6.6 11L11.5 11C11.5082 11 11.5163 10.9998 11.5245 10.9994C11.5327 10.999 11.5409 10.9984 11.549 10.9976C11.5571 10.9968 11.5653 10.9958 11.5734 10.9946C11.5815 10.9934 11.5895 10.992 11.5975 10.9904C11.6056 10.9888 11.6136 10.987 11.6215 10.985C11.6294 10.983 11.6373 10.9808 11.6451 10.9785C11.653 10.9761 11.6607 10.9735 11.6684 10.9708C11.6762 10.968 11.6838 10.9651 11.6913 10.9619C11.6989 10.9588 11.7064 10.9555 11.7138 10.952C11.7212 10.9485 11.7285 10.9448 11.7357 10.941C11.7429 10.9371 11.75 10.9331 11.7571 10.9289C11.7641 10.9247 11.771 10.9203 11.7778 10.9157C11.7846 10.9112 11.7913 10.9065 11.7979 10.9016C11.8044 10.8967 11.8109 10.8917 11.8172 10.8865C11.8235 10.8813 11.8297 10.876 11.8358 10.8705C11.8418 10.865 11.8478 10.8593 11.8536 10.8536C11.8593 10.8478 11.865 10.8419 11.8705 10.8358C11.876 10.8297 11.8813 10.8235 11.8865 10.8172C11.8917 10.8109 11.8967 10.8044 11.9016 10.7979C11.9065 10.7913 11.9112 10.7846 11.9157 10.7778C11.9203 10.771 11.9247 10.7641 11.9289 10.7571C11.9331 10.75 11.9371 10.7429 11.941 10.7357C11.9448 10.7285 11.9485 10.7212 11.952 10.7138C11.9555 10.7064 11.9588 10.6989 11.9619 10.6913C11.9651 10.6838 11.968 10.6762 11.9708 10.6684C11.9735 10.6607 11.9761 10.653 11.9785 10.6451C11.9808 10.6373 11.983 10.6294 11.985 10.6215C11.987 10.6136 11.9888 10.6056 11.9904 10.5975C11.992 10.5895 11.9934 10.5815 11.9946 10.5734C11.9958 10.5653 11.9968 10.5571 11.9976 10.549C11.9984 10.5409 11.999 10.5327 11.9994 10.5245C11.9998 10.5163 12 10.5082 12 10.5C12 10.4918 11.9998 10.4837 11.9994 10.4755C11.999 10.4673 11.9984 10.4591 11.9976 10.451C11.9968 10.4429 11.9958 10.4347 11.9946 10.4266C11.9934 10.4185 11.992 10.4105 11.9904 10.4025C11.9888 10.3944 11.987 10.3864 11.985 10.3785C11.983 10.3706 11.9808 10.3627 11.9785 10.3549C11.9761 10.347 11.9735 10.3393 11.9708 10.3316C11.968 10.3238 11.9651 10.3162 11.9619 10.3087C11.9588 10.3011 11.9555 10.2936 11.952 10.2862C11.9485 10.2788 11.9448 10.2715 11.941 10.2643C11.9371 10.2571 11.9331 10.25 11.9289 10.2429C11.9247 10.2359 11.9203 10.229 11.9157 10.2222C11.9112 10.2154 11.9065 10.2087 11.9016 10.2021C11.8967 10.1956 11.8917 10.1891 11.8865 10.1828C11.8813 10.1765 11.876 10.1703 11.8705 10.1642C11.865 10.1581 11.8593 10.1522 11.8536 10.1464C11.8478 10.1407 11.8418 10.135 11.8358 10.1295C11.8297 10.124 11.8235 10.1187 11.8172 10.1135C11.8109 10.1083 11.8044 10.1033 11.7979 10.0984C11.7913 10.0935 11.7846 10.0888 11.7778 10.0843C11.771 10.0797 11.7641 10.0753 11.7571 10.0711C11.75 10.0669 11.7429 10.0629 11.7357 10.059C11.7285 10.0552 11.7212 10.0515 11.7138 10.048C11.7064 10.0445 11.6989 10.0412 11.6913 10.0381C11.6838 10.0349 11.6762 10.032 11.6684 10.0292C11.6607 10.0265 11.653 10.0239 11.6451 10.0215C11.6373 10.0192 11.6294 10.017 11.6215 10.015C11.6136 10.013 11.6056 10.0112 11.5975 10.0096C11.5895 10.008 11.5815 10.0066 11.5734 10.0054C11.5653 10.0042 11.5571 10.0032 11.549 10.0024C11.5409 10.0016 11.5327 10.001 11.5245 10.0006C11.5163 10.0002 11.5082 10 11.5 10L7.9 10L11.3801 6.98008C13.0479 5.53027 15.5752 5.70703 17.0246 7.375C18.474 9.04297 18.2975 11.5703 16.6297 13.0195L8.45996 20.1199C8.45393 20.1253 8.44803 20.1308 8.44227 20.1365C8.4365 20.1421 8.43088 20.1479 8.42539 20.1538C8.4199 20.1598 8.41457 20.1658 8.40939 20.172C8.4042 20.1782 8.39916 20.1845 8.39428 20.1909C8.38939 20.1974 8.38467 20.2039 8.3801 20.2106C8.37553 20.2172 8.37113 20.224 8.36689 20.2309C8.36266 20.2378 8.35857 20.2447 8.35467 20.2518C8.35078 20.2589 8.34705 20.266 8.3435 20.2733C8.33994 20.2805 8.33656 20.2879 8.33336 20.2953C8.33016 20.3027 8.32715 20.3102 8.32432 20.3178C8.32148 20.3253 8.31883 20.3329 8.31635 20.3406C8.31389 20.3483 8.3116 20.3561 8.30951 20.3639C8.30742 20.3717 8.30553 20.3795 8.30381 20.3874C8.30211 20.3953 8.30059 20.4032 8.29926 20.4112C8.29793 20.4192 8.2968 20.4271 8.29586 20.4352C8.29492 20.4432 8.29418 20.4512 8.29363 20.4593C8.29307 20.4674 8.29272 20.4754 8.29256 20.4835C8.2924 20.4916 8.29244 20.4996 8.29268 20.5077C8.29291 20.5158 8.29334 20.5238 8.29395 20.5319C8.29457 20.54 8.29539 20.548 8.29641 20.556C8.29742 20.564 8.29863 20.572 8.30002 20.5799C8.30141 20.5879 8.30301 20.5958 8.30478 20.6037C8.30656 20.6116 8.30853 20.6194 8.3107 20.6272C8.31287 20.635 8.31521 20.6427 8.31775 20.6504C8.32029 20.658 8.32301 20.6656 8.32592 20.6732C8.32883 20.6807 8.33191 20.6881 8.33518 20.6955C8.33844 20.7029 8.34189 20.7102 8.34551 20.7174C8.34912 20.7247 8.35291 20.7318 8.35687 20.7388C8.36084 20.7459 8.36498 20.7528 8.36928 20.7596C8.37357 20.7665 8.37805 20.7732 8.38268 20.7798C8.3873 20.7864 8.39207 20.7929 8.39701 20.7993C8.40195 20.8057 8.40705 20.812 8.4123 20.8181C8.41756 20.8243 8.42295 20.8303 8.42848 20.8362C8.434 20.842 8.43969 20.8478 8.44551 20.8534C8.45133 20.859 8.45727 20.8644 8.46334 20.8697C8.46941 20.8751 8.47563 20.8802 8.48197 20.8853C8.4883 20.8903 8.49475 20.8951 8.50131 20.8998C8.50787 20.9045 8.51455 20.9091 8.52133 20.9135C8.5281 20.9178 8.535 20.9221 8.54199 20.9261C8.54898 20.9301 8.55607 20.934 8.56324 20.9377C8.57041 20.9414 8.57768 20.9449 8.58504 20.9483C8.59238 20.9516 8.5998 20.9548 8.6073 20.9578C8.6148 20.9608 8.62238 20.9636 8.63002 20.9662C8.63766 20.9688 8.64535 20.9713 8.6531 20.9735C8.66086 20.9758 8.66867 20.9779 8.67652 20.9797C8.68439 20.9816 8.69229 20.9833 8.70021 20.9848C8.70816 20.9862 8.71613 20.9875 8.72412 20.9887C8.73213 20.9898 8.74016 20.9907 8.74818 20.9914C8.75623 20.9921 8.7643 20.9926 8.77236 20.9929C8.78043 20.9933 8.78852 20.9934 8.79658 20.9933C8.80465 20.9933 8.81271 20.993 8.82078 20.9925C8.82885 20.9921 8.83691 20.9914 8.84494 20.9906C8.85297 20.9897 8.86096 20.9887 8.86895 20.9875C8.87693 20.9862 8.88488 20.9848 8.89279 20.9832C8.9007 20.9816 8.90855 20.9797 8.91639 20.9777C8.92422 20.9757 8.93199 20.9736 8.93971 20.9712C8.94742 20.9688 8.95508 20.9662 8.96268 20.9635C8.97027 20.9607 8.97779 20.9578 8.98523 20.9547C8.99269 20.9516 9.00008 20.9483 9.00736 20.9448C9.01465 20.9413 9.02186 20.9377 9.02896 20.9339C9.03609 20.9301 9.04311 20.9261 9.05002 20.9219C9.05695 20.9177 9.06377 20.9134 9.07047 20.9089C9.07719 20.9044 9.08379 20.8998 9.09027 20.895C9.09676 20.8902 9.10312 20.8852 9.10938 20.8801L17.2801 13.7801C19.3648 11.9686 19.5865 8.80996 17.775 6.725C15.9635 4.64004 12.8049 4.41855 10.7199 6.23008L7 9.45996L7 5.5Z"   fill="#FFFFFF" >
</path>
</svg>
