<svg xmlns="http://www.w3.org/2000/svg" xmlns:xlink="http://www.w3.org/1999/xlink" width="32" height="32" viewBox="0 0 32 32" fill="none">
<path d="M15.7333 25.6C10.4 25.6 6 21.2 6 15.8666C6 10.5333 10.4 6.1333 15.7333 6.1333C21.0667 6.1333 25.4667 10.5333 25.4667 15.8666C25.6 21.2 21.2 25.6 15.7333 25.6ZM15.7333 7.3333C11.0667 7.3333 7.33334 11.0666 7.33334 15.7333C7.33334 20.4 11.0667 24.1333 15.7333 24.1333C20.4 24.1333 24.1333 20.4 24.1333 15.7333C24.2667 11.2 20.4 7.3333 15.7333 7.3333Z"   fill="#000000" >
</path>
<path d="M12.4 15.0667L19.0667 15.0667L19.0667 16.4L12.4 16.4L12.4 15.0667Z"   fill="#0063B1" >
</path>
<path d="M15.0667 12.4L16.4 12.4L16.4 19.0667L15.0667 19.0667L15.0667 12.4Z"   fill="#0063B1" >
</path>
<path d="M25.3333 26C25.2 26 24.9333 26 24.8 25.8667L21.8666 22.9334C21.6 22.6667 21.6 22.2667 21.8666 22C22.1333 21.7334 22.5333 21.7334 22.8 22L25.7333 24.9334C26 25.2 26 25.6 25.7333 25.8667C25.7333 25.8667 25.4666 26 25.3333 26Z"   fill="#000000" >
</path>
</svg>
