<svg xmlns="http://www.w3.org/2000/svg" xmlns:xlink="http://www.w3.org/1999/xlink" width="24" height="24" viewBox="0 0 24 24" fill="none"><path d="M10 21.5999C9.9 21.5999 9.79999 21.5999 9.79999 21.4999L1.8 16.9999C1.6 16.8999 1.5 16.6999 1.5 16.5999L1.5 7.4999C1.5 7.29991 1.6 7.1999 1.7 7.09989C1.9 6.99991 2 6.99991 2.2 7.09989L10.2 11.5999C10.4 11.6999 10.5 11.8999 10.5 11.9999L10.5 21.0999C10.5 21.2999 10.4 21.3999 10.3 21.4999C10.1 21.5999 10.1 21.5999 10 21.5999ZM2.50001 16.2999L9.49999 20.2999L9.49999 12.3999L2.50001 8.3999L2.50001 16.2999Z"   fill="#000000" ></path><path d="M10 21.5999C9.90001 21.5999 9.8 21.5999 9.70002 21.4999C9.5 21.3999 9.5 21.1999 9.5 21.0999L9.5 11.9999C9.5 11.7999 9.60001 11.6999 9.8 11.5999L17.8 7.09989C18 6.99991 18.1 6.99991 18.3 7.09989C18.5 7.1999 18.5 7.39989 18.5 7.4999L18.5 11.3999L17.5 11.3999L17.5 8.3999L10.5 12.3999L10.5 20.2999L13.6 18.4999L14.1 19.3999L10.2 21.5999L10 21.5999Z"   fill="#000000" ></path><path d="M10 12.4999C9.9 12.4999 9.79999 12.4999 9.79999 12.4L1.8 7.89996C1.6 7.79995 1.5 7.59996 1.5 7.49995C1.5 7.39994 1.6 7.09994 1.8 6.99996L9.79999 2.39995C10 2.29995 10.1 2.29995 10.3 2.39995L18.3 6.99996C18.5 7.09994 18.6 7.29996 18.6 7.39994C18.6 7.59996 18.5 7.69994 18.3 7.79995L10.3 12.3C10.1 12.4999 10.1 12.4999 10 12.4999ZM3 7.49995L10 11.5L17 7.49995L10 3.49994L3 7.49995Z"   fill="#000000" ></path><path d="M19.3 16.3999L14.7 16.3999C14.4 16.3999 14.2 16.1999 14.2 15.8999C14.2 15.5999 14.4 15.3999 14.7 15.3999L19.3 15.3999C19.6 15.3999 19.8 15.5999 19.8 15.8999C19.8 16.1999 19.6 16.3999 19.3 16.3999Z"   fill="#0063B1" ></path><path d="M17.6 18.4001C17.5 18.4001 17.3 18.4001 17.2 18.3001C17 18.1001 17 17.8001 17.2 17.6001L18.9 15.9001L17.2 14.2001C17 14.0001 17 13.7001 17.2 13.5001C17.4 13.3001 17.7 13.3001 17.9 13.5001L19.9 15.5001C20.1 15.7001 20.1 16.0001 19.9 16.2001L17.9 18.2001C17.8 18.3001 17.7 18.4001 17.6 18.4001Z"   fill="#0063B1" ></path><path d="M17.2 21.2001C14.3 21.2001 11.9 18.8001 11.9 15.9001C11.9 13.0001 14.3 10.6001 17.2 10.6001C20.1 10.6001 22.5 13.0001 22.5 15.9001C22.5 18.8001 20.1 21.2001 17.2 21.2001ZM17.2 11.5001C14.8 11.5001 12.9 13.4001 12.9 15.8001C12.9 18.2001 14.8 20.1001 17.2 20.1001C19.6 20.1001 21.5 18.2001 21.5 15.8001C21.5 13.4001 19.6 11.5001 17.2 11.5001Z"   fill="#0063B1" ></path></svg>