<svg xmlns="http://www.w3.org/2000/svg" xmlns:xlink="http://www.w3.org/1999/xlink" width="16" height="16"
    viewBox="0 0 16 16" fill="none">
    <path
        d="M5.20385 9.33325L5.20385 8.37135C6.11857 7.5315 6.81516 6.84628 7.29369 6.31569C7.73316 5.83066 8.03588 5.44166 8.20188 5.14869C8.37116 4.85571 8.45579 4.56763 8.45579 4.28444C8.45579 3.98494 8.35326 3.74568 8.14819 3.56666C7.91707 3.3681 7.62572 3.26881 7.27416 3.26881C6.79238 3.26881 6.23901 3.44296 5.61401 3.79125L5.32104 2.78541C6.00788 2.46312 6.70288 2.30198 7.40601 2.302C8.0896 2.302 8.62994 2.45663 9.0271 2.76588C9.46004 3.10442 9.67651 3.58781 9.67651 4.21606C9.67651 4.63925 9.57722 5.0429 9.37866 5.427C9.1801 5.8111 8.82691 6.27985 8.31907 6.83325C7.8731 7.32478 7.36694 7.8326 6.80054 8.35669L9.73022 8.35669L9.73022 9.33325L5.20385 9.33325ZM3.27416 11.9999L3.27416 6.42375L2.00951 7.27335L1.49194 6.32122L3.40601 5.08097L4.45091 5.08097L4.45091 11.9999L3.27416 11.9999ZM10.0609 11.4263L9.80704 12.4176C10.4353 12.6617 11.0961 12.7838 11.7894 12.7838C12.574 12.7838 13.1778 12.6113 13.601 12.2662C14.073 11.8821 14.309 11.3564 14.309 10.689C14.309 9.75153 13.8126 9.20953 12.8197 9.06306C13.2885 8.97519 13.6417 8.79453 13.8793 8.52106C14.1169 8.24441 14.2358 7.87819 14.2358 7.42244C14.2358 6.84303 14.029 6.39706 13.6156 6.08456C13.225 5.7851 12.6814 5.63535 11.9848 5.63535C11.3077 5.63535 10.6518 5.75903 10.017 6.00644L10.2514 6.983C10.8633 6.7291 11.3907 6.60213 11.8334 6.60213C12.2045 6.60213 12.4942 6.68513 12.7025 6.85116C12.9109 7.01391 13.015 7.24341 13.015 7.53963C13.015 7.88469 12.8539 8.1565 12.5316 8.35506C12.2517 8.53085 11.809 8.61872 11.2035 8.61872C11.0701 8.61872 10.9171 8.6106 10.7445 8.59431L10.7445 9.53669C10.9822 9.52369 11.1742 9.51719 11.3207 9.51716C12.4991 9.51716 13.0883 9.89475 13.0883 10.65C13.0883 10.9658 12.9874 11.231 12.7855 11.4459C12.5544 11.6933 12.1947 11.817 11.7064 11.817C11.1661 11.817 10.6176 11.6868 10.0609 11.4263Z"
        fill-rule="evenodd" fill="#8a8a8a">
    </path>
</svg>