<svg xmlns="http://www.w3.org/2000/svg" xmlns:xlink="http://www.w3.org/1999/xlink" width="24" height="24" viewBox="0 0 24 24" fill="none">
<path d="M11.2504 8.50031C11.2504 8.77635 11.4743 9.00029 11.7504 9.00029C12.0264 9.00029 12.2503 8.77658 12.2503 8.50031L12.2503 5.00022C12.2503 4.72418 12.0264 4.50024 11.7504 4.50024C11.4743 4.50024 11.2504 4.72418 11.2504 5.00022L11.2504 8.50031ZM14.7505 11.7502L18.5006 11.7502C18.7768 11.7502 19.0005 11.5263 19.0005 11.2502C19.0005 10.9742 18.7766 10.7502 18.5006 10.7502L14.7505 10.7502C14.4745 10.7502 14.2505 10.9742 14.2505 11.2502C14.2505 11.5263 14.4745 11.7502 14.7505 11.7502ZM7.0001 11.7504L9.00025 11.7504C9.27629 11.7504 9.50023 11.5265 9.50023 11.2504C9.50023 10.9744 9.27629 10.7505 9.00025 10.7505L7.0001 10.7505C6.72406 10.7505 6.50012 10.9744 6.50012 11.2504C6.50012 11.5265 6.72406 11.7504 7.0001 11.7504ZM11.2504 21.5009C11.2504 21.7769 11.4743 22.0009 11.7504 22.0009C12.0264 22.0009 12.2503 21.7769 12.2503 21.5009L12.2503 14.2505C12.2503 13.9745 12.0264 13.7506 11.7504 13.7506C11.4743 13.7506 11.2504 13.9745 11.2504 14.2505L11.2504 21.5009Z" fill-rule="evenodd"  fill="#0063B1" >
</path>
<path d="M4.62501 22.0008C3.1774 22.0008 2 20.8232 2 19.3758L2 4.62501C2 3.17763 3.1774 2 4.62501 2C6.07262 2 7.25002 3.17763 7.25002 4.62501L7.25002 19.3758C7.25002 20.8232 6.07262 22.0008 4.62501 22.0008ZM4.62501 2.99996C3.72904 2.99996 2.99996 3.72904 2.99996 4.62501L2.99996 19.3758C2.99996 20.2717 3.72904 21.0008 4.62501 21.0008C5.52098 21.0008 6.25006 20.2717 6.25006 19.3758L6.25006 4.62501C6.25006 3.72904 5.52098 2.99996 4.62501 2.99996ZM19.3756 22.0008C19.0995 22.0008 18.8756 21.7769 18.8756 21.5008C18.8756 21.2248 19.0995 21.0008 19.3756 21.0008C20.2715 21.0008 21.0006 20.2717 21.0006 19.3758L21.0006 4.62501C21.0006 3.72904 20.2715 2.99996 19.3756 2.99996L19.1256 2.99996C18.8495 2.99996 18.6256 2.77603 18.6256 2.49998C18.6256 2.22394 18.8495 2 19.1256 2L19.3756 2C20.8232 2 22.0006 3.17763 22.0006 4.62501L22.0006 19.3758C22.0008 20.8232 20.8232 22.0008 19.3756 22.0008Z"   fill="#000000" >
</path>
<path d="M19.2873 22.0009L4.53674 22.0009C4.26069 22.0009 4.03676 21.777 4.03676 21.5009C4.03676 21.2249 4.26069 21.0009 4.53674 21.0009L19.2873 21.0009C20.1833 21.0009 20.9123 20.2718 20.9123 19.3759C20.9123 18.9175 20.7502 18.5053 20.4559 18.2153C20.1336 17.8979 19.6658 17.7304 19.1071 17.7434C18.8369 17.7403 18.6038 17.5271 18.5995 17.2509C18.5955 16.9748 18.8158 16.7475 19.0919 16.7435C19.9335 16.7325 20.6406 16.9937 21.1574 17.5031C21.6439 17.9824 21.9121 18.6475 21.9121 19.3759C21.9123 20.8233 20.7349 22.0009 19.2873 22.0009ZM6.75004 19.8759C6.47399 19.8759 6.25006 19.6519 6.25006 19.3759C6.25006 18.4799 5.52098 17.7508 4.62501 17.7508C3.72904 17.7508 2.99996 18.4799 2.99996 19.3759C2.99996 19.6519 2.77603 19.8759 2.49998 19.8759C2.22394 19.8759 2 19.6519 2 19.3759C2 17.9285 3.17763 16.7509 4.62501 16.7509C6.07239 16.7509 7.25002 17.9285 7.25002 19.3759C7.25002 19.6519 7.02631 19.8759 6.75004 19.8759ZM11.8754 12.8755C11.0482 12.8755 10.3752 12.2025 10.3752 11.3753C10.3752 10.5481 11.0482 9.87513 11.8754 9.87513C12.7026 9.87513 13.3756 10.5481 13.3756 11.3753C13.3756 12.2025 12.7024 12.8755 11.8754 12.8755ZM11.8754 10.6255C11.4619 10.6255 11.1254 10.962 11.1254 11.3755C11.1254 11.789 11.4619 12.1255 11.8754 12.1255C12.2889 12.1255 12.6254 11.789 12.6254 11.3755C12.6254 10.962 12.2889 10.6255 11.8754 10.6255ZM18.5005 5.00021L7.25002 5.00021C6.97397 5.00021 6.75004 4.77627 6.75004 4.50022C6.75004 4.22418 6.97397 4.00024 7.25002 4.00024L18.5005 4.00024C18.7765 4.00024 19.0005 4.22418 19.0005 4.50022C19.0005 4.77627 18.7767 5.00021 18.5005 5.00021Z"   fill="#000000" >
</path>
<path d="M19.0007 17.7507C18.7247 17.7507 18.5007 17.5268 18.5007 17.2508L18.5007 2.49998C18.5007 2.22394 18.7247 2 19.0007 2C19.2768 2 19.5007 2.22394 19.5007 2.49998L19.5007 17.2505C19.5007 17.5268 19.2768 17.7507 19.0007 17.7507Z"   fill="#000000" >
</path>
</svg>
