<svg xmlns="http://www.w3.org/2000/svg" xmlns:xlink="http://www.w3.org/1999/xlink" width="32" height="32" viewBox="0 0 32 32" fill="none">
<path d="M23.245 12.9817C23.245 13.364 23.245 13.6189 23.3724 14.0013C26.6861 14.766 28.8528 15.9131 28.8528 17.0601C28.8528 18.8444 24.0097 20.7562 16.9999 20.7562L15.343 20.7562C15.343 21.1386 15.4705 21.3935 15.4705 21.6484L16.9999 21.6484C23.1175 21.6484 29.745 19.9915 29.745 17.0601C29.6175 15.1484 26.8136 13.7464 23.2449 12.9817L23.245 12.9817Z"   fill="#000000" >
</path>
<path d="M16.8725 21.9032L15.2157 21.9032L15.2157 21.7757C15.2157 21.5208 15.0882 21.1385 15.0882 20.8836L15.0882 20.6287L17 20.6287C24.1372 20.6287 28.598 18.5894 28.598 17.1875C28.598 16.2953 26.9412 15.0208 23.3726 14.2561L23.2451 14.2561L23.2451 14.1287C23.2451 13.7463 23.2451 13.4914 23.1176 13.1091L23.1176 12.8542L23.3726 12.8542C25.7941 13.364 30 14.511 30 17.06C29.8725 20.2463 23.3726 21.9032 16.8725 21.9032ZM15.598 21.5208L16.8725 21.5208C22.9902 21.5208 29.3627 19.864 29.3627 17.06C29.3627 15.4032 27.1961 14.0012 23.3725 13.2365L23.3725 13.8738C26.6863 14.6385 28.8529 15.7855 28.8529 17.06C28.8529 18.9718 24.0098 20.8836 16.8725 20.8836L15.4706 20.8836C15.4706 21.1385 15.598 21.2659 15.598 21.5208ZM10.5 20.1189C7.18628 19.3541 5.0196 18.2071 5.0196 17.06C5.0196 15.2757 9.86272 13.364 16.8725 13.364L18.5294 13.364C18.5294 12.9816 18.4019 12.7267 18.4019 12.4718L16.8725 12.4718C10.7549 12.4718 4.12744 14.1287 4.12744 17.06C4.12744 18.9718 6.93138 20.3738 10.6274 21.1385C10.6274 20.7561 10.5 20.5012 10.5 20.1189Z"   fill="#000000" >
</path>
<path d="M10.8823 21.3934L10.6274 21.3934C8.2059 20.8836 4 19.7365 4 17.1875C4 14.0012 10.5 12.3444 16.8725 12.3444L18.5294 12.3444L18.5294 12.4718C18.5294 12.7267 18.6569 13.1091 18.6569 13.364L18.6569 13.6189L16.7451 13.6189C9.60783 13.6189 5.14706 15.6581 5.14706 17.06C5.14706 17.9522 6.80393 19.2267 10.3725 19.9914L10.5 19.9914L10.5 20.2463C10.5 20.5012 10.5 20.8836 10.6274 21.1385L10.8823 21.3934ZM16.8725 12.5993C10.7549 12.5993 4.2549 14.2561 4.2549 17.06C4.2549 18.7169 6.42158 20.1189 10.2451 20.8836L10.2451 20.2463C6.93139 19.4816 4.76471 18.3345 4.76471 17.06C4.76471 15.1483 9.60783 13.2365 16.7451 13.2365L18.147 13.2365C18.147 13.1091 18.147 12.8542 18.0196 12.7267C17.7647 12.5993 17.3823 12.5993 16.8726 12.5993L16.8725 12.5993Z"   fill="#000000" >
</path>
<path     fill="#000000"  d="M21.5882 17.06C21.5882 10.9424 19.9313 4.31494 16.9999 4.31494C15.0882 4.31494 13.6862 7.11888 12.9215 10.8149C13.3039 10.8149 13.5588 10.8149 13.9411 10.6875C14.7058 7.37378 15.8529 5.2071 16.9999 5.2071C18.7842 5.2071 20.696 10.0502 20.696 17.06">
</path>
<path d="M21.7157 17.06L21.3333 17.06C21.3333 10.9424 19.6764 4.56986 16.8725 4.56986C15.2157 4.56986 13.8137 6.73654 13.049 10.5601L13.6862 10.5601C14.451 7.24635 15.598 5.07967 16.8725 5.07967C18.7843 5.07967 20.696 9.92279 20.696 17.06L20.3137 17.06C20.3137 9.92279 18.2745 5.46203 16.8725 5.46203C15.9804 5.46203 14.7059 7.1189 13.9412 10.6875L13.9412 10.815L13.8137 10.815C13.4313 10.815 13.1764 10.815 12.7941 10.9424L12.5392 10.9424L12.5392 10.6875C13.049 8.26596 14.1961 4.06006 16.7451 4.06006C20.0588 4.06006 21.7157 10.5601 21.7157 17.06Z"   fill="#000000" >
</path>
<path     fill="#000000"  d="M13.1765 24.7071C13.9412 27.6385 15.2157 29.8052 16.8726 29.8052C18.7843 29.8052 20.1863 27.0012 20.951 23.3052C20.5687 23.3052 20.3138 23.3052 19.9314 23.4326C19.1667 26.7463 18.0196 28.913 16.8726 28.913C15.853 28.913 14.8334 27.3836 14.0687 24.7071">
</path>
<path d="M16.8725 29.9325C15.2156 29.9325 13.8137 28.0207 12.9215 24.707L13.3039 24.5796C14.196 27.7658 15.3431 29.5502 16.8725 29.5502C18.5293 29.5502 19.9313 27.3835 20.696 23.56L20.0588 23.56C19.2941 26.8737 18.147 29.0404 16.8725 29.0404C15.7254 29.0404 14.7058 27.3835 13.9411 24.5796L14.3235 24.4521C14.9607 27.0011 15.9803 28.5306 16.8725 28.5306C17.7646 28.5306 19.0391 26.8737 19.8039 23.3051L19.8039 23.1776L19.9313 23.1776C20.3137 23.1776 20.5686 23.1776 20.9509 23.0502L21.2058 23.0502L21.2058 23.3051C20.696 25.8541 19.4215 29.9325 16.8725 29.9325Z"   fill="#000000" >
</path>
<path d="M20.951 18.7169L22.8627 15.2758L19.0392 15.2758L20.951 18.7169Z"   fill="#000000" >
</path>
<path d="M12.4117 21.1385L15.8529 23.0502L15.8529 19.2267L12.4117 21.1385Z"   fill="#000000" >
</path>
<path d="M15.2157 16.9326C15.2157 16.9576 15.2163 16.9826 15.2175 17.0076C15.2188 17.0326 15.2206 17.0576 15.223 17.0825C15.2255 17.1074 15.2286 17.1323 15.2322 17.157C15.2359 17.1818 15.2402 17.2064 15.2451 17.231C15.25 17.2555 15.2555 17.2799 15.2615 17.3042C15.2676 17.3285 15.2743 17.3526 15.2815 17.3766C15.2888 17.4005 15.2966 17.4243 15.3051 17.4478C15.3135 17.4714 15.3225 17.4947 15.3321 17.5179C15.3417 17.541 15.3518 17.5639 15.3625 17.5865C15.3732 17.6091 15.3845 17.6315 15.3963 17.6536C15.4081 17.6756 15.4204 17.6974 15.4333 17.7189C15.4461 17.7403 15.4595 17.7615 15.4734 17.7823C15.4873 17.8031 15.5017 17.8236 15.5166 17.8437C15.5316 17.8638 15.547 17.8835 15.5628 17.9029C15.5787 17.9222 15.5951 17.9411 15.6119 17.9597C15.6287 17.9782 15.646 17.9963 15.6636 18.0141C15.6813 18.0317 15.6995 18.049 15.718 18.0658C15.7366 18.0826 15.7555 18.099 15.7748 18.1148C15.7942 18.1307 15.8139 18.1461 15.834 18.161C15.8541 18.1759 15.8746 18.1904 15.8954 18.2043C15.9162 18.2182 15.9374 18.2315 15.9588 18.2444C15.9803 18.2573 16.0021 18.2696 16.0241 18.2814C16.0462 18.2932 16.0686 18.3045 16.0912 18.3152C16.1138 18.3259 16.1367 18.336 16.1598 18.3456C16.183 18.3552 16.2063 18.3642 16.2298 18.3726C16.2534 18.381 16.2772 18.3889 16.3011 18.3962C16.3251 18.4034 16.3492 18.4101 16.3735 18.4162C16.3978 18.4222 16.4222 18.4277 16.4467 18.4326C16.4713 18.4375 16.4959 18.4418 16.5207 18.4455C16.5454 18.4491 16.5703 18.4522 16.5952 18.4547C16.6201 18.4571 16.6451 18.4589 16.6701 18.4602C16.6951 18.4614 16.7201 18.462 16.7451 18.462C16.7701 18.462 16.7951 18.4614 16.8201 18.4602C16.8451 18.4589 16.8701 18.4571 16.895 18.4547C16.9199 18.4522 16.9448 18.4491 16.9695 18.4455C16.9943 18.4418 17.0189 18.4375 17.0435 18.4326C17.068 18.4277 17.0924 18.4222 17.1167 18.4162C17.141 18.4101 17.1651 18.4034 17.1891 18.3962C17.213 18.3889 17.2368 18.381 17.2603 18.3726C17.2839 18.3642 17.3072 18.3552 17.3304 18.3456C17.3535 18.336 17.3764 18.3259 17.399 18.3152C17.4216 18.3045 17.444 18.2932 17.4661 18.2814C17.4881 18.2696 17.5099 18.2573 17.5314 18.2444C17.5528 18.2315 17.574 18.2182 17.5948 18.2043C17.6156 18.1904 17.636 18.1759 17.6561 18.161C17.6763 18.1461 17.696 18.1307 17.7154 18.1148C17.7347 18.099 17.7536 18.0826 17.7722 18.0658C17.7907 18.049 17.8088 18.0317 17.8266 18.0141C17.8442 17.9963 17.8615 17.9782 17.8783 17.9597C17.8951 17.9411 17.9115 17.9222 17.9273 17.9029C17.9432 17.8835 17.9586 17.8638 17.9735 17.8437C17.9884 17.8236 18.0029 17.8031 18.0168 17.7823C18.0307 17.7615 18.044 17.7403 18.0569 17.7189C18.0698 17.6974 18.0821 17.6756 18.0939 17.6536C18.1057 17.6315 18.117 17.6091 18.1277 17.5865C18.1384 17.5639 18.1485 17.541 18.1581 17.5179C18.1677 17.4947 18.1767 17.4714 18.1851 17.4478C18.1935 17.4243 18.2014 17.4005 18.2087 17.3766C18.2159 17.3526 18.2226 17.3285 18.2287 17.3042C18.2347 17.2799 18.2402 17.2555 18.2451 17.231C18.25 17.2064 18.2543 17.1818 18.258 17.157C18.2616 17.1323 18.2647 17.1074 18.2672 17.0825C18.2696 17.0576 18.2714 17.0326 18.2727 17.0076C18.2739 16.9826 18.2745 16.9576 18.2745 16.9326C18.2745 16.9076 18.2739 16.8826 18.2727 16.8576C18.2714 16.8326 18.2696 16.8076 18.2672 16.7827C18.2647 16.7578 18.2616 16.7329 18.258 16.7082C18.2543 16.6834 18.25 16.6588 18.2451 16.6342C18.2402 16.6097 18.2347 16.5853 18.2287 16.561C18.2226 16.5367 18.2159 16.5126 18.2087 16.4886C18.2014 16.4647 18.1935 16.4409 18.1851 16.4173C18.1767 16.3938 18.1677 16.3705 18.1581 16.3473C18.1485 16.3242 18.1384 16.3013 18.1277 16.2787C18.117 16.2561 18.1057 16.2337 18.0939 16.2116C18.0821 16.1896 18.0698 16.1678 18.0569 16.1463C18.044 16.1249 18.0307 16.1037 18.0168 16.0829C18.0029 16.0621 17.9884 16.0416 17.9735 16.0215C17.9586 16.0014 17.9432 15.9817 17.9273 15.9623C17.9115 15.943 17.8951 15.9241 17.8783 15.9055C17.8615 15.887 17.8442 15.8688 17.8266 15.8511C17.8088 15.8335 17.7907 15.8162 17.7722 15.7994C17.7536 15.7826 17.7347 15.7662 17.7154 15.7504C17.696 15.7345 17.6763 15.7191 17.6562 15.7042C17.6361 15.6893 17.6156 15.6748 17.5948 15.6609C17.574 15.647 17.5528 15.6336 17.5314 15.6208C17.5099 15.6079 17.4881 15.5956 17.4661 15.5838C17.444 15.572 17.4216 15.5607 17.399 15.55C17.3764 15.5393 17.3535 15.5292 17.3304 15.5196C17.3072 15.51 17.2839 15.501 17.2603 15.4926C17.2368 15.4842 17.213 15.4763 17.1891 15.469C17.1651 15.4618 17.141 15.4551 17.1167 15.449C17.0924 15.443 17.068 15.4375 17.0435 15.4326C17.0189 15.4277 16.9943 15.4234 16.9695 15.4197C16.9448 15.4161 16.9199 15.413 16.895 15.4105C16.8701 15.4081 16.8451 15.4063 16.8201 15.405C16.7951 15.4038 16.7701 15.4032 16.7451 15.4032C16.7201 15.4032 16.6951 15.4038 16.6701 15.405C16.6451 15.4063 16.6201 15.4081 16.5952 15.4105C16.5703 15.413 16.5454 15.4161 16.5207 15.4197C16.4959 15.4234 16.4713 15.4277 16.4467 15.4326C16.4222 15.4375 16.3978 15.443 16.3735 15.449C16.3492 15.4551 16.3251 15.4618 16.3011 15.469C16.2772 15.4763 16.2534 15.4841 16.2298 15.4926C16.2063 15.501 16.183 15.51 16.1598 15.5196C16.1367 15.5292 16.1138 15.5393 16.0912 15.55C16.0686 15.5607 16.0462 15.572 16.0241 15.5838C16.0021 15.5956 15.9803 15.6079 15.9588 15.6208C15.9374 15.6336 15.9162 15.647 15.8954 15.6609C15.8746 15.6748 15.8541 15.6893 15.834 15.7042C15.8139 15.7191 15.7942 15.7345 15.7748 15.7504C15.7555 15.7662 15.7366 15.7826 15.718 15.7994C15.6995 15.8162 15.6813 15.8335 15.6636 15.8511C15.646 15.8688 15.6287 15.887 15.6119 15.9055C15.5951 15.9241 15.5787 15.943 15.5629 15.9623C15.547 15.9817 15.5316 16.0014 15.5167 16.0215C15.5018 16.0416 15.4873 16.0621 15.4734 16.0829C15.4595 16.1037 15.4461 16.1249 15.4333 16.1463C15.4204 16.1678 15.4081 16.1896 15.3963 16.2116C15.3845 16.2337 15.3732 16.2561 15.3625 16.2787C15.3518 16.3013 15.3417 16.3242 15.3321 16.3473C15.3225 16.3705 15.3135 16.3938 15.3051 16.4173C15.2966 16.4409 15.2888 16.4647 15.2815 16.4886C15.2743 16.5126 15.2676 16.5367 15.2615 16.561C15.2555 16.5853 15.25 16.6097 15.2451 16.6342C15.2402 16.6588 15.2359 16.6834 15.2322 16.7082C15.2286 16.7329 15.2255 16.7578 15.223 16.7827C15.2206 16.8076 15.2188 16.8326 15.2175 16.8576C15.2163 16.8826 15.2157 16.9076 15.2157 16.9326Z"   fill="#0063B1" >
</path>
</svg>
