<svg xmlns="http://www.w3.org/2000/svg" xmlns:xlink="http://www.w3.org/1999/xlink" width="16" height="16" viewBox="0 0 16 16" fill="none"><path d="M4.60495 1.97192L5.40495 1.97192C5.51495 1.97192 5.60495 2.06192 5.60495 2.17192L5.60495 3.05192L10.405 3.05192L10.405 2.17192C10.405 2.06192 10.495 1.97192 10.605 1.97192L11.405 1.97192C11.515 1.97192 11.605 2.06192 11.605 2.17192L11.605 3.05192L13.745 3.05192C13.758 3.05192 13.7722 3.06192 13.785 3.06192C13.7978 3.06192 13.8123 3.07192 13.825 3.07192C13.8377 3.07192 13.8425 3.08192 13.855 3.08192C13.8675 3.08192 13.8827 3.09192 13.895 3.09192C13.9073 3.09192 13.9229 3.11192 13.935 3.11192C13.9471 3.11192 13.9532 3.12192 13.965 3.12192C13.9768 3.12192 13.9935 3.14192 14.005 3.14192C14.0165 3.14192 14.0238 3.16192 14.035 3.16192C14.0462 3.16192 14.0641 3.18192 14.075 3.18192C14.0859 3.18192 14.0945 3.20192 14.105 3.20192C14.1155 3.20192 14.1249 3.23192 14.135 3.23192C14.1451 3.23192 14.165 3.25192 14.165 3.25192L14.195 3.28192L14.215 3.31192C14.215 3.31192 14.245 3.33179 14.245 3.34192C14.245 3.35205 14.265 3.36141 14.265 3.37192C14.265 3.38244 14.295 3.39103 14.295 3.40192C14.295 3.41281 14.315 3.42069 14.315 3.43192C14.315 3.44315 14.335 3.46038 14.335 3.47192C14.335 3.48347 14.345 3.49009 14.345 3.50192C14.345 3.51375 14.365 3.52982 14.365 3.54192C14.365 3.55401 14.375 3.56959 14.375 3.58192C14.375 3.59425 14.395 3.5994 14.395 3.61192C14.395 3.62445 14.405 3.63922 14.405 3.65192C14.405 3.66462 14.415 3.67909 14.415 3.69192L14.415 3.73192C14.415 3.74487 14.425 3.75889 14.425 3.77192L14.425 13.1719C14.425 13.1849 14.415 13.1989 14.415 13.2119C14.415 13.2249 14.405 13.2391 14.405 13.2519L14.405 13.2919C14.405 13.3046 14.395 13.3094 14.395 13.3219C14.395 13.3344 14.375 13.3496 14.375 13.3619C14.375 13.3742 14.365 13.3898 14.365 13.4019C14.365 13.414 14.345 13.4201 14.345 13.4319C14.345 13.4437 14.335 13.4604 14.335 13.4719C14.335 13.4834 14.315 13.4907 14.315 13.5019C14.315 13.5131 14.295 13.531 14.295 13.5419C14.295 13.5528 14.265 13.5614 14.265 13.5719C14.265 13.5824 14.245 13.5918 14.245 13.6019C14.245 13.612 14.215 13.6319 14.215 13.6319L14.195 13.6619L14.165 13.6819C14.165 13.6819 14.1451 13.7119 14.135 13.7119C14.1249 13.7119 14.1155 13.7319 14.105 13.7319C14.0945 13.7319 14.0759 13.7619 14.065 13.7619C14.0541 13.7619 14.0462 13.7819 14.035 13.7819C14.0238 13.7819 14.0165 13.8019 14.005 13.8019C13.9934 13.8019 13.9768 13.8119 13.965 13.8119C13.9532 13.8119 13.9471 13.8319 13.935 13.8319C13.9229 13.8319 13.9073 13.8419 13.895 13.8419C13.8827 13.8419 13.8675 13.8619 13.855 13.8619C13.8425 13.8619 13.8277 13.8719 13.815 13.8719C13.8023 13.8719 13.7978 13.8819 13.785 13.8819L13.745 13.8819C13.732 13.8819 13.718 13.8919 13.705 13.8919L2.29495 13.8919C2.28192 13.8919 2.26791 13.8819 2.25495 13.8819L2.21495 13.8819C2.20212 13.8819 2.19766 13.8719 2.18495 13.8719C2.17225 13.8719 2.15748 13.8619 2.14495 13.8619C2.13243 13.8619 2.11728 13.8419 2.10495 13.8419C2.09263 13.8419 2.07705 13.8319 2.06495 13.8319C2.05285 13.8319 2.04678 13.8119 2.03495 13.8119C2.02312 13.8119 2.0065 13.8019 1.99495 13.8019C1.98341 13.8019 1.97618 13.7819 1.96495 13.7819C1.95372 13.7819 1.94584 13.7619 1.93495 13.7619C1.92407 13.7619 1.90547 13.7319 1.89495 13.7319C1.88444 13.7319 1.87508 13.7119 1.86495 13.7119C1.85483 13.7119 1.83495 13.6819 1.83495 13.6819L1.80495 13.6619L1.78495 13.6319C1.78495 13.6319 1.75495 13.612 1.75495 13.6019C1.75495 13.5918 1.73495 13.5824 1.73495 13.5719C1.73495 13.5614 1.70495 13.5528 1.70495 13.5419C1.70495 13.531 1.68495 13.5131 1.68495 13.5019C1.68495 13.4907 1.66495 13.4834 1.66495 13.4719C1.66495 13.4604 1.65495 13.4437 1.65495 13.4319C1.65495 13.4201 1.63495 13.414 1.63495 13.4019C1.63495 13.3898 1.62495 13.3742 1.62495 13.3619C1.62495 13.3496 1.60495 13.3344 1.60495 13.3219C1.60495 13.3094 1.59495 13.3046 1.59495 13.2919L1.59495 13.2519C1.59495 13.2391 1.58495 13.2249 1.58495 13.2119C1.58495 13.1989 1.57495 13.1849 1.57495 13.1719L1.57495 3.77192C1.57495 3.75889 1.58495 3.74487 1.58495 3.73192C1.58495 3.71897 1.59495 3.70476 1.59495 3.69192L1.59495 3.65192C1.59495 3.63922 1.60495 3.62445 1.60495 3.61192C1.60495 3.5994 1.62495 3.59425 1.62495 3.58192C1.62495 3.56959 1.63495 3.55401 1.63495 3.54192C1.63495 3.52982 1.65495 3.51375 1.65495 3.50192C1.65495 3.49009 1.66495 3.48347 1.66495 3.47192C1.66495 3.46038 1.68495 3.44315 1.68495 3.43192C1.68495 3.42069 1.70495 3.41281 1.70495 3.40192C1.70495 3.39103 1.73495 3.38244 1.73495 3.37192C1.73495 3.36141 1.75495 3.35205 1.75495 3.34192C1.75495 3.33179 1.78495 3.31192 1.78495 3.31192L1.80495 3.28192L1.83495 3.25192C1.83495 3.25192 1.85483 3.23192 1.86495 3.23192C1.87508 3.23192 1.88444 3.20192 1.89495 3.20192C1.90547 3.20192 1.92407 3.18192 1.93495 3.18192C1.94584 3.18192 1.95372 3.16192 1.96495 3.16192C1.97618 3.16192 1.98341 3.14192 1.99495 3.14192C2.0065 3.14192 2.02312 3.12192 2.03495 3.12192C2.04678 3.12192 2.05285 3.11192 2.06495 3.11192C2.07705 3.11192 2.09263 3.09192 2.10495 3.09192C2.11728 3.09192 2.13243 3.08192 2.14495 3.08192C2.15748 3.08192 2.17225 3.07192 2.18495 3.07192C2.19766 3.07192 2.20212 3.06192 2.21495 3.06192C2.2278 3.06192 2.242 3.05192 2.25495 3.05192L4.40495 3.05192L4.40495 2.17192C4.40495 2.06192 4.49495 1.97192 4.60495 1.97192ZM2.77495 4.25192L13.225 4.25192L13.225 6.40192L2.77495 6.40192L2.77495 4.25192ZM2.77495 7.60192L13.225 7.60192L13.225 12.6919L2.77495 12.6919L2.77495 7.60192ZM8.1312 11.8999L9.19995 9.39992C9.23706 9.31203 9.49995 8.89035 9.49995 8.69992C9.49995 8.42355 9.27632 8.19992 8.99995 8.19992L6.99995 8.19992C6.72358 8.19992 6.49995 8.42355 6.49995 8.69992C6.49995 8.97629 6.72358 9.19992 6.99995 9.19992L8.28745 9.19992L7.29995 11.4999C7.23159 11.6601 7.248 11.8304 7.3437 11.9749C7.43257 12.1097 7.56675 12.1839 7.72495 12.1937C7.7064 12.1937 7.68823 12.1999 7.6687 12.1999L7.7562 12.1999C7.74448 12.1999 7.73667 12.1937 7.72495 12.1937C7.90464 12.1741 8.05796 12.0708 8.1312 11.8999Z" fill-rule="evenodd"  fill="#8a8a8a" ></path></svg>