<svg xmlns="http://www.w3.org/2000/svg" xmlns:xlink="http://www.w3.org/1999/xlink" width="16" height="16" viewBox="0 0 16 16" fill="none"><path d="M4.40495 3.05192L4.40495 2.17192C4.40495 2.06192 4.49495 1.97192 4.60495 1.97192L5.40495 1.97192C5.51495 1.97192 5.60495 2.06192 5.60495 2.17192L5.60495 3.05192L10.405 3.05192L10.405 2.17192C10.405 2.06192 10.495 1.97192 10.605 1.97192L11.405 1.97192C11.515 1.97192 11.605 2.06192 11.605 2.17192L11.605 3.05192L13.625 3.05192C13.638 3.05192 13.6519 3.05192 13.665 3.05192C13.678 3.05192 13.6919 3.05192 13.705 3.05192C13.718 3.05192 13.732 3.05192 13.745 3.05192C13.7579 3.05192 13.7721 3.06192 13.785 3.06192C13.7978 3.06192 13.8122 3.07192 13.825 3.07192C13.8377 3.07192 13.8424 3.08192 13.855 3.08192C13.8675 3.08192 13.8826 3.09192 13.895 3.09192C13.9073 3.09192 13.9229 3.11192 13.935 3.11192C13.947 3.11192 13.9531 3.12192 13.965 3.12192C13.9768 3.12192 13.9934 3.14192 14.005 3.14192C14.0165 3.14192 14.0237 3.16192 14.035 3.16192C14.0462 3.16192 14.0641 3.18192 14.075 3.18192C14.0858 3.18192 14.0944 3.20192 14.105 3.20192C14.1155 3.20192 14.1248 3.23192 14.135 3.23192C14.1451 3.23192 14.165 3.25192 14.165 3.25192L14.195 3.28192L14.215 3.31192C14.215 3.31192 14.245 3.3318 14.245 3.34192C14.245 3.35205 14.265 3.36141 14.265 3.37192C14.265 3.38244 14.295 3.39104 14.295 3.40192C14.295 3.41281 14.315 3.42069 14.315 3.43192C14.315 3.44315 14.335 3.46038 14.335 3.47192C14.335 3.48348 14.345 3.49009 14.345 3.50192C14.345 3.51376 14.365 3.52982 14.365 3.54192C14.365 3.55402 14.375 3.5696 14.375 3.58192C14.375 3.59425 14.395 3.59941 14.395 3.61192C14.395 3.62446 14.405 3.63922 14.405 3.65192C14.405 3.66463 14.415 3.6791 14.415 3.69192C14.415 3.70477 14.415 3.71897 14.415 3.73192C14.415 3.74488 14.425 3.75889 14.425 3.77192C14.425 3.78494 14.425 3.79885 14.425 3.81192C14.425 3.825 14.425 3.83883 14.425 3.85192L14.425 5.41192L14.425 5.42192L14.425 5.43192L14.425 5.44192L14.425 5.45192L14.425 5.46192L14.415 5.47192L14.415 5.48192L14.405 5.49192L14.405 5.50192L14.395 5.51192L14.395 5.52192L14.385 5.53192L14.375 5.54192L14.365 5.55192L14.365 5.56192L14.355 5.56192L14.345 5.57192L14.335 5.57192L14.325 5.58192L14.315 5.59192L14.305 5.59192L14.295 5.60192L14.285 5.60192L14.275 5.60192L14.265 5.60192L14.255 5.61192L14.245 5.61192L14.235 5.61192L14.225 5.61192L13.425 5.61192L13.415 5.61192L13.405 5.61192L13.395 5.61192L13.385 5.60192L13.375 5.60192L13.365 5.60192L13.355 5.60192L13.345 5.59192L13.335 5.58192L13.325 5.58192L13.315 5.57192L13.305 5.57192L13.295 5.56192L13.285 5.55192L13.275 5.54192L13.275 5.53192L13.265 5.53192L13.255 5.52192L13.255 5.51192L13.245 5.50192L13.245 5.49192L13.245 5.48192L13.235 5.48192L13.235 5.47192L13.235 5.46192L13.225 5.45192L13.225 5.44192L13.225 5.43192L13.225 5.42192L13.225 5.41192L13.225 4.25192L2.77495 4.25192L2.77495 6.40192L6.24495 6.40192C6.35495 6.40192 6.44495 6.49192 6.44495 6.60192L6.44495 7.40192L6.44495 7.41192L6.44495 7.42192L6.44495 7.43192L6.44495 7.44192L6.43495 7.45192L6.43495 7.46192L6.43495 7.47192L6.42495 7.47192L6.42495 7.48192L6.42495 7.49192L6.41495 7.50192L6.41495 7.51192L6.40495 7.52192L6.39495 7.52192L6.39495 7.53192L6.38495 7.54192L6.37495 7.55192L6.36495 7.56192L6.35495 7.56192L6.34495 7.57192L6.33495 7.57192L6.33495 7.58192L6.32495 7.58192L6.31495 7.59192L6.30495 7.59192L6.29495 7.59192L6.28495 7.59192L6.27495 7.60192L6.26495 7.60192L6.25495 7.60192L6.24495 7.60192L2.77495 7.60192L2.77495 12.6919L6.04495 12.6919C6.15495 12.6919 6.24495 12.7819 6.24495 12.8919L6.24495 13.6919L6.24495 13.7019L6.24495 13.7119L6.24495 13.7219L6.24495 13.7319L6.23495 13.7419L6.23495 13.7519L6.23495 13.7619L6.22495 13.7719L6.22495 13.7819L6.22495 13.7919L6.21495 13.7919L6.21495 13.8019L6.20495 13.8119L6.19495 13.8219L6.19495 13.8319L6.18495 13.8319L6.17495 13.8419L6.17495 13.8519L6.16495 13.8519L6.15495 13.8619L6.14495 13.8619L6.13495 13.8719L6.12495 13.8819L6.11495 13.8819L6.10495 13.8819L6.09495 13.8819L6.08495 13.8919L6.07495 13.8919L6.06495 13.8919L6.05495 13.8919L6.04495 13.8919L2.37495 13.8919C2.36186 13.8919 2.34802 13.8919 2.33495 13.8919C2.32187 13.8919 2.30797 13.8919 2.29495 13.8919C2.28192 13.8919 2.26791 13.8819 2.25495 13.8819C2.242 13.8819 2.22779 13.8819 2.21495 13.8819C2.20212 13.8819 2.19766 13.8719 2.18495 13.8719C2.17225 13.8719 2.15748 13.8619 2.14495 13.8619C2.13243 13.8619 2.11728 13.8419 2.10495 13.8419C2.09263 13.8419 2.07704 13.8319 2.06495 13.8319C2.05285 13.8319 2.04678 13.8119 2.03495 13.8119C2.02312 13.8119 2.0065 13.8019 1.99495 13.8019C1.98341 13.8019 1.97618 13.7819 1.96495 13.7819C1.95372 13.7819 1.94584 13.7619 1.93495 13.7619C1.92407 13.7619 1.90547 13.7319 1.89495 13.7319C1.88444 13.7319 1.87508 13.7119 1.86495 13.7119C1.85483 13.7119 1.83495 13.6819 1.83495 13.6819L1.80495 13.6619L1.78495 13.6319C1.78495 13.6319 1.75495 13.612 1.75495 13.6019C1.75495 13.5918 1.73495 13.5824 1.73495 13.5719C1.73495 13.5614 1.70495 13.5528 1.70495 13.5419C1.70495 13.531 1.68495 13.5132 1.68495 13.5019C1.68495 13.4907 1.66495 13.4835 1.66495 13.4719C1.66495 13.4604 1.65495 13.4438 1.65495 13.4319C1.65495 13.4201 1.63495 13.414 1.63495 13.4019C1.63495 13.3898 1.62495 13.3743 1.62495 13.3619C1.62495 13.3496 1.60495 13.3344 1.60495 13.3219C1.60495 13.3094 1.59495 13.3046 1.59495 13.2919C1.59495 13.2792 1.59495 13.2648 1.59495 13.2519C1.59495 13.2391 1.58495 13.2249 1.58495 13.2119C1.58495 13.199 1.57495 13.1849 1.57495 13.1719C1.57495 13.1589 1.57495 13.145 1.57495 13.1319C1.57495 13.1188 1.57495 13.105 1.57495 13.0919L1.57495 3.85192C1.57495 3.83883 1.57495 3.825 1.57495 3.81192C1.57495 3.79885 1.57495 3.78494 1.57495 3.77192C1.57495 3.75889 1.58495 3.74488 1.58495 3.73192C1.58495 3.71897 1.59495 3.70477 1.59495 3.69192C1.59495 3.6791 1.59495 3.66463 1.59495 3.65192C1.59495 3.63922 1.60495 3.62446 1.60495 3.61192C1.60495 3.59941 1.62495 3.59425 1.62495 3.58192C1.62495 3.5696 1.63495 3.55402 1.63495 3.54192C1.63495 3.52982 1.65495 3.51376 1.65495 3.50192C1.65495 3.49009 1.66495 3.48348 1.66495 3.47192C1.66495 3.46038 1.68495 3.44315 1.68495 3.43192C1.68495 3.42069 1.70495 3.41281 1.70495 3.40192C1.70495 3.39104 1.73495 3.38244 1.73495 3.37192C1.73495 3.36141 1.75495 3.35205 1.75495 3.34192C1.75495 3.3318 1.78495 3.31192 1.78495 3.31192L1.80495 3.28192L1.83495 3.25192C1.83495 3.25192 1.85483 3.23192 1.86495 3.23192C1.87508 3.23192 1.88444 3.20192 1.89495 3.20192C1.90547 3.20192 1.92407 3.18192 1.93495 3.18192C1.94584 3.18192 1.95372 3.16192 1.96495 3.16192C1.97618 3.16192 1.98341 3.14192 1.99495 3.14192C2.0065 3.14192 2.02312 3.12192 2.03495 3.12192C2.04678 3.12192 2.05285 3.11192 2.06495 3.11192C2.07704 3.11192 2.09263 3.09192 2.10495 3.09192C2.11728 3.09192 2.13243 3.08192 2.14495 3.08192C2.15748 3.08192 2.17225 3.07192 2.18495 3.07192C2.19766 3.07192 2.20212 3.06192 2.21495 3.06192C2.22779 3.06192 2.242 3.05192 2.25495 3.05192C2.26791 3.05192 2.28192 3.05192 2.29495 3.05192C2.30797 3.05192 2.32187 3.05192 2.33495 3.05192C2.34802 3.05192 2.36186 3.05192 2.37495 3.05192L4.40495 3.05192ZM11.415 14.5619C11.3487 14.5619 11.2812 14.5519 11.215 14.5519C11.1487 14.5519 11.0809 14.5419 11.015 14.5419C10.949 14.5419 10.8805 14.5119 10.815 14.5119C10.7494 14.5119 10.68 14.4948 10.615 14.4819C10.5499 14.469 10.4892 14.458 10.425 14.4419C10.3607 14.4258 10.2984 14.4012 10.235 14.3819C10.1715 14.3627 10.1074 14.3443 10.045 14.3219C9.98254 14.2996 9.92619 14.2773 9.86495 14.2519C9.80372 14.2266 9.73487 14.2003 9.67495 14.1719C9.61503 14.1436 9.5634 14.1132 9.50495 14.0819C9.4465 14.0507 9.38179 14.016 9.32495 13.9819C9.26809 13.9478 9.21006 13.9188 9.15495 13.8819C9.09984 13.8451 9.04819 13.8014 8.99495 13.7619C8.94172 13.7224 8.89618 13.684 8.84495 13.6419C8.79372 13.5999 8.74406 13.5564 8.69495 13.5119C8.64584 13.4674 8.59181 13.4188 8.54495 13.3719C8.49809 13.3251 8.44947 13.281 8.40495 13.2319C8.36044 13.1828 8.317 13.1332 8.27495 13.0819C8.2329 13.0307 8.19444 12.9752 8.15495 12.9219C8.11547 12.8687 8.08178 12.817 8.04495 12.7619C8.00812 12.7068 7.96903 12.6488 7.93495 12.5919C7.90087 12.5351 7.86619 12.4804 7.83495 12.4219C7.8037 12.3635 7.77328 12.3018 7.74495 12.2419C7.71661 12.182 7.69031 12.1232 7.66495 12.0619C7.63959 12.0007 7.61728 11.9343 7.59495 11.8719C7.57262 11.8095 7.55419 11.7453 7.53495 11.6819C7.51572 11.6185 7.50106 11.5562 7.48495 11.4919C7.46884 11.4276 7.44789 11.3669 7.43495 11.3019C7.42203 11.2369 7.40495 11.1675 7.40495 11.1019C7.40495 11.0363 7.37495 10.9679 7.37495 10.9019C7.37495 10.836 7.36495 10.7781 7.36495 10.7119C7.36495 10.6457 7.36495 10.5782 7.36495 10.5119C7.36495 10.4456 7.36495 10.3781 7.36495 10.3119C7.36495 10.2457 7.37495 10.1779 7.37495 10.1119C7.37495 10.046 7.40495 9.9775 7.40495 9.91192C7.40495 9.84636 7.42203 9.78692 7.43495 9.72192C7.44789 9.65691 7.46884 9.58622 7.48495 9.52192C7.50106 9.45763 7.51572 9.39535 7.53495 9.33192C7.55419 9.2685 7.57262 9.20433 7.59495 9.14192C7.61728 9.07952 7.63959 9.02316 7.66495 8.96192C7.69031 8.90069 7.71661 8.84185 7.74495 8.78193C7.77328 8.722 7.8037 8.66038 7.83495 8.60192C7.86619 8.54347 7.90087 8.48877 7.93495 8.43192C7.96903 8.37506 8.00812 8.31703 8.04495 8.26192C8.08178 8.20682 8.11547 8.15516 8.15495 8.10192C8.19444 8.04869 8.2329 7.99316 8.27495 7.94192C8.317 7.89069 8.36044 7.84103 8.40495 7.79192C8.44947 7.74282 8.49809 7.68878 8.54495 7.64192C8.59181 7.59507 8.64584 7.55644 8.69495 7.51192C8.74406 7.46741 8.79372 7.42397 8.84495 7.38192C8.89618 7.33988 8.94172 7.30141 8.99495 7.26192C9.04819 7.22244 9.09984 7.17875 9.15495 7.14192C9.21006 7.1051 9.26809 7.066 9.32495 7.03192C9.38179 6.99785 9.4465 6.97316 9.50495 6.94192C9.5634 6.91067 9.61503 6.88025 9.67495 6.85192C9.73487 6.82358 9.80372 6.79728 9.86495 6.77192C9.92619 6.74656 9.98254 6.71425 10.045 6.69192C10.1074 6.6696 10.1715 6.65116 10.235 6.63192C10.2984 6.61269 10.3607 6.59803 10.425 6.58192C10.4892 6.56581 10.5499 6.55486 10.615 6.54192C10.68 6.529 10.7494 6.50192 10.815 6.50192C10.8805 6.50192 10.949 6.48192 11.015 6.48192C11.0809 6.48192 11.1487 6.46192 11.215 6.46192C11.2812 6.46192 11.3487 6.46192 11.415 6.46192C11.4812 6.46192 11.5387 6.46192 11.605 6.46192C11.6712 6.46192 11.739 6.48192 11.805 6.48192C11.8709 6.48192 11.9394 6.50192 12.005 6.50192C12.0705 6.50192 12.14 6.529 12.205 6.54192C12.27 6.55486 12.3307 6.56581 12.395 6.58192C12.4592 6.59803 12.5215 6.61269 12.585 6.63192C12.6484 6.65116 12.7125 6.6696 12.775 6.69192C12.8374 6.71425 12.8937 6.74656 12.955 6.77192C13.0162 6.79728 13.085 6.82358 13.145 6.85192C13.2049 6.88025 13.2565 6.91067 13.315 6.94192C13.3734 6.97316 13.4381 6.99785 13.495 7.03192C13.5518 7.066 13.6098 7.1051 13.665 7.14192C13.7201 7.17875 13.7717 7.22244 13.825 7.26192C13.8782 7.30141 13.9237 7.33988 13.975 7.38192C14.0262 7.42397 14.0758 7.46741 14.125 7.51192C14.1741 7.55644 14.2281 7.59507 14.275 7.64192C14.3218 7.68878 14.3704 7.74282 14.415 7.79192C14.4595 7.84103 14.5029 7.89069 14.545 7.94192C14.587 7.99316 14.6255 8.04869 14.665 8.10192C14.7044 8.15516 14.7381 8.20682 14.775 8.26192C14.8118 8.31703 14.8509 8.37506 14.885 8.43192C14.919 8.48877 14.9537 8.54347 14.985 8.60192C15.0162 8.66038 15.0466 8.722 15.075 8.78193C15.1033 8.84185 15.1296 8.90069 15.155 8.96192C15.1803 9.02316 15.2026 9.07952 15.225 9.14192C15.2473 9.20433 15.2657 9.2685 15.285 9.33192C15.3042 9.39535 15.3188 9.45763 15.335 9.52192C15.3511 9.58622 15.372 9.65691 15.385 9.72192C15.3979 9.78692 15.415 9.84636 15.415 9.91192C15.415 9.9775 15.445 10.046 15.445 10.1119C15.445 10.1779 15.455 10.2457 15.455 10.3119C15.455 10.3781 15.465 10.4456 15.465 10.5119C15.465 10.5782 15.455 10.6457 15.455 10.7119C15.455 10.7781 15.445 10.836 15.445 10.9019C15.445 10.9679 15.415 11.0364 15.415 11.1019C15.415 11.1675 15.3979 11.2369 15.385 11.3019C15.372 11.3669 15.3511 11.4276 15.335 11.4919C15.3188 11.5562 15.3042 11.6185 15.285 11.6819C15.2657 11.7453 15.2473 11.8095 15.225 11.8719C15.2026 11.9343 15.1803 12.0007 15.155 12.0619C15.1296 12.1232 15.1033 12.182 15.075 12.2419C15.0466 12.3018 15.0162 12.3635 14.985 12.4219C14.9537 12.4804 14.919 12.5351 14.885 12.5919C14.8509 12.6488 14.8118 12.7068 14.775 12.7619C14.7381 12.817 14.7044 12.8687 14.665 12.9219C14.6255 12.9752 14.587 13.0307 14.545 13.0819C14.5029 13.1332 14.4595 13.1828 14.415 13.2319C14.3704 13.281 14.3218 13.3251 14.275 13.3719C14.2281 13.4188 14.1741 13.4674 14.125 13.5119C14.0758 13.5564 14.0262 13.5999 13.975 13.6419C13.9237 13.684 13.8782 13.7224 13.825 13.7619C13.7717 13.8014 13.7201 13.8451 13.665 13.8819C13.6098 13.9188 13.5518 13.9478 13.495 13.9819C13.4381 14.016 13.3734 14.0507 13.315 14.0819C13.2565 14.1132 13.2049 14.1436 13.145 14.1719C13.085 14.2003 13.0162 14.2266 12.955 14.2519C12.8937 14.2773 12.8374 14.2996 12.775 14.3219C12.7125 14.3443 12.6484 14.3627 12.585 14.3819C12.5215 14.4012 12.4592 14.4258 12.395 14.4419C12.3307 14.458 12.27 14.469 12.205 14.4819C12.14 14.4949 12.0705 14.5119 12.005 14.5119C11.9394 14.5119 11.8709 14.5419 11.805 14.5419C11.739 14.5419 11.6712 14.5519 11.605 14.5519C11.5387 14.5519 11.4812 14.5619 11.415 14.5619ZM11.415 13.4619C11.4632 13.4619 11.5067 13.4519 11.555 13.4519C11.6032 13.4519 11.6469 13.4419 11.695 13.4419C11.743 13.4419 11.7972 13.4319 11.845 13.4319C11.8927 13.4319 11.9376 13.4019 11.985 13.4019C12.0323 13.4019 12.0781 13.3837 12.125 13.3719C12.1718 13.3602 12.2187 13.3459 12.265 13.3319C12.3112 13.3179 12.3595 13.3082 12.405 13.2919C12.4504 13.2757 12.4904 13.2504 12.535 13.2319C12.5796 13.2135 12.6313 13.1926 12.675 13.1719C12.7186 13.1513 12.7624 13.1347 12.805 13.1119C12.8475 13.0892 12.8835 13.0668 12.925 13.0419C12.9664 13.0171 13.0048 12.9888 13.045 12.9619C13.0851 12.9351 13.1262 12.9107 13.165 12.8819C13.2037 12.8532 13.2476 12.8226 13.285 12.7919C13.3223 12.7613 13.3592 12.7243 13.395 12.6919C13.4307 12.6595 13.4608 12.6261 13.495 12.5919C13.5291 12.5578 13.5625 12.5277 13.595 12.4919C13.6274 12.4562 13.6643 12.4193 13.695 12.3819C13.7256 12.3446 13.7462 12.3107 13.775 12.2719C13.8037 12.2331 13.8381 12.1921 13.865 12.1519C13.8918 12.1118 13.9201 12.0633 13.945 12.0219C13.9698 11.9805 13.9922 11.9445 14.015 11.9019C14.0377 11.8593 14.0543 11.8156 14.075 11.7719C14.0956 11.7283 14.1165 11.6865 14.135 11.6419C14.1534 11.5973 14.1687 11.5474 14.185 11.5019C14.2012 11.4565 14.2209 11.4081 14.235 11.3619C14.249 11.3157 14.2632 11.2688 14.275 11.2219C14.2867 11.1751 14.305 11.1293 14.305 11.0819C14.305 11.0346 14.325 10.9897 14.325 10.9419C14.325 10.8942 14.345 10.85 14.345 10.8019C14.345 10.7539 14.355 10.7001 14.355 10.6519C14.355 10.6037 14.365 10.5602 14.365 10.5119C14.365 10.4636 14.355 10.4101 14.355 10.3619C14.355 10.3137 14.345 10.27 14.345 10.2219C14.345 10.1739 14.325 10.1297 14.325 10.0819C14.325 10.0342 14.305 9.97928 14.305 9.93192C14.305 9.88457 14.2867 9.83875 14.275 9.79193C14.2632 9.7451 14.249 9.69813 14.235 9.65192C14.2209 9.60572 14.2012 9.55738 14.185 9.51192C14.1687 9.46647 14.1534 9.42653 14.135 9.38192C14.1165 9.33732 14.0956 9.29557 14.075 9.25192C14.0543 9.20828 14.0377 9.1645 14.015 9.12193C13.9922 9.07935 13.9698 9.03335 13.945 8.99192C13.9201 8.95052 13.8918 8.91207 13.865 8.87193C13.8381 8.83178 13.8037 8.79071 13.775 8.75192C13.7462 8.71314 13.7256 8.67924 13.695 8.64192C13.6643 8.6046 13.6274 8.56769 13.595 8.53193C13.5625 8.49616 13.5291 8.45607 13.495 8.42192C13.4608 8.38778 13.4307 8.35435 13.395 8.32192C13.3592 8.2895 13.3223 8.26255 13.285 8.23193C13.2476 8.20128 13.2037 8.17069 13.165 8.14192C13.1262 8.11316 13.0851 8.08875 13.045 8.06192C13.0048 8.03511 12.9664 8.00675 12.925 7.98193C12.8835 7.9571 12.8475 7.93469 12.805 7.91192C12.7624 7.88916 12.7186 7.86257 12.675 7.84192C12.6313 7.82128 12.5796 7.80041 12.535 7.78192C12.4903 7.76346 12.4504 7.74819 12.405 7.73192C12.3595 7.71566 12.3112 7.70594 12.265 7.69192C12.2187 7.67791 12.1718 7.66366 12.125 7.65192C12.0781 7.64019 12.0323 7.61192 11.985 7.61192C11.9376 7.61192 11.8927 7.59192 11.845 7.59192C11.7972 7.59192 11.743 7.57192 11.695 7.57192C11.6469 7.57192 11.6032 7.56192 11.555 7.56192C11.5067 7.56192 11.4632 7.56192 11.415 7.56192C11.3667 7.56192 11.3132 7.56192 11.265 7.56192C11.2167 7.56192 11.173 7.57192 11.125 7.57192C11.0769 7.57192 11.0227 7.59192 10.975 7.59192C10.9272 7.59192 10.8823 7.61192 10.835 7.61192C10.7876 7.61192 10.7418 7.64019 10.695 7.65192C10.6481 7.66366 10.6012 7.67791 10.555 7.69192C10.5087 7.70594 10.4604 7.71566 10.415 7.73192C10.3695 7.74819 10.3296 7.76346 10.285 7.78192C10.2403 7.80041 10.1886 7.82128 10.145 7.84192C10.1013 7.86257 10.0575 7.88916 10.015 7.91192C9.97237 7.93469 9.93637 7.9571 9.89495 7.98193C9.85355 8.00674 9.81509 8.0351 9.77495 8.06192C9.73481 8.08875 9.69373 8.11316 9.65495 8.14192C9.61617 8.17069 9.57226 8.20128 9.53495 8.23193C9.49762 8.26255 9.46072 8.2895 9.42495 8.32192C9.38918 8.35435 9.35909 8.38778 9.32495 8.42192C9.29081 8.45607 9.25737 8.49614 9.22495 8.53193C9.19253 8.56769 9.15558 8.60461 9.12495 8.64192C9.09431 8.67925 9.07372 8.71314 9.04495 8.75192C9.01619 8.79071 8.98178 8.83178 8.95495 8.87193C8.92812 8.91207 8.89976 8.95052 8.87495 8.99192C8.85012 9.03335 8.82772 9.07935 8.80495 9.12193C8.78219 9.1645 8.76559 9.20828 8.74495 9.25192C8.72431 9.29557 8.70344 9.33732 8.68495 9.38192C8.66648 9.42653 8.65122 9.46647 8.63495 9.51192C8.61869 9.55738 8.59897 9.60572 8.58495 9.65192C8.57094 9.69813 8.55669 9.7451 8.54495 9.79193C8.53322 9.83875 8.51495 9.88457 8.51495 9.93192C8.51495 9.97928 8.49495 10.0342 8.49495 10.0819C8.49495 10.1297 8.47495 10.1739 8.47495 10.2219C8.47495 10.27 8.46495 10.3137 8.46495 10.3619C8.46495 10.4101 8.46495 10.4636 8.46495 10.5119C8.46495 10.5602 8.46495 10.6037 8.46495 10.6519C8.46495 10.7001 8.47495 10.7539 8.47495 10.8019C8.47495 10.85 8.49495 10.8942 8.49495 10.9419C8.49495 10.9897 8.51495 11.0346 8.51495 11.0819C8.51495 11.1293 8.53322 11.1751 8.54495 11.2219C8.55669 11.2688 8.57094 11.3157 8.58495 11.3619C8.59897 11.4081 8.61869 11.4565 8.63495 11.5019C8.65122 11.5474 8.66648 11.5973 8.68495 11.6419C8.70344 11.6865 8.72431 11.7283 8.74495 11.7719C8.76559 11.8156 8.78219 11.8593 8.80495 11.9019C8.82772 11.9445 8.85012 11.9805 8.87495 12.0219C8.89976 12.0633 8.92812 12.1118 8.95495 12.1519C8.98178 12.1921 9.01619 12.2331 9.04495 12.2719C9.07372 12.3107 9.09431 12.3446 9.12495 12.3819C9.15558 12.4193 9.19253 12.4562 9.22495 12.4919C9.25737 12.5277 9.29081 12.5578 9.32495 12.5919C9.35909 12.6261 9.38918 12.6595 9.42495 12.6919C9.46072 12.7243 9.49762 12.7613 9.53495 12.7919C9.57226 12.8226 9.61617 12.8532 9.65495 12.8819C9.69373 12.9107 9.73481 12.9351 9.77495 12.9619C9.81509 12.9888 9.85355 13.0171 9.89495 13.0419C9.93637 13.0668 9.97237 13.0892 10.015 13.1119C10.0575 13.1347 10.1013 13.1513 10.145 13.1719C10.1886 13.1926 10.2403 13.2135 10.285 13.2319C10.3296 13.2504 10.3695 13.2757 10.415 13.2919C10.4604 13.3082 10.5087 13.3179 10.555 13.3319C10.6012 13.3459 10.6481 13.3602 10.695 13.3719C10.7418 13.3837 10.7876 13.4019 10.835 13.4019C10.8823 13.4019 10.9272 13.4319 10.975 13.4319C11.0227 13.4319 11.0769 13.4419 11.125 13.4419C11.173 13.4419 11.2167 13.4519 11.265 13.4519C11.3132 13.4519 11.3667 13.4619 11.415 13.4619ZM11.535 11.0119L11.535 11.0219L11.525 11.0319L11.515 11.0319L11.505 11.0419L11.495 11.0419L11.485 11.0419L11.475 11.0519L11.465 11.0519L11.455 11.0619L11.445 11.0619L11.435 11.0619L11.425 11.0619L11.415 11.0619L11.405 11.0619L11.395 11.0619L11.385 11.0619L11.375 11.0519L11.365 11.0519L11.355 11.0519L11.345 11.0519L11.335 11.0419L11.325 11.0419L11.315 11.0319L11.305 11.0319L11.305 11.0219L11.295 11.0219L11.285 11.0119L11.275 11.0019L11.265 10.9919L11.255 10.9819L10.755 10.3619L10.755 10.3519L10.745 10.3419L10.745 10.3319L10.735 10.3319L10.735 10.3219L10.725 10.3119L10.725 10.3019L10.725 10.2919L10.725 10.2819L10.715 10.2719L10.715 10.2619L10.715 10.2519L10.715 10.2419L10.715 10.2319L10.715 10.2219L10.715 10.2119L10.715 10.2019L10.715 10.1919L10.725 10.1819L10.725 10.1719L10.725 10.1619L10.735 10.1519L10.745 10.1419L10.745 10.1319L10.755 10.1219L10.755 10.1119L10.765 10.1019L10.775 10.0919L10.785 10.0819L10.795 10.0819L12.275 8.90192L12.275 8.89192L12.285 8.89192L12.295 8.88192L12.305 8.88192L12.315 8.87193L12.325 8.87193L12.335 8.86193L12.345 8.86193L12.355 8.86193L12.365 8.86193L12.375 8.85192L12.385 8.85192L12.395 8.85192L12.405 8.85192L12.415 8.86193L12.425 8.86193L12.435 8.86193L12.445 8.86193L12.455 8.86193L12.465 8.87193L12.475 8.87193L12.485 8.87193L12.495 8.88192L12.505 8.88192L12.505 8.89192L12.515 8.89192L12.525 8.90192L12.535 8.91192L12.545 8.92192L12.555 8.93192L13.055 9.55192L13.055 9.56192L13.065 9.57192L13.065 9.58192L13.075 9.59192L13.075 9.60192L13.085 9.61193L13.085 9.62193L13.085 9.63192L13.095 9.64192L13.095 9.65192L13.095 9.66192L13.095 9.67192L13.095 9.68192L13.095 9.69193L13.095 9.70193L13.095 9.71192L13.085 9.72192L13.085 9.73193L13.085 9.74192L13.085 9.75192L13.075 9.76192L13.075 9.77192L13.065 9.78193L13.055 9.79193L13.055 9.80192L13.045 9.81192L13.045 9.82192L13.035 9.82192L13.025 9.83192L13.015 9.83192L11.535 11.0119Z"   fill="#8a8a8a" ></path></svg>