<svg xmlns="http://www.w3.org/2000/svg" xmlns:xlink="http://www.w3.org/1999/xlink" width="24" height="24" viewBox="0 0 24 24" fill="none">
<path d="M12 18.4C7.80003 18.4 3.80002 16.1 1.60003 12.3L1.40002 12L1.50003 11.7C3.80002 7.99998 7.80003 5.59998 12 5.59998C16.2 5.59998 20.2 7.89999 22.4 11.7L22.5 12L22.4 12.3C20.2 16 16.2 18.4 12 18.4ZM2.60002 12C4.70002 15.4 8.20004 17.4 12 17.4C15.8 17.4 19.4 15.4 21.4 12C19.3 8.59998 15.8 6.59998 12 6.59998C8.20004 6.59998 4.60004 8.59998 2.60002 12Z"   fill="#000000" >
</path>
<path d="M12 15.6C10 15.6 8.40002 14 8.40002 12C8.40002 10 10 8.40002 12 8.40002C14 8.40002 15.6 10 15.6 12C15.6 14 14 15.6 12 15.6ZM12 9.40003C10.6 9.40003 9.40003 10.6 9.40003 12C9.40003 13.4 10.6 14.6 12 14.6C13.4 14.6 14.6 13.4 14.6 12C14.6 10.6 13.4 9.40003 12 9.40003Z"   fill="#0063B1" >
</path>
</svg>
