<svg xmlns="http://www.w3.org/2000/svg" xmlns:xlink="http://www.w3.org/1999/xlink" width="24" height="24" viewBox="0 0 24 24" fill="none">
<path d="M17.24 21.2L17.24 18.98L6.76004 18.98L6.76004 21.2L5.76004 21.2L5.76004 15.63L4.31004 15.63C4.27907 15.63 4.251 15.62 4.22004 15.62C4.1891 15.62 4.16087 15.62 4.13004 15.62C4.09921 15.62 4.06069 15.61 4.03004 15.61C3.9994 15.61 3.97043 15.59 3.94004 15.59C3.90966 15.59 3.8801 15.57 3.85004 15.57C3.81999 15.57 3.78969 15.55 3.76004 15.55C3.7304 15.55 3.69921 15.5304 3.67004 15.52C3.64087 15.5096 3.61867 15.4918 3.59004 15.48C3.56142 15.4681 3.52805 15.4533 3.50004 15.44C3.47204 15.4267 3.44737 15.4146 3.42004 15.4C3.39272 15.3854 3.36662 15.3759 3.34004 15.36C3.31347 15.3441 3.2958 15.3272 3.27004 15.31C3.24428 15.2928 3.21493 15.2685 3.19004 15.25C3.16516 15.2315 3.14399 15.2097 3.12004 15.19C3.0961 15.1703 3.073 15.1608 3.05004 15.14C3.02709 15.1192 3.00195 15.1019 2.98004 15.08C2.95814 15.0581 2.93085 15.033 2.91004 15.01C2.88924 14.987 2.8697 14.964 2.85004 14.94C2.83039 14.9161 2.8085 14.8949 2.79004 14.87C2.77159 14.8451 2.75726 14.8157 2.74004 14.79C2.72283 14.7643 2.70597 14.7366 2.69004 14.71C2.67412 14.6834 2.65465 14.6573 2.64004 14.63C2.62544 14.6027 2.61329 14.578 2.60004 14.55C2.5868 14.522 2.5719 14.4886 2.56004 14.46C2.54819 14.4314 2.54048 14.3992 2.53004 14.37C2.51961 14.3408 2.50004 14.3196 2.50004 14.29C2.50004 14.2604 2.48004 14.2301 2.48004 14.2C2.48004 14.17 2.46004 14.1304 2.46004 14.1C2.46004 14.0696 2.44004 14.0407 2.44004 14.01C2.44004 13.9793 2.43004 13.9508 2.43004 13.92C2.43004 13.8892 2.42004 13.861 2.42004 13.83C2.42004 13.7991 2.42004 13.761 2.42004 13.73L2.42004 6.17C2.42004 6.13901 2.42004 6.11094 2.42004 6.08C2.42004 6.04906 2.43004 6.01084 2.43004 5.98C2.43004 5.94918 2.44004 5.92065 2.44004 5.89C2.44004 5.85936 2.46004 5.83039 2.46004 5.8C2.46004 5.76961 2.48004 5.74005 2.48004 5.71C2.48004 5.67995 2.50004 5.64965 2.50004 5.62C2.50004 5.59035 2.51961 5.55918 2.53004 5.53C2.54048 5.50082 2.54819 5.46862 2.56004 5.44C2.5719 5.41138 2.5868 5.388 2.60004 5.36C2.61329 5.332 2.62544 5.29733 2.64004 5.27C2.65465 5.24267 2.67412 5.21657 2.69004 5.19C2.70597 5.16343 2.72283 5.13575 2.74004 5.11C2.75726 5.08423 2.77159 5.06488 2.79004 5.04C2.8085 5.01512 2.83039 4.98395 2.85004 4.96C2.8697 4.93606 2.88924 4.91296 2.91004 4.89C2.93085 4.86704 2.95814 4.84192 2.98004 4.82C3.00195 4.7981 3.02709 4.78081 3.05004 4.76C3.073 4.73919 3.0961 4.71965 3.12004 4.7C3.14399 4.68035 3.16516 4.65846 3.19004 4.64C3.21493 4.62154 3.24428 4.60722 3.27004 4.59C3.2958 4.57278 3.31347 4.56592 3.34004 4.55C3.36662 4.53408 3.39272 4.51461 3.42004 4.5C3.44737 4.4854 3.47204 4.47325 3.50004 4.46C3.52805 4.44675 3.56142 4.43184 3.59004 4.42C3.61867 4.40814 3.64087 4.40043 3.67004 4.39C3.69921 4.37957 3.7304 4.36 3.76004 4.36C3.78969 4.36 3.81999 4.33 3.85004 4.33C3.8801 4.33 3.90966 4.31 3.94004 4.31C3.97043 4.31 3.9994 4.3 4.03004 4.3C4.06069 4.3 4.09921 4.29 4.13004 4.29C4.16087 4.29 4.1891 4.28 4.22004 4.28C4.251 4.28 4.27907 4.28 4.31004 4.28L5.76004 4.28L5.76004 2.55L5.76004 2.52L5.76004 2.5L5.76004 2.47L5.76004 2.45L5.77004 2.42L5.77004 2.39L5.78004 2.37L5.79004 2.34L5.80004 2.32L5.81004 2.29L5.82004 2.27L5.83004 2.25L5.84004 2.23L5.86004 2.2L5.88004 2.18L5.89004 2.16L5.91004 2.15L5.93004 2.13L5.95004 2.11L5.97004 2.09L5.99004 2.08L6.01004 2.07L6.04004 2.05L6.06004 2.04L6.09004 2.03L6.11004 2.02L6.14004 2.02L6.16004 2.01L6.19004 2.01L6.21004 2L6.24004 2L6.26004 2L6.29004 2L6.32004 2L6.34004 2.01L6.37004 2.01L6.39004 2.02L6.42004 2.02L6.44004 2.03L6.47004 2.04L6.49004 2.05L6.52004 2.07L6.54004 2.08L6.56004 2.09L6.58004 2.11L6.60004 2.13L6.62004 2.15L6.64004 2.16L6.65004 2.18L6.67004 2.2L6.69004 2.23L6.70004 2.25L6.71004 2.27L6.72004 2.29L6.72004 2.32L6.73004 2.34L6.74004 2.37L6.75004 2.39L6.75004 2.42L6.76004 2.45L6.76004 2.47L6.76004 2.5L6.76004 2.52L6.76004 2.55L6.76004 4.28L17.24 4.28L17.24 2.55L17.24 2.52L17.23 2.5L17.24 2.47L17.24 2.45L17.24 2.42L17.25 2.39L17.25 2.37L17.26 2.34L17.27 2.32L17.28 2.29L17.29 2.27L17.3 2.25L17.32 2.23L17.32 2.2L17.34 2.18L17.36 2.16L17.37 2.15L17.39 2.13L17.41 2.11L17.43 2.09L17.46 2.08L17.48 2.07L17.5 2.05L17.53 2.04L17.55 2.03L17.57 2.02L17.6 2.02L17.63 2.01L17.65 2.01L17.68 2L17.7 2L17.73 2L17.76 2L17.78 2L17.81 2.01L17.83 2.01L17.86 2.02L17.88 2.02L17.91 2.03L17.93 2.04L17.96 2.05L17.98 2.07L18 2.08L18.02 2.09L18.04 2.11L18.06 2.13L18.08 2.15L18.1 2.16L18.12 2.18L18.13 2.2L18.15 2.23L18.16 2.25L18.18 2.27L18.19 2.29L18.2 2.32L18.21 2.34L18.21 2.37L18.22 2.39L18.23 2.42L18.23 2.45L18.23 2.47L18.23 2.5L18.23 2.52L18.23 2.55L18.23 4.28L19.68 4.28C19.711 4.28 19.7391 4.28 19.77 4.28C19.801 4.28 19.8392 4.29 19.87 4.29C19.9009 4.29 19.9294 4.3 19.96 4.3C19.9907 4.3 20.0197 4.31 20.05 4.31C20.0804 4.31 20.11 4.33 20.14 4.33C20.1701 4.33 20.2004 4.36 20.23 4.36C20.2597 4.36 20.2909 4.37957 20.32 4.39C20.3492 4.40043 20.3814 4.40814 20.41 4.42C20.4387 4.43184 20.462 4.44675 20.49 4.46C20.518 4.47325 20.5527 4.4854 20.58 4.5C20.6074 4.51461 20.6335 4.53408 20.66 4.55C20.6866 4.56592 20.7143 4.57278 20.74 4.59C20.7658 4.60722 20.7752 4.62154 20.8 4.64C20.8249 4.65846 20.8561 4.68035 20.88 4.7C20.904 4.71965 20.9271 4.73919 20.95 4.76C20.973 4.78081 20.9981 4.7981 21.02 4.82C21.0419 4.84192 21.0592 4.86704 21.08 4.89C21.1009 4.91296 21.1204 4.93606 21.14 4.96C21.1597 4.98395 21.1816 5.01512 21.2 5.04C21.2185 5.06488 21.2329 5.08423 21.25 5.11C21.2673 5.13575 21.2841 5.16343 21.3 5.19C21.316 5.21657 21.3354 5.24267 21.35 5.27C21.3647 5.29733 21.3768 5.332 21.39 5.36C21.4033 5.388 21.4181 5.41138 21.43 5.44C21.442 5.46862 21.4496 5.50082 21.46 5.53C21.4705 5.55918 21.49 5.59035 21.49 5.62C21.49 5.64965 21.52 5.67995 21.52 5.71C21.52 5.74005 21.54 5.76961 21.54 5.8C21.54 5.83039 21.55 5.85936 21.55 5.89C21.55 5.92065 21.56 5.94918 21.56 5.98C21.56 6.01084 21.57 6.04906 21.57 6.08C21.57 6.11094 21.57 6.13901 21.57 6.17L21.57 13.73C21.57 13.761 21.57 13.7991 21.57 13.83C21.57 13.861 21.56 13.8892 21.56 13.92C21.56 13.9508 21.55 13.9793 21.55 14.01C21.55 14.0407 21.54 14.0696 21.54 14.1C21.54 14.1304 21.52 14.17 21.52 14.2C21.52 14.2301 21.49 14.2604 21.49 14.29C21.49 14.3196 21.4705 14.3408 21.46 14.37C21.4496 14.3992 21.442 14.4314 21.43 14.46C21.4181 14.4886 21.4033 14.522 21.39 14.55C21.3768 14.578 21.3647 14.6027 21.35 14.63C21.3354 14.6573 21.316 14.6834 21.3 14.71C21.2841 14.7366 21.2673 14.7643 21.25 14.79C21.2329 14.8157 21.2185 14.8451 21.2 14.87C21.1816 14.8949 21.1597 14.9161 21.14 14.94C21.1204 14.964 21.1009 14.987 21.08 15.01C21.0592 15.033 21.0419 15.0581 21.02 15.08C20.9981 15.1019 20.973 15.1192 20.95 15.14C20.9271 15.1608 20.904 15.1703 20.88 15.19C20.8561 15.2097 20.8249 15.2315 20.8 15.25C20.7752 15.2685 20.7658 15.2928 20.74 15.31C20.7143 15.3272 20.6866 15.3441 20.66 15.36C20.6335 15.3759 20.6074 15.3854 20.58 15.4C20.5527 15.4146 20.518 15.4267 20.49 15.44C20.462 15.4533 20.4387 15.4681 20.41 15.48C20.3814 15.4919 20.3492 15.5096 20.32 15.52C20.2909 15.5304 20.2597 15.55 20.23 15.55C20.2004 15.55 20.1701 15.57 20.14 15.57C20.11 15.57 20.0804 15.59 20.05 15.59C20.0197 15.59 19.9907 15.61 19.96 15.61C19.9294 15.61 19.9009 15.62 19.87 15.62C19.8392 15.62 19.801 15.62 19.77 15.62C19.7391 15.62 19.711 15.63 19.68 15.63L18.23 15.63L18.23 21.2L17.24 21.2ZM6.76004 17.98L17.24 17.98L17.24 15.63L6.76004 15.63L6.76004 17.98ZM17.44 14.69L19.16 14.69C19.1837 14.69 19.2064 14.69 19.23 14.69C19.2537 14.69 19.2865 14.68 19.31 14.68C19.3336 14.68 19.3566 14.67 19.38 14.67C19.4035 14.67 19.4268 14.66 19.45 14.66C19.4733 14.66 19.4971 14.64 19.52 14.64C19.543 14.64 19.5674 14.62 19.59 14.62C19.6127 14.62 19.6277 14.6 19.65 14.6C19.6723 14.6 19.6982 14.58 19.72 14.58C19.7419 14.58 19.7686 14.5601 19.79 14.55C19.8115 14.5399 19.8291 14.5311 19.85 14.52C19.871 14.5088 19.8897 14.4922 19.91 14.48C19.9304 14.4679 19.9503 14.4532 19.97 14.44C19.9897 14.4269 20.011 14.4141 20.03 14.4C20.0491 14.3859 20.0717 14.375 20.09 14.36C20.1084 14.345 20.1225 14.3259 20.14 14.31C20.1576 14.2941 20.1733 14.2767 20.19 14.26C20.2068 14.2433 20.2241 14.2275 20.24 14.21C20.256 14.1925 20.275 14.1783 20.29 14.16C20.3051 14.1417 20.3159 14.119 20.33 14.1C20.3442 14.081 20.3568 14.0597 20.37 14.04C20.3832 14.0203 20.3978 14.0003 20.41 13.98C20.4223 13.9597 20.4388 13.9409 20.45 13.92C20.4612 13.8991 20.4699 13.8814 20.48 13.86C20.4902 13.8386 20.51 13.8119 20.51 13.79C20.51 13.7681 20.54 13.7423 20.54 13.72C20.54 13.6977 20.56 13.6827 20.56 13.66C20.56 13.6374 20.58 13.613 20.58 13.59C20.58 13.567 20.59 13.5432 20.59 13.52C20.59 13.4968 20.61 13.4834 20.61 13.46C20.61 13.4366 20.61 13.4136 20.61 13.39C20.61 13.3664 20.62 13.3337 20.62 13.31C20.62 13.2864 20.62 13.2637 20.62 13.24L20.62 7.19L17.44 14.69ZM11.18 14.69L16.29 14.69L20.3 5.73L20.08 5.55C20.0641 5.5368 20.0465 5.5225 20.03 5.51C20.0136 5.49749 19.997 5.48177 19.98 5.47C19.963 5.45823 19.9475 5.45104 19.93 5.44C19.9126 5.42896 19.888 5.42026 19.87 5.41C19.8521 5.39974 19.8384 5.38 19.82 5.38C19.8017 5.38 19.7788 5.35 19.76 5.35C19.7413 5.35 19.7292 5.32 19.71 5.32C19.6909 5.32 19.6695 5.3 19.65 5.3C19.6306 5.3 19.6098 5.28 19.59 5.28C19.5703 5.28 19.55 5.26 19.53 5.26C19.5101 5.26 19.4903 5.25 19.47 5.25C19.4498 5.25 19.4304 5.24 19.41 5.24C19.3897 5.24 19.3706 5.23 19.35 5.23C19.3295 5.23 19.3007 5.22 19.28 5.22C19.2594 5.22 19.2407 5.22 19.22 5.22C19.1994 5.22 19.1807 5.22 19.16 5.22L15.5 5.22L11.18 14.69ZM4.93004 14.69L10.05 14.69L14.35 5.22L9.22004 5.22L4.93004 14.69ZM4.83004 5.22C4.80636 5.22 4.78369 5.22 4.76004 5.22C4.73638 5.22 4.70361 5.22 4.68004 5.22C4.65648 5.22 4.63348 5.23 4.61004 5.23C4.58661 5.23 4.56326 5.24 4.54004 5.24C4.51681 5.24 4.49301 5.26 4.47004 5.26C4.44708 5.26 4.4227 5.28 4.40004 5.28C4.37739 5.28 4.36233 5.3 4.34004 5.3C4.31775 5.3 4.29191 5.33 4.27004 5.33C4.24817 5.33 4.22143 5.34982 4.20004 5.36C4.17866 5.37016 4.16092 5.3788 4.14004 5.39C4.11917 5.4012 4.10033 5.41779 4.08004 5.43C4.05975 5.44221 4.03972 5.44681 4.02004 5.46C4.00037 5.4732 3.97905 5.48586 3.96004 5.5C3.94104 5.51414 3.91833 5.53493 3.90004 5.55C3.88176 5.56505 3.86757 5.58406 3.85004 5.6C3.83252 5.61594 3.81677 5.62322 3.80004 5.64C3.78332 5.65678 3.76593 5.68243 3.75004 5.7C3.73416 5.71759 3.71505 5.73167 3.70004 5.75C3.68504 5.76833 3.67413 5.79097 3.66004 5.81C3.64595 5.82905 3.63318 5.8503 3.62004 5.87C3.60691 5.8897 3.5922 5.90966 3.58004 5.93C3.56789 5.95032 3.55119 5.96909 3.54004 5.99C3.5289 6.0109 3.52015 6.02858 3.51004 6.05C3.49993 6.07142 3.48004 6.09811 3.48004 6.12C3.48004 6.14189 3.46004 6.15769 3.46004 6.18C3.46004 6.20231 3.44004 6.22732 3.44004 6.25C3.44004 6.27268 3.42004 6.28702 3.42004 6.31C3.42004 6.33298 3.40004 6.35677 3.40004 6.38C3.40004 6.40323 3.39004 6.42657 3.39004 6.45C3.39004 6.47343 3.38004 6.49643 3.38004 6.52C3.38004 6.54358 3.37004 6.56633 3.37004 6.59C3.37004 6.61365 3.37004 6.6363 3.37004 6.66L3.37004 13.24C3.37004 13.2726 3.38004 13.3075 3.38004 13.34C3.38004 13.3725 3.39004 13.4077 3.39004 13.44C3.39004 13.4723 3.40004 13.4981 3.40004 13.53C3.40004 13.5619 3.43004 13.5886 3.43004 13.62C3.43004 13.6514 3.44912 13.6893 3.46004 13.72C3.47097 13.7507 3.47707 13.7801 3.49004 13.81C3.50302 13.8399 3.51507 13.871 3.53004 13.9C3.54502 13.929 3.56314 13.9521 3.58004 13.98L3.88004 14.47L8.06004 5.22L4.83004 5.22Z"   fill="#000000" >
</path>
</svg>
