<svg xmlns="http://www.w3.org/2000/svg" xmlns:xlink="http://www.w3.org/1999/xlink" width="16" height="16"
    viewBox="0 0 16 16" fill="none">
    <path
        d="M2.66656 4.66666C2.66656 3.93028 3.26353 3.33334 3.99991 3.33334C4.73628 3.33334 5.33325 3.93028 5.33325 4.66666C5.33325 5.40303 4.73628 6 3.99991 6C3.26353 6 2.66656 5.40303 2.66656 4.66666ZM3.99991 2C2.52716 2 1.33325 3.19391 1.33325 4.66666C1.33325 6.13941 2.52716 7.33334 3.99991 7.33334C5.47266 7.33334 6.66656 6.13944 6.66656 4.66666C6.66656 3.19391 5.47266 2 3.99991 2ZM14.6666 5.33334L7.33325 5.33334L7.33325 4L14.6666 4L14.6666 5.33334ZM7.33325 10.6667L14.6666 10.6667L14.6666 12L7.33325 12L7.33325 10.6667ZM3.99991 14C5.47266 14 6.66656 12.8061 6.66656 11.3333C6.66656 9.86059 5.47266 8.66666 3.99991 8.66666C2.52716 8.66666 1.33325 9.86059 1.33325 11.3333C1.33325 12.8061 2.52716 14 3.99991 14Z"
        fill-rule="evenodd" fill="#8a8a8a">
    </path>
</svg>