<svg xmlns="http://www.w3.org/2000/svg" xmlns:xlink="http://www.w3.org/1999/xlink" width="24" height="24" viewBox="0 0 24 24" fill="none">
<path d="M3.70009 7.60011L3.20007 6.70011L11.7001 1.8001C11.9001 1.7001 12.0001 1.7001 12.2001 1.8001L20.7001 6.70011L20.2001 7.60011L12.0001 2.80011L3.70009 7.60011Z"   fill="#000000" >
</path>
<path d="M12.2999 22.1999L11.7999 21.2999L20.0999 16.5999L20.0999 7.9999L12.2999 12.3999L11.7999 11.4999L20.2999 6.59991C20.4999 6.4999 20.5999 6.4999 20.7999 6.59991C20.8999 6.7999 20.9999 6.99991 20.9999 7.0999L20.9999 16.7999C20.9999 16.9999 20.8999 17.0999 20.6999 17.1999L12.2999 22.1999Z"   fill="#000000" >
</path>
<path d="M12 22.2C11.9 22.2 11.8 22.2 11.8 22.1L3.3 17.2C3.10001 17.2 3 17.1 3 16.9L3 7.09999C3 7 3.10001 6.79999 3.19999 6.70001C3.40001 6.6 3.49999 6.6 3.70001 6.70001L12.2 11.6C12.4 11.7 12.5 11.9 12.5 12L12.5 21.7C12.5 21.9 12.4 22 12.3 22.1C12.2 22.2 12.1 22.2 12 22.2ZM4.00001 16.6L11.5 20.9L11.5 12.3L4.00001 7.99999L4.00001 16.6Z"   fill="#000000" >
</path>
<path d="M20.5 7.1001L20.5 16.9001L12 21.8001L12 18.1001L14.7 16.5001L14.7 13.7001L17.3 12.2001L17.3 9.00011L20.5 7.1001Z"   fill="#0082E6" fill-opacity="0.3">
</path>
<path d="M12 22.2C11.9 22.2 11.8 22.2 11.7 22.1C11.5 22 11.5 21.8 11.5 21.7L11.5 18C11.5 17.8 11.6 17.7 11.8 17.6L14.3 16.2L14.3 13.6C14.3 13.4 14.4 13.3 14.6 13.2L16.9 11.9L16.9 8.99999C16.9 8.80001 17 8.7 17.1 8.59999L20.4 6.70001C20.6 6.6 20.7 6.6 20.9 6.70001C20.9 6.79999 21 7 21 7.09999L21 16.8C21 17 20.9 17.1 20.7 17.2L12.2 22.1C12.2 22.2 12.1 22.2 12 22.2ZM12.5 18.4L12.5 20.9L20 16.6L20 7.99999L17.7 9.29999L17.7 12.2C17.7 12.4 17.6 12.5 17.4 12.6L15.1 13.9L15.1 16.5C15.1 16.7 15 16.8 14.8 16.9L12.5 18.4Z"   fill="#0063B1" >
</path>
</svg>
