<svg xmlns="http://www.w3.org/2000/svg" xmlns:xlink="http://www.w3.org/1999/xlink" width="24" height="24" viewBox="0 0 24 24" fill="none">
<path d="M12 20.2C11.9 20.2 11.8 20.2 11.7 20.1L2.2 14.2C2.1 14 2 13.9 2 13.7C2 13.5 2.1 13.4 2.2 13.3L6.60001 10.5C6.8 10.4 7.1 10.4 7.30002 10.7C7.4 10.9 7.4 11.2 7.1 11.4L3.40001 13.7L12 19L20.6 13.7L16.9 11.4C16.7 11.3 16.6 10.9 16.7 10.7C16.8 10.5 17.2 10.4 17.4 10.5L21.8 13.3C21.9 13.4 22 13.6 22 13.7C22 13.8 21.9 14 21.8 14.1L12.3 20C12.2 20.1 12.1 20.2 12 20.2Z"   fill="#000000" >
</path>
<path d="M12 10.9999C11.9 10.9999 11.8 10.9999 11.7 10.9L6.89998 7.79995C6.69998 7.69994 6.59998 7.59996 6.59998 7.39994C6.59998 7.19995 6.69998 7.09994 6.79997 6.99996L11.7 3.89996C11.9 3.79995 12.1 3.79995 12.2 3.89996L17.1 6.99996C17.2 7.09994 17.3 7.29996 17.3 7.39994C17.3 7.49995 17.2 7.69994 17.1 7.79995L12.2 10.9C12.2 10.9 12.1 10.9999 12 10.9999ZM8.09998 7.39994L12 9.89995L15.9 7.39994L12 4.89997L8.09998 7.39994Z"   fill="#0063B1" >
</path>
</svg>
