<svg xmlns="http://www.w3.org/2000/svg" xmlns:xlink="http://www.w3.org/1999/xlink" width="24" height="24" viewBox="0 0 24 24" fill="none">
<path d="M7.80002 21.5C7.70001 21.5 7.50002 21.5 7.40001 21.4L2.60001 16.6C2.40001 16.4 2.40001 16.1 2.60001 15.9L15.8 2.59995C16 2.39995 16.3 2.39995 16.5 2.59995L21.3 7.39995C21.5 7.59997 21.5 7.89997 21.3 8.09996L8.20003 21.4C8.10002 21.5 7.90003 21.5 7.80002 21.5ZM3.70002 16.2L7.80002 20.2999L20.3 7.79996L16.2 3.69996L3.70002 16.2Z"   fill="#000000" >
</path>
<path d="M15 8.30004C14.9 8.30004 14.7 8.30004 14.6 8.20006L12.8 6.40005C12.6 6.20003 12.6 5.90003 12.8 5.70004C13 5.50005 13.3 5.50005 13.5 5.70004L15.3 7.50004C15.5 7.70003 15.5 8.00004 15.3 8.20006C15.3 8.30004 15.1 8.30004 15 8.30004ZM7.80002 15.5C7.70001 15.5 7.50002 15.5 7.40001 15.4001L5.60001 13.6001C5.40001 13.4 5.40001 13.1 5.60001 12.9C5.80002 12.7001 6.10002 12.7001 6.30001 12.9L8.10002 14.7C8.30001 14.9 8.30001 15.2 8.10002 15.4001C8.10002 15.5 7.90003 15.5 7.80002 15.5ZM10.2 13.1C10.1 13.1 9.90002 13.1 9.80001 13.0001L8.00001 11.2001C7.80002 11 7.80002 10.7 8.00001 10.5C8.20003 10.3001 8.50003 10.3001 8.70002 10.5L10.5 12.3C10.7 12.5 10.7 12.8 10.5 13.0001C10.5 13.1 10.3 13.1 10.2 13.1ZM13.2 11.3C13.1 11.3 12.9 11.3 12.8 11.2001L10.4 8.80006C10.2 8.60004 10.2 8.30004 10.4 8.10005C10.6 7.90006 10.9 7.90006 11.1 8.10005L13.5 10.5C13.7 10.7 13.7 11 13.5 11.2001C13.5 11.3 13.3 11.3 13.2 11.3Z"   fill="#000000" >
</path>
<path d="M12 20.5L21 20.5L21 21.5L12 21.5L12 20.5Z"   fill="#0063B1" >
</path>
</svg>
