<svg xmlns="http://www.w3.org/2000/svg" xmlns:xlink="http://www.w3.org/1999/xlink" width="16" height="16"
    viewBox="0 0 16 16" fill="none">
    <path
        d="M8.64464 12L8.64464 10.8457C9.7423 9.83787 10.5782 9.01562 11.1525 8.37891C11.6798 7.79687 12.0431 7.33006 12.2423 6.9785C12.4454 6.62694 12.547 6.28124 12.547 5.94141C12.547 5.58203 12.4239 5.29492 12.1778 5.08006C11.9005 4.84181 11.5509 4.72268 11.129 4.72266C10.5509 4.72266 9.88683 4.93165 9.13683 5.34962L8.78526 4.14256C9.60948 3.75587 10.4435 3.56252 11.2872 3.5625C12.1075 3.5625 12.756 3.74804 13.2325 4.11912C13.752 4.52537 14.0118 5.10546 14.0118 5.85938C14.0118 6.36719 13.8927 6.85156 13.6544 7.3125C13.4161 7.77344 12.9923 8.33594 12.3829 9C11.8478 9.58984 11.2403 10.1992 10.5606 10.8281L14.0763 10.8281L14.0763 12L8.64464 12ZM3.79567 12L3.79567 5.30859L2.27811 6.32812L1.65698 5.18556L3.95386 3.69725L5.20776 3.69725L5.20776 12L3.79567 12ZM7.45845 10.6979C7.3022 10.5382 7.10601 10.4583 6.86989 10.4583C6.63726 10.4583 6.44108 10.5365 6.28136 10.6927C6.12511 10.849 6.04698 11.0434 6.04698 11.276C6.04698 11.5226 6.12336 11.7257 6.27614 11.8854C6.43239 12.0417 6.63205 12.1198 6.87511 12.1198C7.10773 12.1198 7.30217 12.0417 7.45845 11.8854C7.6147 11.7257 7.69283 11.526 7.69283 11.2865C7.69283 11.0503 7.6147 10.8542 7.45845 10.6979Z"
        fill-rule="evenodd" fill="#8a8a8a">
    </path>
</svg>