<svg xmlns="http://www.w3.org/2000/svg" xmlns:xlink="http://www.w3.org/1999/xlink" width="24" height="24" viewBox="0 0 24 24" fill="none">
<path d="M12.5074 21.8506C12.8663 22.0157 13.1984 22.0736 13.4886 22.0736C13.7927 22.0736 14.0474 22.0084 14.2468 21.9324C14.6633 21.7735 14.9123 21.5344 14.938 21.5087L21.0925 15.3989L21.1222 15.3468C21.6149 14.5022 21.5878 13.8464 21.479 13.444C21.3658 13.0255 21.1503 12.7863 21.0776 12.7156L18.6916 10.2181L21.7168 7.07397L21.7466 7.04424L21.7689 7.01451C22.3504 6.17147 22.3024 5.51677 22.1628 5.11911C22.0316 4.74514 21.794 4.52319 21.6945 4.44271L19.9404 2.69598L19.8958 2.66624C19.1198 2.17764 18.4491 2.20536 18.0227 2.3169C17.5576 2.43856 17.2804 2.68339 17.2497 2.71084L17.2348 2.71827L14.165 5.81781L11.6452 3.21628L11.6229 3.19398C10.6037 2.37864 9.22089 3.06764 9.16263 3.09735L9.09573 3.13452L2.82234 9.38561L2.8149 9.40048C2.29886 9.95253 2.12713 10.6407 2.33176 11.3925C2.47412 11.9155 2.75441 12.2815 2.78517 12.3216L2.80004 12.3439L12.4331 21.8135L12.5074 21.8506ZM17.7625 17.4057L6.94761 6.5834L9.63833 3.90011C9.84603 3.81144 10.5514 3.54844 11.0209 3.90011L14.1427 7.126L14.6258 6.67259L17.8666 3.4021C17.9034 3.37371 18.0622 3.25514 18.2977 3.20142C18.6372 3.12393 18.9912 3.20262 19.3606 3.4244L21.0553 5.11911L21.0776 5.14141L21.1148 5.16371C21.1378 5.18278 21.2497 5.28362 21.3006 5.46103C21.3775 5.72844 21.2835 6.07276 21.0256 6.45704L17.4057 10.2107L20.4087 13.3622L20.4161 13.3622L20.431 13.3771C20.4524 13.4004 20.5561 13.5229 20.6019 13.7339C20.6694 14.045 20.5848 14.4248 20.3566 14.834L17.7625 17.4057ZM14.2913 20.8546C14.2913 20.8546 13.759 21.3656 12.9609 21.0405L10.9688 19.0782L12.7156 17.3389L12.0615 16.6848L10.3147 18.4315L8.38217 16.5361L11.1101 13.8008L10.456 13.1467L7.72064 15.882L5.78064 13.9792L7.53481 12.2324L6.88072 11.5783L5.12654 13.3325L3.49873 11.7344C3.45207 11.6665 3.31029 11.4381 3.23115 11.1472C3.11256 10.7115 3.19443 10.3452 3.48387 10.0323L6.28608 7.2375L17.1084 18.0524L14.2913 20.8546Z" fill-rule="evenodd"  fill="#000000" >
</path>
<path d="M12.9899 21.0374C13.7921 21.3642 14.3249 20.8499 14.3249 20.8499L17.3699 17.8274C6.555 6.90097 6.5549 6.8999 6.5549 6.8999L3.4649 9.9824C3.17398 10.2969 3.08321 10.6619 3.2024 11.0999C3.28195 11.3922 3.4405 11.6166 3.4874 11.6849L12.9899 21.0374Z"   fill="#0082E6" fill-opacity="0.3">
</path>
</svg>
