<svg xmlns="http://www.w3.org/2000/svg" xmlns:xlink="http://www.w3.org/1999/xlink" width="24" height="24" viewBox="0 0 24 24" fill="none">
<path d="M10.3 22C10.2 22 10.1 22 10.1 21.8999L3.3 17.9999C3.10001 17.8999 3 17.7999 3 17.5999L3 9.79994C3 9.59995 3.10001 9.49994 3.19999 9.39996C3.40001 9.29995 3.49999 9.29995 3.70001 9.39996L10.5 13.3C10.7 13.3999 10.8 13.6 10.8 13.6999L10.8 21.4999C10.8 21.7 10.7 21.7999 10.6 21.8999C10.5 21.8999 10.4 22 10.3 22ZM4.00001 17.2999L9.79999 20.5999L9.79999 13.9999L4.00001 10.6999L4.00001 17.2999ZM13.7 22C13.6 22 13.5 22 13.4 21.8999C13.2 21.7999 13.2 21.5999 13.2 21.4999L13.2 13.6999C13.2 13.4999 13.3 13.3999 13.5 13.3L20.3 9.39996C20.5 9.29995 20.6 9.29995 20.8 9.39996C20.9 9.49994 21 9.69996 21 9.79994L21 17.5999C21 17.7999 20.9 17.8999 20.7 17.9999L14 21.8999C13.9 21.8999 13.8 22 13.7 22ZM14.2 13.9999L14.2 20.5999L20 17.2999L20 10.6999L14.2 13.9999Z"   fill="#000000" >
</path>
<path d="M12.0001 10.7999C11.9001 10.7999 11.8001 10.7999 11.8001 10.6999L5.00007 6.8999C4.80008 6.79989 4.70007 6.5999 4.70007 6.39991C4.70007 6.19989 4.80008 6.09991 5.00007 5.9999L11.8001 2.0999C12.0001 1.9999 12.1001 1.9999 12.3001 2.0999L19.0001 5.9999C19.2001 6.09991 19.3001 6.2999 19.3001 6.39991C19.3001 6.49989 19.2001 6.79989 19.0001 6.8999L12.2001 10.7999L12.0001 10.7999ZM6.20007 6.39991L12.0001 9.69991L17.8001 6.39991L12.0001 3.09991L6.20007 6.39991Z"   fill="#0063B1" >
</path>
</svg>
