<svg xmlns="http://www.w3.org/2000/svg" xmlns:xlink="http://www.w3.org/1999/xlink" width="24" height="24" viewBox="0 0 24 24" fill="none">
<path d="M20.9 7.10005L12 11.8L3 7.10005L12 2.30005L20.9 7.10005Z"   fill="#0082E6" fill-opacity="0.15">
</path>
<path d="M20.9 7.09998L20.9 16.5L12 21.2L12 11.8L20.9 7.09998Z"   fill="#0082E6" fill-opacity="0.45">
</path>
<path d="M3 16.5L12 21.2L12 11.8L3.4 7.30005L3 16.5Z"   fill="#0082E6" fill-opacity="0.3">
</path>
<path d="M12 12.4C11.8999 12.4 11.8 12.4 11.8 12.3L7.49995 9.99996C7.29996 9.99996 7.19995 9.79994 7.19995 9.59995C7.19995 9.39996 7.29996 9.19994 7.49995 9.19994L11.8 6.89996C11.8999 6.79995 12.1 6.79995 12.3 6.89996L16.6 9.19994C16.7999 9.29995 16.9 9.49994 16.9 9.59995C16.9 9.69996 16.6 9.99996 16.3999 9.99996L12.1 12.1999C12.1 12.3 12 12.4 12 12.4ZM8.79996 9.59995L12 11.2999L15.1999 9.59995L12 7.89996L8.79996 9.59995Z"   fill="#000000" >
</path>
<path d="M12 16.8C11.9 16.8 11.8 16.8 11.7 16.7C11.5 16.6 11.5 16.4 11.5 16.3L11.5 11.8C11.5 11.6 11.6 11.4 11.8 11.4L16 9.19999C16.2 9.1 16.3 9.1 16.5 9.19999C16.7 9.3 16.7 9.49999 16.7 9.6L16.7 14.1C16.7 14.3 16.6 14.5 16.4 14.5L12.1 16.7C12.1 16.8 12 16.8 12 16.8ZM12.5 12.2L12.5 15.6L15.8 13.9L15.8 10.5L12.5 12.2Z"   fill="#000000" >
</path>
<path d="M12 16.8C11.8999 16.8 11.8 16.8 11.8 16.7L7.49995 14.5C7.29996 14.4 7.19995 14.2 7.19995 14.1L7.19995 9.6C7.19995 9.4 7.29996 9.3 7.39994 9.19999C7.49995 9.1 7.69994 9.1 7.89996 9.19999L12.1999 11.4C12.4 11.5 12.4999 11.7 12.4999 11.8L12.4999 16.3C12.4999 16.5 12.4 16.6 12.3 16.7C12.1 16.8 12 16.8 12 16.8ZM8.19996 13.8L11.5 15.5L11.5 12.1L8.19996 10.4L8.19996 13.8Z"   fill="#000000" >
</path>
<path d="M12 22.0001C11.9 22.0001 11.8 22.0001 11.8 21.9001L3.3 17.1001C3.10001 17.1001 3 16.9001 3 16.8001L3 7.20006C3 7.00006 3.10001 6.90006 3.3 6.80005L11.8 2.00005C12 1.90005 12.1 1.90005 12.3 2.00005L20.8 6.80005C20.9 6.90006 21 7.10005 21 7.20006L21 16.7C21 16.9001 20.9 17 20.7 17.1001L12.2 21.9001C12.2 22.0001 12.1 22.0001 12 22.0001ZM4.00001 16.5001L12 21.0001L20 16.5001L20 7.50006L12 3.00005L4.00001 7.50006L4.00001 16.5001Z"   fill="#0063B1" >
</path>
</svg>
