<svg xmlns="http://www.w3.org/2000/svg" xmlns:xlink="http://www.w3.org/1999/xlink" width="24" height="24" viewBox="0 0 24 24" fill="none">
<path d="M10.49 20.97L5.5 20.97C4.1023 20.97 3 19.7777 3 18.48L3 5.5C3 4.10229 4.1023 3 5.5 3L16.48 3C17.8776 3 18.97 4.10229 18.97 5.5L18.97 8.49C18.97 8.68968 18.7794 8.99 18.48 8.99C18.1806 8.99 17.98 8.68968 17.98 8.49L17.98 5.5C17.98 4.60157 17.2786 4 16.48 4L5.5 4C4.70131 4 4 4.60157 4 5.5L4 18.48C4 19.2786 4.70141 19.97 5.5 19.97L10.49 19.97C10.7896 19.97 10.99 20.1704 10.99 20.47C10.99 20.7694 10.7896 20.97 10.49 20.97Z"   fill="#000000" >
</path>
<path d="M15.8663 11.9733C18.0074 11.9733 19.7593 13.7252 19.7593 15.8663C19.7593 18.0075 18.0074 19.7595 15.8663 19.7595C13.7251 19.7595 11.9732 18.0075 11.9732 15.8663C11.9732 13.7252 13.7251 11.9733 15.8663 11.9733ZM15.8663 11C13.1411 11 11 13.1412 11 15.8663C11 18.5915 13.1411 20.7327 15.8663 20.7327C18.5913 20.7327 20.7326 18.5915 20.7326 15.8663C20.7326 13.1412 18.4942 11 15.8663 11Z"   fill="#000000" >
</path>
<path d="M7.07377 10.7263L8.84477 6.863L10.6528 10.7211C10.6567 10.7295 10.6608 10.7377 10.6651 10.7458C10.6694 10.754 10.674 10.762 10.6786 10.7699C10.6834 10.7778 10.6882 10.7856 10.6933 10.7933C10.6984 10.801 10.7037 10.8085 10.7092 10.8159C10.7146 10.8233 10.7202 10.8306 10.726 10.8377C10.7318 10.8449 10.7378 10.8519 10.744 10.8587C10.7501 10.8656 10.7565 10.8722 10.7629 10.8788C10.7694 10.8853 10.7761 10.8917 10.7829 10.8979C10.7897 10.9041 10.7966 10.9101 10.8037 10.916C10.8108 10.9219 10.818 10.9275 10.8254 10.933C10.8328 10.9385 10.8403 10.9439 10.8479 10.949C10.8555 10.9542 10.8633 10.9591 10.8712 10.9639C10.879 10.9686 10.887 10.9732 10.8951 10.9775C10.9032 10.9819 10.9114 10.9861 10.9197 10.99C10.928 10.994 10.9365 10.9978 10.9449 11.0013C10.9534 11.0049 10.962 11.0082 10.9706 11.0114C10.9793 11.0145 10.988 11.0174 10.9968 11.0201C11.0056 11.0228 11.0145 11.0253 11.0234 11.0276C11.0323 11.0298 11.0413 11.0319 11.0503 11.0337C11.0593 11.0356 11.0684 11.0371 11.0775 11.0385C11.0866 11.0399 11.0957 11.0411 11.1049 11.042C11.114 11.0429 11.1232 11.0437 11.1324 11.0441C11.1416 11.0446 11.1508 11.0449 11.16 11.0449C11.1692 11.0449 11.1784 11.0448 11.1876 11.0443C11.1968 11.0439 11.206 11.0433 11.2151 11.0424C11.2243 11.0415 11.2334 11.0404 11.2425 11.0391C11.2516 11.0378 11.2607 11.0362 11.2697 11.0345C11.2787 11.0327 11.2877 11.0307 11.2967 11.0285C11.3056 11.0263 11.3145 11.0239 11.3233 11.0212C11.3321 11.0186 11.3408 11.0157 11.3495 11.0127C11.3582 11.0096 11.3668 11.0063 11.3753 11.0028C11.3838 10.9993 11.3923 10.9956 11.4006 10.9917C11.4089 10.9878 11.4172 10.9837 11.4253 10.9794C11.4334 10.9751 11.4415 10.9706 11.4494 10.9659C11.4573 10.9612 11.4651 10.9563 11.4728 10.9512C11.4804 10.9461 11.488 10.9409 11.4954 10.9354C11.5028 10.93 11.5101 10.9243 11.5172 10.9185C11.5243 10.9127 11.5313 10.9067 11.5382 10.9006C11.545 10.8944 11.5517 10.8881 11.5583 10.8816C11.5648 10.8751 11.5711 10.8685 11.5774 10.8617C11.5791 10.8597 11.5809 10.8578 11.5826 10.8558C11.6318 10.829 11.6696 10.7914 11.6916 10.7435L12.5325 8.90924L13.4421 10.8936C13.5229 11.0695 13.8169 11.1069 14.0992 10.9775C14.3815 10.8481 14.5452 10.6009 14.4646 10.425L13.0606 7.36246C13.0305 7.29663 12.9704 7.2502 12.8923 7.22466C12.8444 7.18849 12.7899 7.15581 12.7302 7.12841C12.448 6.999 12.1538 7.03654 12.0732 7.2123L11.1718 9.17844L9.37419 5.34243C9.3104 5.20631 9.19916 5.10775 9.06947 5.05717C9.06525 5.05511 9.06101 5.05309 9.05673 5.05113C9.05109 5.04854 9.04541 5.04605 9.0397 5.04366C9.03395 5.04127 9.02819 5.03897 9.02241 5.03675C9.0166 5.03454 9.01078 5.03244 9.00491 5.03043C8.99904 5.02841 8.99313 5.0265 8.9872 5.02469C8.98126 5.02287 8.97531 5.02115 8.96931 5.01953C8.96334 5.0179 8.95732 5.01638 8.95128 5.01496C8.94524 5.01354 8.93918 5.01221 8.9331 5.01099C8.92702 5.00977 8.92091 5.00865 8.91479 5.00764C8.90866 5.00662 8.90254 5.0057 8.89639 5.00489C8.89025 5.00406 8.88408 5.00334 8.87791 5.00273C8.87174 5.00212 8.86556 5.00161 8.85937 5.00122C8.85316 5.0008 8.84697 5.0005 8.84078 5.0003C8.83457 5.0001 8.82838 5 8.82217 5C8.81596 5 8.80977 5.00011 8.80356 5.00032C8.79735 5.00052 8.79116 5.00082 8.78497 5.00124C8.77878 5.00166 8.7726 5.00218 8.76643 5.0028C8.76026 5.00341 8.75409 5.00413 8.74793 5.00495C8.74178 5.00576 8.73566 5.00668 8.72953 5.0077C8.72341 5.00873 8.7173 5.00985 8.71122 5.01108C8.70514 5.0123 8.69908 5.01363 8.69304 5.01507C8.687 5.01649 8.681 5.01801 8.67501 5.01963C8.66901 5.02126 8.66305 5.02298 8.65712 5.0248C8.65119 5.02662 8.6453 5.02854 8.63943 5.03056C8.63356 5.03258 8.62771 5.03469 8.62193 5.0369C8.61613 5.03912 8.61036 5.04143 8.60465 5.04383C8.59893 5.04622 8.59325 5.04871 8.58759 5.0513C8.58196 5.05389 8.57637 5.05658 8.57082 5.05937C8.56527 5.06214 8.55977 5.065 8.5543 5.06795C8.54886 5.07091 8.54346 5.07396 8.53811 5.0771C8.53275 5.08023 8.52743 5.08346 8.52218 5.08677C8.51696 5.09009 8.51177 5.09349 8.50663 5.09697C8.50148 5.10044 8.49641 5.10401 8.49139 5.10766C8.48638 5.11132 8.48142 5.11505 8.47654 5.11887C8.47165 5.12268 8.46681 5.12658 8.46205 5.13056C8.45729 5.13453 8.45257 5.13858 8.44794 5.1427C8.44331 5.14684 8.43876 5.15106 8.43426 5.15534C8.42978 5.15962 8.42536 5.16397 8.42101 5.1684C8.41668 5.17282 8.41241 5.17733 8.4082 5.18191C8.404 5.18647 8.39988 5.19111 8.39583 5.19582C8.39179 5.20052 8.38782 5.20528 8.38394 5.21012C8.38006 5.21496 8.37626 5.21986 8.37252 5.22482C8.36881 5.22979 8.36518 5.23482 8.36162 5.23991C8.35805 5.24499 8.3546 5.25013 8.3512 5.25532C8.34781 5.26053 8.3445 5.26578 8.3413 5.27109C8.33808 5.2764 8.33496 5.28176 8.33191 5.28718C8.32888 5.29259 8.32594 5.29804 8.32308 5.30355C8.32024 5.30907 8.31746 5.31462 8.3148 5.32022C8.31213 5.32582 8.30955 5.33147 8.30707 5.33716L6.05136 10.2577C5.92178 10.5402 6.04586 10.8738 6.32815 11.0032C6.61045 11.1327 6.94419 11.009 7.07377 10.7263ZM18.1811 15.2749L15.4558 18C15.422 18.0339 15.3852 18.0618 15.3465 18.0839C15.3397 18.0916 15.3326 18.0991 15.3252 18.1065C15.1428 18.289 14.869 18.289 14.6865 18.1065L13.4092 16.829C13.2267 16.6467 13.2267 16.3728 13.4092 16.1904C13.5916 16.0079 13.9566 16.0079 14.0478 16.1904L14.9754 17.1179L17.4997 14.5935C17.6943 14.399 17.9862 14.399 18.1811 14.5935C18.3757 14.7883 18.3757 15.0802 18.1811 15.2749Z" fill-rule="evenodd"  fill="#0063B1" >
</path>
<path d="M5 13.2229L5 13.6783C5 13.8028 5.0755 13.9011 5.16472 13.9011L8.72075 13.9011C8.81006 13.9011 8.87578 13.8028 8.87578 13.6783L8.87578 13.2229C8.87578 13.0983 8.81006 13 8.72075 13L5.16472 13C5.0755 13 5 13.0983 5 13.2229ZM5 15.1898L5 15.6355C5 15.7601 5.0755 15.8584 5.16472 15.8584L8.72075 15.8584C8.81006 15.8584 8.87578 15.7601 8.87578 15.6355L8.87578 15.1898C8.87578 15.0652 8.81006 14.9573 8.72075 14.9573L5.16472 14.9573C5.0755 14.9573 5 15.0653 5 15.1898ZM5 17.0793L5 17.5347C5 17.6593 5.1006 17.7575 5.22286 17.7575L10.0966 17.7575C10.2192 17.7575 10.3195 17.6593 10.3195 17.5347L10.3195 17.0793C10.3195 16.9547 10.2192 16.8564 10.0966 16.8564L5.22286 16.8564C5.10051 16.8564 5 16.9548 5 17.0793Z"   fill="#000000" >
</path>
</svg>
