<svg xmlns="http://www.w3.org/2000/svg" xmlns:xlink="http://www.w3.org/1999/xlink" width="32" height="32" viewBox="0 0 32 32" fill="none">
<path d="M27.3334 9.33344L22 9.33344C21.6 9.33344 21.3334 9.06675 21.3334 8.66675L21.3334 3.33343C21.3334 2.93341 21.6 2.66675 22 2.66675L27.3334 2.66675C27.7334 2.66675 28 2.93341 28 3.33343L28 8.66675C28 9.06675 27.7334 9.33344 27.3334 9.33344ZM22.6667 8.00009L26.6667 8.00009L26.6667 4.00008L22.6667 4.00008L22.6667 8.00009ZM27.3334 18.6667L22 18.6667C21.6 18.6667 21.3334 18.4001 21.3334 18.0001L21.3334 12.6667C21.3334 12.2667 21.6 12.0001 22 12.0001L27.3334 12.0001C27.7334 12.0001 28 12.2667 28 12.6667L28 18.0001C28 18.4001 27.7334 18.6667 27.3334 18.6667ZM22.6667 17.3334L26.6667 17.3334L26.6667 13.3334L22.6667 13.3334L22.6667 17.3334ZM27.3334 28.0001L22 28.0001C21.6 28.0001 21.3334 27.7334 21.3334 27.3334L21.3334 22.0001C21.3334 21.6001 21.6 21.3334 22 21.3334L27.3334 21.3334C27.7334 21.3334 28 21.6001 28 22.0001L28 27.3334C28 27.7334 27.7334 28.0001 27.3334 28.0001ZM22.6667 26.6667L26.6667 26.6667L26.6667 22.6667L22.6667 22.6667L22.6667 26.6667Z"   fill="#000000" >
</path>
<path d="M22 16.0001L11.3333 16.0001C10.9333 16.0001 10.6666 15.7334 10.6666 15.3334C10.6666 14.9334 10.9333 14.6667 11.3333 14.6667L22 14.6667C22.4 14.6667 22.6666 14.9334 22.6666 15.3334C22.6666 15.7334 22.4 16.0001 22 16.0001Z"   fill="#000000" >
</path>
<path d="M16.6667 25.3333C16.2667 25.3333 16 25.0666 16 24.6666L16 5.99991C16 5.59991 16.2667 5.33325 16.6667 5.33325C17.0667 5.33325 17.3333 5.59991 17.3333 5.99991L17.3333 24.6666C17.3333 25.0666 17.0667 25.3333 16.6667 25.3333Z"   fill="#000000" >
</path>
<path d="M22 25.3333L16.6667 25.3333C16.2667 25.3333 16 25.0666 16 24.6666C16 24.2666 16.2667 23.9999 16.6667 23.9999L22 23.9999C22.4 23.9999 22.6667 24.2666 22.6667 24.6666C22.6667 25.0666 22.4 25.3333 22 25.3333ZM22 6.66656L16.6667 6.66656C16.2667 6.66656 16 6.39991 16 5.99991C16 5.59991 16.2667 5.33325 16.6667 5.33325L22 5.33325C22.4 5.33325 22.6667 5.59991 22.6667 5.99991C22.6667 6.39991 22.4 6.66656 22 6.66656Z"   fill="#000000" >
</path>
<path d="M11.3333 25.3333L4.66666 25.3333C4.26666 25.3333 4 25.0666 4 24.6666L4 5.99991C4 5.59991 4.26666 5.33325 4.66666 5.33325L11.3333 5.33325C11.7333 5.33325 12 5.59991 12 5.99991L12 24.6666C12 25.0666 11.7333 25.3333 11.3333 25.3333ZM5.33334 23.9999L10.6667 23.9999L10.6667 6.66656L5.33334 6.66656L5.33334 23.9999Z"   fill="#0063B1" >
</path>
</svg>
