<svg xmlns="http://www.w3.org/2000/svg" xmlns:xlink="http://www.w3.org/1999/xlink" width="32" height="32" viewBox="0 0 32 32" fill="none">
<path d="M10.5534 16.4506L11.164 15.2639L20.176 19.8959L19.5667 21.0826L10.5534 16.4506ZM10.4 13.5666L20.78 9.72925L21.2427 10.9799L10.8627 14.8172L10.4 13.5666Z"   fill="#000000" >
</path>
<path d="M7.4666 19.4666C6.93329 19.4666 6.2666 19.3333 5.73329 19.0666C4.6666 18.6666 3.99994 17.7333 3.59994 16.6666C3.19994 15.6 3.19994 14.5333 3.73329 13.4666C4.6666 11.3333 7.19994 10.5333 9.19994 11.4666C11.3333 12.4 12.1333 14.9333 11.1999 16.9333C10.7999 18 9.8666 18.6666 8.93329 19.0666C8.39994 19.3333 7.99994 19.4666 7.4666 19.4666ZM7.4666 12.5333C6.39994 12.5333 5.33329 13.2 4.93329 14.1333C4.6666 14.8 4.53329 15.6 4.79994 16.2666C5.0666 16.9333 5.59994 17.6 6.2666 17.8666C6.93329 18.1333 7.73329 18.2666 8.39994 18C9.0666 17.7333 9.73329 17.2 9.99994 16.5333C10.6666 15.0666 9.99994 13.4666 8.6666 12.8C8.2666 12.5333 7.8666 12.5333 7.4666 12.5333Z"   fill="#0063B1" >
</path>
<path d="M23.8667 26.6666C23.2 26.6666 22.5333 26.5332 21.8667 26.2666C20.6667 25.7332 19.8667 24.7999 19.3333 23.5999C18.9333 22.3999 18.9333 21.0666 19.4667 19.8666C20.5333 17.4666 23.4667 16.3999 25.8667 17.4666C27.0667 17.9999 27.8667 18.9333 28.4 20.1332C28.8 21.3333 28.8 22.6666 28.2667 23.8666C27.4667 25.5999 25.6 26.6666 23.8667 26.6666ZM23.8667 18.2666C22.5333 18.2666 21.3333 19.0666 20.6667 20.2666C20.2667 21.0666 20.2667 21.9999 20.5333 22.9332C20.8 23.8666 21.4667 24.5332 22.4 24.9332C24.1333 25.7332 26.2667 24.9332 27.0667 23.1999C27.4667 22.3999 27.4667 21.4666 27.2 20.5332C26.9333 19.5999 26.2667 18.9333 25.3333 18.5332C24.8 18.3999 24.4 18.2666 23.8667 18.2666ZM23.8667 13.0666C23.3333 13.0666 22.8 12.9333 22.2667 12.6666C20.4 11.7332 19.4667 9.46656 20.4 7.5999C20.8 6.66656 21.6 5.9999 22.5333 5.5999C23.4667 5.33325 24.5333 5.33325 25.4667 5.73325C26.4 6.13325 27.0667 6.93325 27.4667 7.86656C27.8667 8.79991 27.7333 9.86656 27.3333 10.7999C26.6667 12.2666 25.3333 13.0666 23.8667 13.0666ZM23.8667 6.66656C23.6 6.66656 23.3333 6.66656 22.9333 6.7999C22.2667 7.06656 21.8667 7.46656 21.4667 8.13325C20.9333 9.33325 21.4667 10.9333 22.6667 11.4666C23.8667 11.9999 25.4667 11.4666 26 10.2666C26.2667 9.59991 26.2667 8.93325 26.1333 8.3999C25.8667 7.73325 25.4667 7.33325 24.8 6.93325C24.5333 6.7999 24.2667 6.66656 23.8667 6.66656Z"   fill="#000000" >
</path>
</svg>
