<svg xmlns="http://www.w3.org/2000/svg" xmlns:xlink="http://www.w3.org/1999/xlink" width="32" height="32" viewBox="0 0 32 32" fill="none">
<path d="M28.2667 19.6L12.9334 19.6C12.5334 19.6 12.2667 19.3333 12.2667 18.9333L12.2667 13.6C12.2667 13.2 12.5334 12.9333 12.9334 12.9333L28.2667 12.9333C28.6667 12.9333 28.9334 13.2 28.9334 13.6L28.9334 18.9333C28.9334 19.3333 28.6667 19.6 28.2667 19.6ZM13.6001 18.2667L27.6001 18.2667L27.6001 14.2667L13.6001 14.2667L13.6001 18.2667ZM28.2667 29.0667L12.9334 29.0667C12.5334 29.0667 12.2667 28.8 12.2667 28.4L12.2667 23.0667C12.2667 22.6667 12.5334 22.4 12.9334 22.4L28.2667 22.4C28.6667 22.4 28.9334 22.6667 28.9334 23.0667L28.9334 28.4C28.9334 28.8 28.6667 29.0667 28.2667 29.0667ZM13.6001 27.7333L27.6001 27.7333L27.6001 23.7333L13.6001 23.7333L13.6001 27.7333Z"   fill="#000000" >
</path>
<path d="M12.9334 26.3999L6.93341 26.3999C6.53341 26.3999 6.26672 26.1333 6.26672 25.7333L6.26672 9.99991C6.26672 9.59991 6.53341 9.33325 6.93341 9.33325C7.33341 9.33325 7.60007 9.59991 7.60007 9.99991L7.60007 25.1999L12.9334 25.1999C13.3334 25.1999 13.6001 25.4666 13.6001 25.8666C13.6001 26.2666 13.3334 26.3999 12.9334 26.3999Z"   fill="#000000" >
</path>
<path d="M12.9334 16.9334L6.93341 16.9334C6.53341 16.9334 6.26672 16.6668 6.26672 16.2668C6.26672 15.8668 6.53341 15.6001 6.93341 15.6001L12.9334 15.6001C13.3334 15.6001 13.6001 15.8668 13.6001 16.2668C13.6001 16.6668 13.3334 16.9334 12.9334 16.9334Z"   fill="#000000" >
</path>
<path d="M10.1333 10.6667L3.73333 10.6667C3.33333 10.6667 3.06665 10.2667 3.06665 10L3.06665 3.60002C3.06665 3.20002 3.33333 2.93335 3.73333 2.93335L10.1333 2.93335C10.5333 2.93335 10.8 3.20002 10.8 3.60002L10.8 10C10.8 10.2667 10.4 10.6667 10.1333 10.6667ZM4.39998 9.33335L9.46665 9.33335L9.46665 4.26667L4.39998 4.26667L4.39998 9.33335Z"   fill="#0063B1" >
</path>
</svg>
