<svg xmlns="http://www.w3.org/2000/svg" xmlns:xlink="http://www.w3.org/1999/xlink" width="24" height="24" viewBox="0 0 24 24" fill="none">
<path d="M1.90003 7.40001L1.40002 6.60002L10.2 1.60003C10.4 1.50002 10.5 1.50002 10.7 1.60003L19.5 6.60002L19 7.40001L10.5 2.50003L1.90003 7.40001Z"   fill="#000000" >
</path>
<path d="M14.8 9.49998L10.5 12L6.09998 9.49998L10.5 7L14.8 9.49998Z"   fill="#0082E6" fill-opacity="0.3">
</path>
<path d="M6.30004 9.90002L5.80005 9.10003L10.2 6.60003C10.4 6.50002 10.5 6.50002 10.7 6.60003L15.1 9.10003L14.6 10L10.5 7.60004L6.30004 9.90002Z"   fill="#0063B1" >
</path>
<path d="M14.8 9.5L14.8 14.5L10.5 17L10.5 12L14.8 9.5Z"   fill="#0082E6" fill-opacity="0.3">
</path>
<path d="M10.6999 17.4L10.2 16.5L14.2999 14.1L14.2999 10.3001L10.6999 12.4001L10.2 11.5001L14.5999 9.00006C14.8 8.90005 14.8999 8.90005 15.1 9.00006C15.3 9.10006 15.3 9.30005 15.3 9.40006L15.3 14.4C15.3 14.6 15.1999 14.7 15 14.8001L10.6999 17.4Z"   fill="#0063B1" >
</path>
<path d="M10.5 17.5C10.4 17.5 10.3 17.5 10.3 17.4L9.39999 16.9L9.89998 16L9.99999 16.1L9.99999 16L11 16L11 17C11 17.2 10.9 17.3 10.8 17.4C10.6 17.5 10.5 17.5 10.5 17.5ZM7.59999 15.9L5.89998 14.9L6.39999 14L8.09998 15L7.59999 15.9ZM11 14L9.99999 14L9.99999 12L10.5 12L10.7 11.5L10.8 11.5C11 11.6 11.1 11.8 11.1 11.9L11.1 14L11 14ZM6.59998 12.5L5.59998 12.5L5.59998 10.5L6.59998 10.5L6.59998 12.5ZM8.39998 11.4L6.69999 10.4L7.19998 9.5L8.89998 10.5L8.39998 11.4Z"   fill="#0063B1" >
</path>
<path d="M10.5 22.5C10.3999 22.5 10.3 22.5 10.3 22.4L1.49995 17.4C1.29995 17.3 1.19995 17.1 1.19995 17L1.19995 7.00004C1.19995 6.80002 1.29995 6.70004 1.39995 6.60003C1.59995 6.50002 1.69995 6.50002 1.89995 6.60003L10.6999 11.6C10.9 11.7 10.9999 11.9 10.9999 12L10.9999 22C10.9999 22.2 10.9 22.3 10.7999 22.4C10.6 22.5 10.5 22.5 10.5 22.5ZM2.19995 16.7L9.99996 21.1L9.99996 12.3L2.19995 7.90004L2.19995 16.7Z"   fill="#000000" >
</path>
<path d="M10.6999 22.4L10.2 21.5L18.7 16.6L18.7 7.90004L10.6999 12.5L10.2 11.6L19 6.60003C19.2 6.50002 19.3 6.50002 19.5 6.60003C19.6999 6.70004 19.6999 6.90003 19.6999 7.00004L19.6999 17C19.6999 17.2 19.6 17.3 19.3999 17.4L10.6999 22.4Z"   fill="#000000" >
</path>
<path d="M19.9001 16.8L22.2 14.5C22.4 14.3 22.4 14 22.2 13.8C22.0001 13.6 21.7001 13.6 21.5 13.8L19.2 16.1L16.9001 13.8C16.7 13.6 16.4 13.6 16.2 13.8C16.0001 14 16.0001 14.3 16.2 14.5L18.5 16.8L16.2 19.1C16.0001 19.3 16.0001 19.6 16.2 19.8C16.3 19.9 16.4 19.9 16.6001 19.9C16.8 19.9 16.9001 19.9 17 19.8L19.3001 17.5L21.6 19.8C21.7001 19.9 21.8 19.9 22.0001 19.9C22.2 19.9 22.3001 19.9 22.4 19.8C22.6001 19.6 22.6001 19.3 22.4 19.1L19.9001 16.8Z"   fill="#FF2A00" >
</path>
</svg>
