<svg xmlns="http://www.w3.org/2000/svg" xmlns:xlink="http://www.w3.org/1999/xlink" width="24" height="24" viewBox="0 0 24 24" fill="none">
<path d="M4.44 11.66L8.3 11L8.34 11.01L7.62 4.71L3.5 4L4.44 11.66ZM4.39 12.68L3.5 20L7.54 20.68L8.49 12.07L8.3 12L4.39 12.68ZM19.8 12.4L19.5 10L20.5 4L17.5 3L8.66 4.96L9.4 11.43L17 14L19.8 12.4ZM19.92 13.33L17 15L9.44 12.44L8.5 21L17.5 19L20.5 20L19.92 13.33ZM2.5 3L8.5 4L17.5 2L21.5 3L20.5 10L21.5 21L17.5 20L8.5 22L2.5 21L3.5 12L2.5 3Z"   fill="#000000" >
</path>
<path d="M15.5 10.67C14.166 9.628 13.5 8.737 13.5 8C13.5 7.96727 13.5 7.9327 13.5 7.9C13.5 7.8673 13.51 7.83258 13.51 7.8C13.51 7.76742 13.52 7.74237 13.52 7.71C13.52 7.67761 13.54 7.64211 13.54 7.61C13.54 7.57789 13.56 7.54177 13.56 7.51C13.56 7.47825 13.59 7.45133 13.59 7.42C13.59 7.38867 13.609 7.36083 13.62 7.33C13.631 7.29917 13.6375 7.27023 13.65 7.24C13.6625 7.20977 13.676 7.17959 13.69 7.15C13.704 7.12041 13.7245 7.08886 13.74 7.06C13.7555 7.03113 13.7732 6.99808 13.79 6.97C13.8068 6.94192 13.8218 6.91722 13.84 6.89C13.8582 6.86278 13.8705 6.83628 13.89 6.81C13.9095 6.7837 13.9292 6.7553 13.95 6.73C13.9708 6.7047 13.998 6.68425 14.02 6.66C14.042 6.63573 14.0668 6.61314 14.09 6.59C14.1132 6.56686 14.1357 6.54198 14.16 6.52C14.1843 6.49802 14.2047 6.47077 14.23 6.45C14.2553 6.42923 14.2837 6.4095 14.31 6.39C14.3363 6.37052 14.3628 6.35819 14.39 6.34C14.4172 6.32183 14.4419 6.30683 14.47 6.29C14.4981 6.27317 14.5311 6.25542 14.56 6.24C14.5889 6.22458 14.6204 6.204 14.65 6.19C14.6796 6.17602 14.7098 6.16252 14.74 6.15C14.7703 6.13747 14.7992 6.13102 14.83 6.12C14.8608 6.10897 14.8887 6.09 14.92 6.09C14.9513 6.09 14.9882 6.06 15.02 6.06C15.0518 6.06 15.0779 6.04 15.11 6.04C15.1421 6.04 15.1776 6.02 15.21 6.02C15.2424 6.02 15.2774 6.01 15.31 6.01C15.3426 6.01 15.3673 6 15.4 6C15.4327 6 15.4673 6 15.5 6C15.5327 6 15.5673 6 15.6 6C15.6327 6 15.6674 6.01 15.7 6.01C15.7326 6.01 15.7676 6.02 15.8 6.02C15.8324 6.02 15.8579 6.04 15.89 6.04C15.9221 6.04 15.9582 6.06 15.99 6.06C16.0218 6.06 16.0487 6.09 16.08 6.09C16.1113 6.09 16.1492 6.10897 16.18 6.12C16.2108 6.13102 16.2397 6.13747 16.27 6.15C16.3003 6.16252 16.3304 6.17602 16.36 6.19C16.3896 6.204 16.4111 6.22458 16.44 6.24C16.4689 6.25542 16.5019 6.27317 16.53 6.29C16.5581 6.30683 16.5828 6.32181 16.61 6.34C16.6372 6.35819 16.6637 6.37052 16.69 6.39C16.7163 6.4095 16.7447 6.42923 16.77 6.45C16.7953 6.47077 16.8257 6.49802 16.85 6.52C16.8743 6.54198 16.8968 6.56686 16.92 6.59C16.9432 6.61314 16.958 6.63573 16.98 6.66C17.002 6.68425 17.0292 6.7047 17.05 6.73C17.0708 6.7553 17.0905 6.7837 17.11 6.81C17.1295 6.83628 17.1518 6.86278 17.17 6.89C17.1882 6.91722 17.2032 6.94192 17.22 6.97C17.2368 6.99808 17.2545 7.03113 17.27 7.06C17.2855 7.08886 17.296 7.12041 17.31 7.15C17.324 7.17959 17.3375 7.20977 17.35 7.24C17.3625 7.27023 17.379 7.29917 17.39 7.33C17.401 7.36083 17.42 7.38867 17.42 7.42C17.42 7.45133 17.44 7.47825 17.44 7.51C17.44 7.54177 17.46 7.57789 17.46 7.61C17.46 7.64211 17.48 7.67761 17.48 7.71C17.48 7.74237 17.49 7.76742 17.49 7.8C17.49 7.83258 17.5 7.8673 17.5 7.9C17.5 7.9327 17.5 7.96727 17.5 8C17.5 8.737 16.835 9.628 15.5 10.67ZM15.5 9C15.5164 9 15.5336 9 15.55 9C15.5664 9 15.5837 9 15.6 9C15.6163 9 15.6338 8.99 15.65 8.99C15.6662 8.99 15.6839 8.98 15.7 8.98C15.7161 8.98 15.7341 8.97 15.75 8.97C15.7659 8.97 15.7743 8.96 15.79 8.96C15.8057 8.96 15.8246 8.94 15.84 8.94C15.8554 8.94 15.8749 8.93 15.89 8.93C15.9051 8.93 15.9152 8.91 15.93 8.91C15.9448 8.91 15.9555 8.88 15.97 8.88C15.9845 8.88 16.0059 8.86 16.02 8.86C16.0341 8.86 16.0464 8.83 16.06 8.83C16.0736 8.83 16.0868 8.81 16.1 8.81C16.1132 8.81 16.1273 8.79039 16.14 8.78C16.1527 8.76961 16.1579 8.75102 16.17 8.74C16.1821 8.729 16.1984 8.72158 16.21 8.71C16.2216 8.69842 16.229 8.68214 16.24 8.67C16.251 8.65786 16.2696 8.65267 16.28 8.64C16.2904 8.62733 16.31 8.61316 16.31 8.6C16.31 8.58684 16.33 8.57363 16.33 8.56C16.33 8.54638 16.36 8.53405 16.36 8.52C16.36 8.50594 16.39 8.48445 16.39 8.47C16.39 8.45555 16.41 8.44481 16.41 8.43C16.41 8.41519 16.43 8.40514 16.43 8.39C16.43 8.37486 16.44 8.35542 16.44 8.34C16.44 8.32458 16.46 8.30569 16.46 8.29C16.46 8.27433 16.47 8.26589 16.47 8.25C16.47 8.23411 16.48 8.21608 16.48 8.2C16.48 8.18392 16.49 8.1662 16.49 8.15C16.49 8.1338 16.5 8.11631 16.5 8.1C16.5 8.0837 16.5 8.06637 16.5 8.05C16.5 8.03364 16.5 8.01639 16.5 8C16.5 7.98361 16.5 7.96636 16.5 7.95C16.5 7.93363 16.5 7.9163 16.5 7.9C16.5 7.88369 16.49 7.8762 16.49 7.86C16.49 7.8438 16.48 7.82608 16.48 7.81C16.48 7.79392 16.47 7.77589 16.47 7.76C16.47 7.74411 16.46 7.72567 16.46 7.71C16.46 7.69431 16.44 7.67542 16.44 7.66C16.44 7.64458 16.43 7.63514 16.43 7.62C16.43 7.60486 16.41 7.58481 16.41 7.57C16.41 7.55519 16.39 7.54445 16.39 7.53C16.39 7.51555 16.36 7.50405 16.36 7.49C16.36 7.47595 16.33 7.46362 16.33 7.45C16.33 7.43638 16.31 7.42316 16.31 7.41C16.31 7.39683 16.2904 7.38266 16.28 7.37C16.2696 7.35733 16.251 7.34214 16.24 7.33C16.229 7.31786 16.2216 7.30158 16.21 7.29C16.1984 7.27842 16.1821 7.271 16.17 7.26C16.1579 7.24898 16.1527 7.24039 16.14 7.23C16.1273 7.21961 16.1132 7.2 16.1 7.2C16.0868 7.2 16.0736 7.17 16.06 7.17C16.0464 7.17 16.0341 7.14 16.02 7.14C16.0059 7.14 15.9845 7.12 15.97 7.12C15.9555 7.12 15.9448 7.1 15.93 7.1C15.9152 7.1 15.9051 7.08 15.89 7.08C15.8749 7.08 15.8554 7.06 15.84 7.06C15.8246 7.06 15.8057 7.04 15.79 7.04C15.7743 7.04 15.7659 7.03 15.75 7.03C15.7341 7.03 15.7161 7.02 15.7 7.02C15.6839 7.02 15.6662 7.01 15.65 7.01C15.6338 7.01 15.6163 7.01 15.6 7.01C15.5837 7.01 15.5664 7 15.55 7C15.5336 7 15.5164 7 15.5 7C15.4836 7 15.4664 7 15.45 7C15.4336 7 15.4163 7.01 15.4 7.01C15.3837 7.01 15.3762 7.01 15.36 7.01C15.3438 7.01 15.3261 7.02 15.31 7.02C15.2939 7.02 15.2759 7.03 15.26 7.03C15.2441 7.03 15.2257 7.04 15.21 7.04C15.1943 7.04 15.1754 7.06 15.16 7.06C15.1446 7.06 15.1351 7.08 15.12 7.08C15.1049 7.08 15.0848 7.1 15.07 7.1C15.0552 7.1 15.0444 7.12 15.03 7.12C15.0155 7.12 15.004 7.14 14.99 7.14C14.976 7.14 14.9636 7.17 14.95 7.17C14.9364 7.17 14.9231 7.2 14.91 7.2C14.8968 7.2 14.8827 7.21961 14.87 7.23C14.8573 7.24039 14.8421 7.249 14.83 7.26C14.8179 7.271 14.8016 7.27842 14.79 7.29C14.7784 7.30158 14.771 7.31786 14.76 7.33C14.749 7.34214 14.7404 7.35733 14.73 7.37C14.7196 7.38266 14.7 7.39684 14.7 7.41C14.7 7.42316 14.67 7.43638 14.67 7.45C14.67 7.46361 14.64 7.47595 14.64 7.49C14.64 7.50405 14.62 7.51555 14.62 7.53C14.62 7.54445 14.6 7.5552 14.6 7.57C14.6 7.5848 14.58 7.60486 14.58 7.62C14.58 7.63514 14.56 7.64458 14.56 7.66C14.56 7.67542 14.54 7.69433 14.54 7.71C14.54 7.72567 14.53 7.74411 14.53 7.76C14.53 7.77589 14.52 7.79394 14.52 7.81C14.52 7.82606 14.51 7.8438 14.51 7.86C14.51 7.8762 14.51 7.8837 14.51 7.9C14.51 7.9163 14.5 7.93364 14.5 7.95C14.5 7.96636 14.5 7.98362 14.5 8C14.5 8.01637 14.5 8.03364 14.5 8.05C14.5 8.06636 14.51 8.0837 14.51 8.1C14.51 8.1163 14.51 8.1338 14.51 8.15C14.51 8.1662 14.52 8.18394 14.52 8.2C14.52 8.21606 14.53 8.23411 14.53 8.25C14.53 8.26589 14.54 8.27433 14.54 8.29C14.54 8.30567 14.56 8.32458 14.56 8.34C14.56 8.35542 14.58 8.36486 14.58 8.38C14.58 8.39514 14.6 8.4152 14.6 8.43C14.6 8.4448 14.62 8.45555 14.62 8.47C14.62 8.48445 14.64 8.50595 14.64 8.52C14.64 8.53405 14.67 8.54639 14.67 8.56C14.67 8.57363 14.7 8.58684 14.7 8.6C14.7 8.61316 14.7196 8.62734 14.73 8.64C14.7404 8.65267 14.749 8.65786 14.76 8.67C14.771 8.68214 14.7784 8.69842 14.79 8.71C14.8016 8.72158 14.8179 8.729 14.83 8.74C14.8421 8.751 14.8573 8.76961 14.87 8.78C14.8827 8.79039 14.8968 8.81 14.91 8.81C14.9231 8.81 14.9364 8.83 14.95 8.83C14.9636 8.83 14.976 8.86 14.99 8.86C15.004 8.86 15.0155 8.88 15.03 8.88C15.0444 8.88 15.0552 8.91 15.07 8.91C15.0848 8.91 15.1049 8.93 15.12 8.93C15.1351 8.93 15.1446 8.94 15.16 8.94C15.1754 8.94 15.1943 8.96 15.21 8.96C15.2257 8.96 15.2441 8.97 15.26 8.97C15.2759 8.97 15.2939 8.98 15.31 8.98C15.3261 8.98 15.3438 8.99 15.36 8.99C15.3762 8.99 15.3837 9 15.4 9C15.4163 9 15.4336 9 15.45 9C15.4664 9 15.4836 9 15.5 9Z"   fill="#0063B1" >
</path>
</svg>
