<svg xmlns="http://www.w3.org/2000/svg" xmlns:xlink="http://www.w3.org/1999/xlink" width="32" height="32" viewBox="0 0 32 32" fill="none">
<path d="M14.6666 15.3334L7.99997 15.3334C7.59997 15.3334 7.33331 15.0667 7.33331 14.6667L7.33331 8.00003C7.33331 7.60003 7.59997 7.33337 7.99997 7.33337L14.6666 7.33337C15.0666 7.33337 15.3333 7.60003 15.3333 8.00003L15.3333 14.6667C15.3333 15.0667 15.0666 15.3334 14.6666 15.3334ZM8.66663 14L14 14L14 8.66669L8.66663 8.66669L8.66663 14Z"   fill="#000000" >
</path>
<path d="M24 15.3334L17.3334 15.3334C16.9334 15.3334 16.6667 15.0667 16.6667 14.6667L16.6667 8.00003C16.6667 7.60003 16.9334 7.33337 17.3334 7.33337L24 7.33337C24.4 7.33337 24.6667 7.60003 24.6667 8.00003L24.6667 14.6667C24.6667 15.0667 24.4 15.3334 24 15.3334ZM18 14L23.3334 14L23.3334 8.66669L18 8.66669L18 14Z"   fill="#0063B1" >
</path>
<path d="M14.6666 24.6666L7.99997 24.6666C7.59997 24.6666 7.33331 24.4 7.33331 24L7.33331 17.3333C7.33331 16.9333 7.59997 16.6666 7.99997 16.6666L14.6666 16.6666C15.0666 16.6666 15.3333 16.9333 15.3333 17.3333L15.3333 24C15.3333 24.4 15.0666 24.6666 14.6666 24.6666ZM8.66663 23.3333L14 23.3333L14 18L8.66663 18L8.66663 23.3333ZM24 24.6666L17.3333 24.6666C16.9333 24.6666 16.6666 24.4 16.6666 24L16.6666 17.3333C16.6666 16.9333 16.9333 16.6666 17.3333 16.6666L24 16.6666C24.4 16.6666 24.6666 16.9333 24.6666 17.3333L24.6666 24C24.6666 24.4 24.4 24.6666 24 24.6666ZM18 23.3333L23.3333 23.3333L23.3333 18L18 18L18 23.3333Z"   fill="#000000" >
</path>
<path d="M28 28.6667L21.3333 28.6667L21.3333 27.3334L27.3333 27.3334L27.3333 21.3334L28.6666 21.3334L28.6666 28C28.6666 28.4 28.4 28.6667 28 28.6667ZM28.6666 10.6667L27.3333 10.6667L27.3333 4.66669L21.3333 4.66669L21.3333 3.33337L28 3.33337C28.4 3.33337 28.6666 3.60003 28.6666 4.00003L28.6666 10.6667ZM4.66663 10.6667L3.33331 10.6667L3.33331 4.00003C3.33331 3.60003 3.59997 3.33337 3.99997 3.33337L10.6666 3.33337L10.6666 4.66669L4.66663 4.66669L4.66663 10.6667ZM10.6666 28.6667L3.99997 28.6667C3.59997 28.6667 3.33331 28.4 3.33331 28L3.33331 21.3334L4.66663 21.3334L4.66663 27.3334L10.6666 27.3334L10.6666 28.6667Z"   fill="#000000" >
</path>
</svg>
