<svg xmlns="http://www.w3.org/2000/svg" xmlns:xlink="http://www.w3.org/1999/xlink" width="24" height="24" viewBox="0 0 24 24" fill="none">
<path d="M9.59999 12.6C9.29999 12.3 8.89998 11.9 8.5 11.6L9.1 10.8C9.49998 11.1 9.89999 11.5001 10.3 11.9L9.59999 12.6ZM11.5 15.4001C11.3 14.9 11 14.4 10.7 13.9001L11.5 13.3001C11.8 13.8 12.2 14.4 12.4 14.9L11.5 15.4001ZM12.4 18.4001C12.3 17.9 12.2 17.5001 12.1 17L13.1 16.7L13.4 18.2L12.4 18.4001Z"   fill="#0063B1" >
</path>
<path d="M4.24805 17.7629L11.247 5.63794L12.113 6.13793L5.11404 18.2629L4.24805 17.7629ZM5.00004 18.2999L19.4 18.2999L19.4 19.2999L5.00004 19.2999L5.00004 18.2999Z"   fill="#000000" >
</path>
<path d="M3.90005 20.3C3.00005 20.3 2.30005 19.6 2.30005 18.7C2.30005 17.8 3.00005 17.1 3.90005 17.1C4.80006 17.1 5.50006 17.8 5.50006 18.7C5.50006 19.6 4.80006 20.3 3.90005 20.3ZM3.90005 18.2C3.60005 18.2 3.30005 18.4 3.30005 18.8C3.30005 19.2 3.50004 19.4 3.90005 19.4C4.20005 19.4 4.50005 19.2 4.50005 18.8C4.50005 18.4 4.20005 18.2 3.90005 18.2Z"   fill="#000000" >
</path>
<path d="M12 6.79997C11.1 6.79997 10.4 6.09998 10.4 5.19998C10.4 4.29998 11.1 3.59998 12 3.59998C12.9 3.59998 13.6 4.29998 13.6 5.19998C13.6 6.09998 12.8 6.79997 12 6.79997ZM12 4.69997C11.7 4.69997 11.4 4.89998 11.4 5.29997C11.4 5.69998 11.6 5.89997 12 5.89997C12.4 5.89997 12.6 5.69998 12.6 5.29997C12.6 4.89998 12.3 4.69997 12 4.69997Z"   fill="#000000" >
</path>
<path d="M20.1 20.2C19.2 20.2 18.5 19.5 18.5 18.6C18.5 17.7 19.2 17 20.1 17C21 17 21.7 17.7 21.7 18.6C21.7 19.5 20.9 20.2 20.1 20.2ZM20.1 18.1C19.8 18.1 19.5 18.3 19.5 18.7C19.5 19.1 19.7 19.3 20.1 19.3C20.4 19.3 20.7 19.1 20.7 18.7C20.7 18.3 20.4 18.1 20.1 18.1Z"   fill="#000000" >
</path>
</svg>
