<svg xmlns="http://www.w3.org/2000/svg" xmlns:xlink="http://www.w3.org/1999/xlink" width="24" height="24" viewBox="0 0 24 24" fill="none">
<path d="M2 7L3 7L3 11L2 11L2 7ZM21 7L22 7L22 11L21 11L21 7Z"   fill="#0063B1" >
</path>
<path d="M2 8.5L3.49999 8.5L3.49999 9.49998L2 9.49998L2 8.5ZM18.5 9.49998L15.5 9.49998L15.5 8.5L18.5 8.5L18.5 9.49998ZM13.5 9.49998L10.5 9.49998L10.5 8.5L13.5 8.5L13.5 9.49998ZM8.50002 9.49998L5.50002 9.49998L5.50002 8.5L8.50002 8.5L8.50002 9.49998ZM20.5 8.5L22 8.5L22 9.49998L20.5 9.49998L20.5 8.5Z"   fill="#0063B1" >
</path>
<path d="M3.79999 16L20.2 16L20.2 17L3.79999 17L3.79999 16Z"   fill="#000000" >
</path>
<path d="M2.50001 18C1.7 18 1 17.3 1 16.5C1 15.7 1.7 15 2.50001 15C3.3 15 4 15.7 4 16.5C4 17.3 3.3 18 2.50001 18ZM2.50001 16C2.2 16 2 16.2 2 16.5C2 16.8 2.2 17 2.50001 17C2.80001 17 3 16.8 3 16.5C3 16.2 2.80001 16 2.50001 16Z"   fill="#000000" >
</path>
<path d="M21.5 18C20.7 18 20 17.3 20 16.5C20 15.7 20.7 15 21.5 15C22.3 15 23 15.7 23 16.5C23 17.3 22.3 18 21.5 18ZM21.5 16C21.2 16 21 16.2 21 16.5C21 16.8 21.2 17 21.5 17C21.8 17 22 16.8 22 16.5C22 16.2 21.8 16 21.5 16Z"   fill="#000000" >
</path>
</svg>
