<svg xmlns="http://www.w3.org/2000/svg" xmlns:xlink="http://www.w3.org/1999/xlink" width="24" height="24" viewBox="0 0 24 24" fill="none">
<path d="M12 11.9999C11.9 11.9999 11.8 11.9999 11.7 11.8999L6 8.19996C5.8 8.19996 5.7 7.99994 5.7 7.79995C5.7 7.59996 5.8 7.49995 6 7.39994L8.7 5.69995C8.89999 5.59994 9.19999 5.59994 9.4 5.89994C9.49999 6.09996 9.49999 6.39996 9.19999 6.59995L7.2 7.89996L12.1 10.9L17 7.89996L15 6.59995C14.8 6.49994 14.7 6.09996 14.8 5.89994C14.9 5.69995 15.3 5.59994 15.5 5.69995L18.2 7.39994C18.3 7.49995 18.4 7.69994 18.4 7.79995C18.4 7.89996 18.3 8.09995 18.2 8.19996L12.4 11.8C12.2 11.8999 12.1 11.9999 12 11.9999ZM10.3 22C10.2 22 10.1 22 10 21.9L6.79999 19.9C6.6 19.7999 6.49999 19.3999 6.6 19.1999C6.79999 19 7.09999 19 7.39999 19.0999L9.79999 20.5999L9.79999 14.8999L4.8 11.8L4.8 14.5C4.8 14.8 4.6 14.9999 4.3 14.9999C4 14.9999 3.79999 14.8 3.79999 14.5L3.79999 10.9C3.79999 10.6999 3.9 10.6 4.09999 10.4999C4.3 10.3999 4.5 10.3999 4.6 10.4999L10.6 14.2C10.7 14.2999 10.8 14.5 10.8 14.5999L10.8 21.4C10.8 21.5999 10.7 21.7 10.5 21.7999C10.4 22 10.4 22 10.3 22Z"   fill="#000000" >
</path>
<path d="M5.49998 21.1001C5.39998 21.1001 5.29997 21.1001 5.19998 21L2.29997 19.2C2.19998 19.1 2.09998 18.9 2.09998 18.8L2.09998 15.4001C2.09998 15.2 2.19998 15.1001 2.39998 15.0001C2.59997 14.9 2.79998 14.9 2.89997 15.0001L5.79998 16.8001C5.89997 16.9001 5.99998 17.1001 5.99998 17.2001L5.99998 20.6C5.99998 20.8001 5.89997 21 5.69998 21C5.69998 21.1001 5.59997 21.1001 5.49998 21.1001ZM3.09998 18.5L4.99997 19.7L4.99997 17.5001L3.09998 16.3001L3.09998 18.5Z"   fill="#0063B1" >
</path>
<path d="M13.8 21.9999C13.7 21.9999 13.6 21.9999 13.6 21.8999C13.4 21.7999 13.3 21.5999 13.3 21.4999L13.3 14.6999C13.3 14.4999 13.4 14.3999 13.5 14.2999L19.5 10.5999C19.7 10.4999 19.8 10.4999 20 10.5999C20.2 10.6999 20.3 10.8999 20.3 10.9999L20.3 14.5999C20.3 14.8999 20.1 15.0999 19.8 15.0999C19.5 15.0999 19.3 14.8999 19.3 14.5999L19.3 11.8999L14.3 14.9999L14.3 20.6999L16.7 19.1999C16.9 19.0999 17.2 19.0999 17.4 19.3999C17.5 19.5999 17.5 19.8999 17.2 20.0999L14.1 21.9999L13.8 21.9999Z"   fill="#000000" >
</path>
<path d="M18.5 21.0999C18.4 21.0999 18.3 21.0999 18.3 20.9999C18.1 20.9999 18 20.7999 18 20.5999L18 17.1999C18 16.9999 18.1 16.8999 18.2 16.7999L21.1 14.9999C21.3 14.8999 21.4 14.8999 21.6 14.9999C21.8 15.0999 21.9 15.2999 21.9 15.3999L21.9 18.7999C21.9 18.9999 21.8 19.0999 21.7 19.1999L18.8 20.9999C18.7 21.0999 18.6 21.0999 18.5 21.0999ZM19 17.4999L19 19.6999L20.9 18.4999L20.9 16.2999L19 17.4999ZM12 6.69991C11.9 6.69991 11.8 6.69991 11.7 6.5999L8.69999 4.69989C8.59999 4.69989 8.5 4.4999 8.5 4.39989C8.5 4.1999 8.59999 4.09989 8.69999 3.99991L11.7 2.0999C11.9 1.9999 12.1 1.9999 12.2 2.0999L15.2 3.99991C15.3 4.09989 15.4 4.29991 15.4 4.39989C15.4 4.59991 15.3 4.69989 15.2 4.7999L12.2 6.69991L12 6.69991ZM10 4.39989L12 5.6999L14 4.39989L12 3.09991L10 4.39989Z"   fill="#0063B1" >
</path>
</svg>
