<svg xmlns="http://www.w3.org/2000/svg" xmlns:xlink="http://www.w3.org/1999/xlink" width="24" height="24"
    viewBox="0 0 24 24" fill="none">
    <path
        d="M16.5 7L5 7C4.44772 7 4 7.44772 4 8L4 18.5C4 19.0523 4.44772 19.5 5 19.5L16.5 19.5C17.0523 19.5 17.5 19.0523 17.5 18.5L17.5 8C17.5 7.44772 17.0523 7 16.5 7ZM5 18.5L5 8L16.5 8L16.5 18.5L5 18.5Z"
        fill-rule="evenodd" fill="#FFFFFF">
    </path>
    <path fill="#FFFFFF"
        d="M7 4.5L19 4.5L19 5L19 4.5C19.5523 4.5 20 4.94772 20 5.5L19.5 5.5L20 5.5L20 16.5L19 16.5L19 5.5L19 5.5C19 5.5 19 5.5 19 5.5L19 5.5L7 5.5L7 4.5ZM7 5.5C6.72386 5.5 6.5 5.27614 6.5 5C6.5 4.72386 6.72386 4.5 7 4.5C7.27614 4.5 7.5 4.72386 7.5 5C7.5 5.27614 7.27614 5.5 7 5.5ZM19.5 17C19.2239 17 19 16.7761 19 16.5C19 16.2239 19.2239 16 19.5 16C19.7761 16 20 16.2239 20 16.5C20 16.7761 19.7761 17 19.5 17Z">
    </path>
</svg>