<svg xmlns="http://www.w3.org/2000/svg" xmlns:xlink="http://www.w3.org/1999/xlink" width="32" height="32" viewBox="0 0 32 32" fill="none">
<path d="M7.86663 11.3333C7.73331 11.3333 7.59997 11.3333 7.46663 11.2C6.13331 10.4 5.33331 8.93331 5.33331 7.33331C5.33331 4.79996 7.46663 2.66663 9.99997 2.66663C12.5333 2.66663 14.5333 4.66662 14.6666 7.06663C14.6666 7.46663 14.4 7.73331 14 7.73331C13.6 7.73331 13.3333 7.46663 13.3333 7.06663C13.2 5.3333 11.7333 3.99996 9.99997 3.99996C8.13331 3.99996 6.66663 5.46662 6.66663 7.33331C6.66663 8.53331 7.19997 9.46663 8.13331 10.1333C8.39997 10.4 8.53331 10.8 8.26663 11.0666C8.26663 11.2 7.99997 11.3333 7.86663 11.3333Z"   fill="#0063B1" >
</path>
<path d="M8 7.33337C8 7.3661 8.0008 7.39881 8.00241 7.4315C8.00401 7.46419 8.00642 7.49682 8.00963 7.52941C8.01283 7.56197 8.01684 7.59444 8.02166 7.62681C8.02645 7.65921 8.03204 7.69145 8.03844 7.72353C8.04481 7.75563 8.05198 7.78756 8.05994 7.81931C8.0679 7.85106 8.07662 7.8826 8.08613 7.91394C8.09562 7.94525 8.10589 7.97632 8.11691 8.00716C8.12793 8.03797 8.13971 8.06849 8.15225 8.09872C8.16477 8.12897 8.17803 8.15888 8.19203 8.18847C8.20601 8.21805 8.22072 8.24728 8.23616 8.27616C8.25159 8.30503 8.26772 8.3335 8.28453 8.36156C8.30136 8.38965 8.31888 8.41729 8.33706 8.4445C8.35525 8.47172 8.37409 8.49847 8.39359 8.52475C8.41309 8.55103 8.43322 8.57684 8.45397 8.60216C8.47474 8.62744 8.49612 8.65222 8.51809 8.67647C8.54007 8.70075 8.56263 8.72444 8.58578 8.74759C8.60893 8.77072 8.63262 8.79328 8.65687 8.81528C8.68112 8.83725 8.70591 8.85862 8.73122 8.87937C8.75651 8.90016 8.7823 8.92028 8.80859 8.93978C8.83488 8.95928 8.86163 8.97812 8.88884 8.99631C8.91607 9.0145 8.94372 9.032 8.97178 9.04881C8.99987 9.06565 9.02834 9.08178 9.05722 9.09722C9.08607 9.11262 9.11529 9.12734 9.14487 9.14134C9.17448 9.15534 9.2044 9.16859 9.23462 9.18112C9.26488 9.19366 9.29541 9.20541 9.32622 9.21644C9.35703 9.22747 9.3881 9.23775 9.41944 9.24725C9.45075 9.25675 9.48228 9.26547 9.51403 9.27344C9.54578 9.28137 9.57771 9.28853 9.60981 9.29494C9.64192 9.30131 9.67416 9.30691 9.70653 9.31172C9.73891 9.31653 9.77138 9.32053 9.80397 9.32375C9.83653 9.32697 9.86917 9.32937 9.90187 9.33097C9.93456 9.33256 9.96727 9.33337 10 9.33337C10.0327 9.33337 10.0654 9.33256 10.0981 9.33097C10.1308 9.32937 10.1635 9.32697 10.196 9.32375C10.2286 9.32053 10.2611 9.31653 10.2935 9.31172C10.3258 9.30691 10.3581 9.30131 10.3902 9.29494C10.4223 9.28853 10.4542 9.28137 10.486 9.27344C10.5177 9.26547 10.5492 9.25675 10.5806 9.24725C10.6119 9.23775 10.643 9.22747 10.6738 9.21644C10.7046 9.20541 10.7351 9.19366 10.7654 9.18112C10.7956 9.16859 10.8255 9.15534 10.8551 9.14134C10.8847 9.12734 10.9139 9.11262 10.9428 9.09722C10.9717 9.08178 11.0001 9.06565 11.0282 9.04881C11.0563 9.032 11.0839 9.0145 11.1111 8.99631C11.1383 8.97812 11.1651 8.95928 11.1914 8.93978C11.2177 8.92028 11.2435 8.90016 11.2688 8.87937C11.2941 8.85862 11.3189 8.83725 11.3431 8.81528C11.3674 8.79328 11.3911 8.77072 11.4142 8.74759C11.4374 8.72444 11.4599 8.70075 11.4819 8.67647C11.5039 8.65222 11.5252 8.62744 11.546 8.60216C11.5668 8.57684 11.5869 8.55103 11.6064 8.52475C11.6259 8.49847 11.6448 8.47172 11.6629 8.4445C11.6811 8.41729 11.6986 8.38965 11.7155 8.36156C11.7323 8.3335 11.7484 8.30503 11.7638 8.27616C11.7793 8.24728 11.794 8.21805 11.808 8.18847C11.822 8.15888 11.8352 8.12897 11.8477 8.09872C11.8603 8.06849 11.8721 8.03797 11.8831 8.00716C11.8941 7.97632 11.9044 7.94525 11.9139 7.91394C11.9234 7.8826 11.9321 7.85106 11.9401 7.81931C11.948 7.78756 11.9552 7.75563 11.9616 7.72353C11.968 7.69145 11.9736 7.65921 11.9783 7.62681C11.9832 7.59444 11.9872 7.56197 11.9904 7.52941C11.9936 7.49682 11.996 7.46419 11.9976 7.4315C11.9992 7.39881 12 7.3661 12 7.33337C12 7.30065 11.9992 7.26793 11.9976 7.23522C11.996 7.20253 11.9936 7.16991 11.9904 7.13734C11.9872 7.10476 11.9832 7.07228 11.9783 7.03991C11.9736 7.00753 11.968 6.97529 11.9616 6.94319C11.9552 6.91108 11.948 6.87916 11.9401 6.84741C11.9321 6.81566 11.9234 6.78411 11.9139 6.75278C11.9044 6.72147 11.8941 6.69041 11.8831 6.65959C11.8721 6.62876 11.8603 6.59823 11.8477 6.568C11.8352 6.53775 11.822 6.50783 11.808 6.47825C11.794 6.44866 11.7793 6.41944 11.7638 6.39056C11.7484 6.36171 11.7323 6.33324 11.7155 6.30516C11.6986 6.27707 11.6811 6.24943 11.6629 6.22222C11.6448 6.19501 11.6259 6.16826 11.6064 6.14197C11.5869 6.11568 11.5668 6.08987 11.546 6.06456C11.5252 6.03927 11.5039 6.0145 11.4819 5.99025C11.4599 5.966 11.4374 5.9423 11.4142 5.91916C11.3911 5.89601 11.3674 5.87345 11.3431 5.85147C11.3189 5.82949 11.2941 5.80811 11.2688 5.78734C11.2435 5.76657 11.2177 5.74644 11.1914 5.72694C11.1651 5.70744 11.1383 5.6886 11.1111 5.67044C11.0839 5.65225 11.0563 5.63474 11.0282 5.61791C11.0001 5.60107 10.9717 5.58495 10.9428 5.56953C10.9139 5.55409 10.8847 5.53937 10.8551 5.52537C10.8255 5.51139 10.7956 5.49813 10.7654 5.48559C10.7351 5.47307 10.7046 5.4613 10.6738 5.45028C10.643 5.43926 10.6119 5.42899 10.5806 5.41947C10.5492 5.40997 10.5177 5.40125 10.486 5.39331C10.4542 5.38535 10.4223 5.37818 10.3902 5.37178C10.3581 5.36541 10.3258 5.35981 10.2935 5.355C10.2611 5.35021 10.2286 5.34621 10.196 5.343C10.1635 5.33979 10.1308 5.33738 10.0981 5.33578C10.0654 5.33418 10.0327 5.33337 10 5.33337C9.96727 5.33337 9.93456 5.33418 9.90187 5.33578C9.86917 5.33738 9.83653 5.33979 9.80397 5.343C9.77138 5.34621 9.73891 5.35021 9.70653 5.355C9.67416 5.35981 9.64192 5.36541 9.60981 5.37178C9.57771 5.37818 9.54578 5.38535 9.51403 5.39331C9.48228 5.40125 9.45075 5.40997 9.41944 5.41947C9.3881 5.42899 9.35703 5.43926 9.32622 5.45028C9.29541 5.4613 9.26488 5.47307 9.23462 5.48559C9.2044 5.49813 9.17448 5.51139 9.14487 5.52537C9.11529 5.53937 9.08607 5.55409 9.05722 5.56953C9.02834 5.58495 8.99987 5.60107 8.97178 5.61791C8.94372 5.63474 8.91607 5.65225 8.88884 5.67044C8.86163 5.6886 8.83488 5.70744 8.80859 5.72694C8.7823 5.74644 8.75651 5.76657 8.73122 5.78734C8.70591 5.80811 8.68112 5.82949 8.65687 5.85147C8.63262 5.87345 8.60893 5.89601 8.58578 5.91916C8.56263 5.9423 8.54007 5.966 8.51809 5.99025C8.49612 6.0145 8.47474 6.03927 8.45397 6.06456C8.43322 6.08987 8.41309 6.11568 8.39359 6.14197C8.37409 6.16826 8.35525 6.19501 8.33706 6.22222C8.31888 6.24943 8.30136 6.27707 8.28453 6.30516C8.26772 6.33324 8.25159 6.36171 8.23616 6.39056C8.22072 6.41944 8.20601 6.44866 8.19203 6.47825C8.17803 6.50783 8.16477 6.53775 8.15225 6.568C8.13971 6.59823 8.12793 6.62876 8.11691 6.65959C8.10589 6.69041 8.09562 6.72147 8.08613 6.75278C8.07662 6.78411 8.0679 6.81566 8.05994 6.84741C8.05198 6.87916 8.04481 6.91108 8.03844 6.94319C8.03204 6.97529 8.02645 7.00753 8.02166 7.03991C8.01684 7.07228 8.01283 7.10476 8.00963 7.13734C8.00642 7.16991 8.00401 7.20253 8.00241 7.23522C8.0008 7.26793 8 7.30065 8 7.33337Z"   fill="#0063B1" >
</path>
<path d="M12 28L11.8666 28C11.6 27.8666 11.4666 27.7333 11.3333 27.4666L9.33331 7.33331C9.33331 7.06663 9.46663 6.79997 9.59997 6.66663C9.86663 6.66663 10.1333 6.66663 10.4 6.79997L27.7333 18.4C28 18.5333 28.1333 18.8 28 19.0666C27.8666 19.3333 27.7333 19.6 27.4666 19.6L18.1333 20.4L12.6666 27.6C12.4 27.8666 12.2666 28 12 28ZM10.8 8.66663L12.5333 25.6L17.2 19.4666C17.3333 19.3333 17.4666 19.2 17.7333 19.2L25.6 18.5333L10.8 8.66663Z"   fill="#000000" >
</path>
</svg>
