<svg xmlns="http://www.w3.org/2000/svg" xmlns:xlink="http://www.w3.org/1999/xlink" width="24" height="24" viewBox="0 0 24 24" fill="none">
<path d="M4.50004 5.22138C4.50004 5.02917 4.6542 4.875 4.84642 4.875L9.5726 4.875C9.76481 4.875 9.91898 5.02917 9.91898 5.22138L9.91898 9.94756C9.91898 10.1398 9.76481 10.2939 9.5726 10.2939L9.2801 10.2939C9.08788 10.2939 8.92602 10.1398 8.92602 9.94756L8.92602 6.57612C6.89524 7.62076 5.50839 9.74721 5.50839 12.1875C5.50839 15.6891 8.35202 18.4916 11.8202 18.4916C15.3219 18.4916 18.1244 15.6557 18.1244 12.1875C18.1244 10.5662 17.5191 9.0815 16.5079 7.96164C16.3826 7.81957 16.3896 7.61042 16.5233 7.47671L16.7311 7.26888C16.8732 7.12681 17.1048 7.13385 17.2469 7.28427C18.4169 8.57963 19.1327 10.3071 19.1327 12.1875C19.1327 16.224 15.8644 19.4916 11.8279 19.5C7.79979 19.5083 4.51675 16.2304 4.50004 12.2106C4.49168 9.51123 5.94495 7.1543 8.11779 5.87566L4.85411 5.87566C4.6619 5.87566 4.50773 5.71379 4.50773 5.52158L4.50773 5.22138L4.50004 5.22138Z"   fill="#FFFFFF" >
</path>
</svg>
