<svg xmlns="http://www.w3.org/2000/svg" xmlns:xlink="http://www.w3.org/1999/xlink" width="24" height="24" viewBox="0 0 24 24" fill="none">
<path d="M19 12C19 10.05 18.3187 8.398 16.96 7.04C15.6013 5.682 13.9493 5 12 5C10.5947 5 9.3313 5.37 8.21 6.11C7.0873 6.85133 6.2467 7.81467 5.69 9L8.5 9C8.642 9 8.764 9.04467 8.86 9.14C8.956 9.23533 9 9.35733 9 9.5C9 9.64267 8.9547 9.76467 8.86 9.86C8.7653 9.95533 8.6433 10 8.5 10L4.81 10C4.5773 10 4.3827 9.92333 4.23 9.77C4.0773 9.61667 4 9.422 4 9.19L4 5.5C4 5.358 4.0447 5.236 4.14 5.14C4.2353 5.044 4.3573 5 4.5 5C4.6427 5 4.7647 5.04533 4.86 5.14C4.9553 5.23467 5 5.35667 5 5.5L5 8.31C5.6667 7.03267 6.616 5.99867 7.85 5.2C9.084 4.40133 10.468 4 12 4C13.1093 4 14.1507 4.21267 15.12 4.63C16.0893 5.04733 16.9347 5.61467 17.66 6.34C18.3853 7.06533 18.9527 7.91067 19.37 8.88C19.7873 9.84933 20 10.8907 20 12C20 13.6913 19.5233 15.2087 18.57 16.55C17.6167 17.8913 16.3873 18.86 14.89 19.45C14.7647 19.4987 14.638 19.4987 14.51 19.45C14.3813 19.4013 14.2987 19.306 14.25 19.18C14.2013 19.0547 14.2047 18.93 14.26 18.8C14.3153 18.67 14.4053 18.5787 14.53 18.53C15.8433 18.026 16.916 17.1913 17.75 16.02C18.584 14.8487 19 13.5087 19 12Z"   fill="#000000" >
</path>
<path d="M8.00464 17.4998C7.17621 17.4998 6.50464 16.8282 6.50464 15.9998C6.50464 15.1713 7.17621 14.4998 8.00464 14.4998C8.83307 14.4998 9.50464 15.1713 9.50464 15.9998C9.50464 16.8282 8.83307 17.4998 8.00464 17.4998Z" stroke="rgba(0, 99, 177, 1)" stroke-width="1"   >
</path>
<path    stroke="rgba(0, 99, 177, 1)" stroke-width="1"  stroke-linecap="round"  d="M11.1111 16L12 16M4 16L4.88889 16M10.2 18.2L10.8284 18.8284M5.17156 13.1716L5.8 13.8M8 19.1111L8 20M8 12L8 12.8889M5.8 18.2L5.17156 18.8284M10.8284 13.1716L10.2 13.8">
</path>
</svg>
