<svg xmlns="http://www.w3.org/2000/svg" xmlns:xlink="http://www.w3.org/1999/xlink" width="24" height="24" viewBox="0 0 24 24" fill="none">
<g  clip-path="url(#clip-path-134_105)">
<path d="M10.8001 22.0001C10.7001 22.0001 10.6001 22.0001 10.6001 21.9001L2.30006 17.2001C2.10006 17.1001 2.00006 16.9001 2.00006 16.7001L2.00006 7.30009C2.00006 7.10007 2.10006 7.00009 2.20006 6.90008C2.40006 6.80007 2.50007 6.80007 2.70006 6.90008L11.0001 11.6001C11.2001 11.7001 11.3001 11.9001 11.3001 12.0001L11.3001 21.5001C11.3001 21.7001 11.2001 21.8001 11.1001 21.9001C11.0001 21.9001 10.9001 22.0001 10.8001 22.0001ZM3.00006 16.4001L10.3001 20.6001L10.3001 12.3001L3.00006 8.10008L3.00006 16.4001Z"   fill="#000000" >
</path>
<path d="M10.8 22.0001C10.7 22.0001 10.6 22.0001 10.5 21.9001C10.3 21.8001 10.3 21.6001 10.3 21.5001L10.3 12.0001C10.3 11.8001 10.4 11.7001 10.6 11.6001L18.9 6.90008C19.1 6.80007 19.2 6.80007 19.4 6.90008C19.6 7.00009 19.6 7.20008 19.6 7.30009L19.6 12.2001L18.6 12.2001L18.6 8.20009L11.3 12.4001L11.3 20.7001L15.1 18.5001L15.6 19.4001L11 21.9001C11 21.9001 10.9 22.0001 10.8 22.0001Z"   fill="#000000" >
</path>
<path d="M10.8001 12.5C10.7001 12.5 10.6001 12.5 10.6001 12.4L2.30006 7.69999C2.10006 7.6 2.00006 7.5 2.00006 7.3C2.00006 7.09999 2.10006 7 2.30006 6.9L10.6001 2.19999C10.7001 1.99999 10.9001 1.99999 11.0001 2.09999L19.3001 6.79999C19.5001 6.9 19.6001 7.09999 19.6001 7.2C19.6001 7.39999 19.5001 7.5 19.3001 7.6L11.0001 12.4C11.0001 12.5 10.9001 12.5 10.8001 12.5ZM3.50005 7.3L10.8001 11.5L18.1001 7.3L10.8001 3.1L3.50005 7.3Z"   fill="#000000" >
</path>
<path d="M16.975 19.5626C14.375 19.5626 11.975 18.1626 10.575 15.8626C10.475 15.7626 10.475 15.5626 10.575 15.3626C11.875 13.0626 14.375 11.6626 16.975 11.6626C19.575 11.6626 21.975 13.0626 23.375 15.3626C23.475 15.4626 23.475 15.6626 23.375 15.8626C21.975 18.1626 19.475 19.5626 16.975 19.5626ZM11.475 15.5626C12.675 17.4626 14.675 18.5626 16.875 18.5626C19.075 18.5626 21.075 17.4626 22.275 15.5626C21.075 13.6626 19.075 12.5626 16.875 12.5626C14.775 12.5626 12.775 13.6626 11.475 15.5626Z"   fill="#0063B1" >
</path>
<path d="M12.2775 20.6625C12.1775 20.6625 12.0775 20.6625 11.9775 20.5625C11.7775 20.3625 11.7775 20.0625 11.9775 19.8625L21.3775 10.4625C21.5775 10.2625 21.8775 10.2625 22.0775 10.4625C22.2775 10.6625 22.2775 10.9625 22.0775 11.1625L12.6775 20.5625C12.5775 20.6625 12.4775 20.6625 12.2775 20.6625Z"   fill="#0063B1" >
</path>
<path d="M16.9725 18.06C15.6725 18.06 14.5725 16.96 14.5725 15.66C14.5725 14.36 15.6725 13.26 16.9725 13.26C18.2725 13.26 19.3725 14.36 19.3725 15.66C19.3725 16.96 18.2725 18.06 16.9725 18.06ZM16.9725 14.16C16.1725 14.16 15.4725 14.86 15.4725 15.66C15.4725 16.46 16.1725 17.16 16.9725 17.16C17.7725 17.16 18.4725 16.46 18.4725 15.66C18.3725 14.76 17.7725 14.16 16.9725 14.16Z"   fill="#0063B1" >
</path>
</g>
<defs>
<clipPath id="clip-path-134_105">
<path d="M0 24L24 24L24 0L0 0L0 24Z" fill="white"/>
</clipPath>
</defs>
</svg>
