<svg xmlns="http://www.w3.org/2000/svg" xmlns:xlink="http://www.w3.org/1999/xlink" width="32" height="32" viewBox="0 0 32 32" fill="none">
<path d="M14.4001 29.3334C14.2667 29.3334 14.1334 29.3334 14.1334 29.2001L3.06675 22.9334C2.80008 22.8001 2.66675 22.5334 2.66675 22.2668L2.66675 9.73345C2.66675 9.46676 2.80008 9.33345 2.93342 9.20011C3.20008 9.06676 3.33343 9.06676 3.60008 9.20011L14.6667 15.4668C14.9334 15.6001 15.0667 15.8668 15.0667 16.0001L15.0667 28.6668C15.0667 28.9334 14.9334 29.0668 14.8001 29.2001C14.6667 29.2001 14.5334 29.3334 14.4001 29.3334ZM4.00008 21.8668L13.7334 27.4668L13.7334 16.4001L4.00008 10.8001L4.00008 21.8668Z"   fill="#000000" >
</path>
<path d="M14.4001 29.3334C14.2667 29.3334 14.1334 29.3334 14.0001 29.2001C13.7334 29.0668 13.7334 28.8001 13.7334 28.6668L13.7334 16.0001C13.7334 15.7334 13.8667 15.6001 14.1334 15.4668L25.2001 9.20011C25.4667 9.06676 25.6001 9.06676 25.8667 9.20011C26.1334 9.33345 26.1334 9.60011 26.1334 9.73345L26.1334 16.2668L24.8001 16.2668L24.8001 10.9335L15.0667 16.5334L15.0667 27.6001L20.1334 24.6668L20.8001 25.8668L14.6667 29.2001C14.6667 29.2001 14.5334 29.3334 14.4001 29.3334Z"   fill="#000000" >
</path>
<path d="M14.4001 16.6667C14.2667 16.6667 14.1334 16.6667 14.1334 16.5333L3.06675 10.2667C2.80008 10.1333 2.66675 10 2.66675 9.73334C2.66675 9.46665 2.80008 9.33334 3.06675 9.2L14.1334 2.93332C14.2667 2.66665 14.5334 2.66665 14.6667 2.79998L25.7334 9.06665C26.0001 9.2 26.1334 9.46665 26.1334 9.6C26.1334 9.86665 26.0001 10 25.7334 10.1333L14.6667 16.5333C14.6667 16.6667 14.5334 16.6667 14.4001 16.6667ZM4.66674 9.73334L14.4001 15.3333L24.1334 9.73334L14.4001 4.13333L4.66674 9.73334Z"   fill="#000000" >
</path>
<path d="M22.6333 26.0834C19.1667 26.0834 15.9667 24.2167 14.1 21.15C13.9667 21.0167 13.9667 20.75 14.1 20.4834C15.8333 17.4167 19.1667 15.55 22.6333 15.55C26.1 15.55 29.3 17.4167 31.1667 20.4834C31.3 20.6167 31.3 20.8834 31.1667 21.15C29.3 24.2167 25.9667 26.0834 22.6333 26.0834ZM15.3 20.75C16.9 23.2834 19.5667 24.75 22.5 24.75C25.4333 24.75 28.1 23.2834 29.7 20.75C28.1 18.2167 25.4333 16.75 22.5 16.75C19.7 16.75 17.0333 18.2167 15.3 20.75Z"   fill="#FFB700" >
</path>
<path d="M16.37 27.55C16.2367 27.55 16.1033 27.55 15.97 27.4167C15.7033 27.15 15.7033 26.75 15.97 26.4833L28.5033 13.95C28.77 13.6833 29.1701 13.6833 29.4367 13.95C29.7034 14.2167 29.7034 14.6167 29.4367 14.8833L16.9033 27.4167C16.77 27.55 16.6367 27.55 16.37 27.55Z"   fill="#FFB700" >
</path>
<path d="M22.6301 24.0801C20.8967 24.0801 19.4301 22.6134 19.4301 20.8801C19.4301 19.1467 20.8967 17.6801 22.6301 17.6801C24.3634 17.6801 25.8301 19.1467 25.8301 20.8801C25.8301 22.6134 24.3634 24.0801 22.6301 24.0801ZM22.6301 18.8801C21.5634 18.8801 20.6301 19.8134 20.6301 20.8801C20.6301 21.9467 21.5634 22.8801 22.6301 22.8801C23.6967 22.8801 24.6301 21.9467 24.6301 20.8801C24.4967 19.6801 23.6967 18.8801 22.6301 18.8801Z"   fill="#FFB700" >
</path>
</svg>
