<svg xmlns="http://www.w3.org/2000/svg" xmlns:xlink="http://www.w3.org/1999/xlink" width="24" height="24" viewBox="0 0 24 24" fill="none">
<path d="M4.59998 18.4L3.59998 18.4L3.59998 14.4L4.59998 14.4L4.59998 18.4ZM4.59998 12.4L3.59998 12.4L3.59998 8.40001L4.59998 8.40001L4.59998 12.4ZM4.59998 6.40002L3.59998 6.40002L3.59998 5.6L4.59998 5.6L4.59998 6.40002ZM18.4 20.4L14.4 20.4L14.4 19.4L18.4 19.4L18.4 20.4ZM12.4 20.4L8.39997 20.4L8.39997 19.4L12.4 19.4L12.4 20.4ZM6.39998 20.4L5.59997 20.4L5.59997 19.4L6.29998 19.4L6.29998 20.4L6.39998 20.4ZM20.4 18.4L19.4 18.4L19.4 17.7L20.4 17.7L20.4 18.4ZM20.4 15.6L19.4 15.6L19.4 11.6L20.4 11.6L20.4 15.6ZM20.4 9.60001L19.4 9.60001L19.4 5.6L20.4 5.6L20.4 9.60001ZM18.4 4.50001L17.7 4.50001L17.7 3.5L18.4 3.5L18.4 4.50001ZM15.6 4.50001L11.6 4.50001L11.6 3.5L15.6 3.5L15.6 4.50001ZM9.59998 4.50001L5.59997 4.50001L5.59997 3.5L9.59998 3.5L9.59998 4.50001Z"   fill="#000000" >
</path>
<path d="M21.5 6.10002L18.4 6.10002C18.1 6.10002 17.9 5.9 17.9 5.6L17.9 2.50001C17.9 2.2 18.1 2 18.4 2L21.5 2C21.8 2 22 2.2 22 2.50001L22 5.6C22 5.9 21.8 6.10002 21.5 6.10002ZM18.9 5.10001L21 5.10001L21 3L18.9 3L18.9 5.10001ZM5.6 6.10002L2.50001 6.10002C2.2 6.10002 2 5.9 2 5.6L2 2.50001C2 2.2 2.2 2 2.50001 2L5.6 2C5.9 2 6.10002 2.2 6.10002 2.50001L6.10002 5.6C6.10002 5.9 5.9 6.10002 5.6 6.10002ZM3 5.10001L5.10001 5.10001L5.10001 3L3 3L3 5.10001Z"   fill="#000000" >
</path>
<path d="M5.6 22L2.50001 22C2.2 22 2 21.8 2 21.5L2 18.4C2 18.1 2.2 17.9 2.50001 17.9L5.6 17.9C5.9 17.9 6.10002 18.1 6.10002 18.4L6.10002 21.5C6.10002 21.8 5.9 22 5.6 22ZM3 21L5.10001 21L5.10001 18.9L3 18.9L3 21Z"   fill="#000000" >
</path>
<path d="M21.5 22L18.4 22C18.1 22 17.9 21.8 17.9 21.5L17.9 18.4C17.9 18.1 18.1 17.9 18.4 17.9L21.5 17.9C21.8 17.9 22 18.1 22 18.4L22 21.5C22 21.8 21.8 22 21.5 22ZM18.9 21L21 21L21 18.9L18.9 18.9L18.9 21Z"   fill="#000000" >
</path>
<path d="M7.80004 9.90006L7.30005 9.00006L11.8 6.50004C12 6.40005 12.1 6.40005 12.3 6.50004L16.7 9.00006L16.2 9.90006L12 7.50004L7.80004 9.90006Z"   fill="#0063B1" >
</path>
<path d="M12 17.6C11.9 17.6 11.8 17.6 11.7 17.5001C11.5 17.4 11.5 17.2001 11.5 17.1L11.5 12C11.5 11.8001 11.6 11.7 11.8 11.6L16.2 9.00006C16.4 8.90005 16.5 8.90005 16.7 9.00006C16.9 9.10006 16.9 9.30005 16.9 9.40006L16.9 14.5001C16.9 14.7 16.8 14.8001 16.6 14.9L12.2 17.4C12.2 17.5001 12.1 17.6 12 17.6ZM12.5 12.3L12.5 16.2L15.9 14.2001L15.9 10.3001L12.5 12.3Z"   fill="#0063B1" >
</path>
<path d="M11.8 17.5001L7.3 15C7.09998 14.9 7 14.7 7 14.5001L7 9.40006C7 9.30005 7.09998 9.10006 7.3 9.00006C7.49999 8.90005 7.6 8.90005 7.79999 9.00006L12.3 11.5001L11.8 12.4001L7.99998 10.3001L7.99998 14.2001L12.2 16.6001L11.8 17.5001Z"   fill="#0063B1" >
</path>
</svg>
