<svg xmlns="http://www.w3.org/2000/svg" xmlns:xlink="http://www.w3.org/1999/xlink" width="24" height="24" viewBox="0 0 24 24" fill="none">
<g opacity="0.3">
<path d="M11.6 7.40002L12.6 7.40002L12.6 11.9L11.6 11.9L11.6 7.40002Z"   fill="#000000" >
</path>
</g>
<g opacity="0.3">
<path d="M4.69994 16.7L4.19995 15.8L11.8999 11.5L12.4 12.3L4.69994 16.7Z"   fill="#000000" >
</path>
</g>
<g opacity="0.3">
<path d="M19.6 16.7L11.9 12.3L12.4 11.5L20.1 15.8L19.6 16.7Z"   fill="#000000" >
</path>
</g>
<path d="M12 21C11.9 21 11.8 21 11.7 20.9C11.5 20.8 11.5 20.6 11.5 20.5L11.5 15.3L12.5 15.3L12.5 19.7L19 16L19 11.9L20 11.9L20 16.3C20 16.5 19.9 16.6 19.7 16.7L12.2 21L12 21Z"   fill="#000000" >
</path>
<path d="M12 21C11.9 21 11.8 21 11.8 20.9L4.3 16.6C4.09998 16.6 4 16.4 4 16.3L4 11.9L4.99998 11.9L4.99998 16L11.5 19.7L11.5 15.3L12.5 15.3L12.5 20.5C12.5 20.7 12.4 20.8 12.3 20.9C12.2 21 12.1 21 12 21Z"   fill="#000000" >
</path>
<path d="M20.3 10L12 14.6L3.69995 10L12 5.30005L20.3 10Z"   fill="#0082E6" fill-opacity="0.3">
</path>
<path d="M20.3 9.90002L12 14.6L3.70002 10L0.5 11.8L12 18.3L23.5001 11.8L20.3 9.90002Z"   fill="#0082E6" fill-opacity="0.45">
</path>
<path d="M18 9.20004L17.5 8.30004L18.5 7.70004L17.5 7.10004L18 6.20004L19.7 7.20005C19.9 7.40004 20 7.60006 20 7.80005C20 8.00004 19.9 8.10005 19.7 8.20006L18 9.20004ZM15 10.9001L14.5 10.0001L16.5 8.90004L17 9.70006L15 10.9001ZM12 12.5C11.9 12.5 11.8 12.5 11.8 12.4001L10.1 11.4L10.6 10.5L12.1 11.3L13.6 10.5L14.1 11.4L12.4 12.4001C12.2 12.5 12.1 12.5 12 12.5ZM8.99999 10.9001L7 9.70006L7.49999 8.90004L9.49998 10.0001L8.99999 10.9001ZM5.99999 9.20004L4.3 8.20006C4.09998 8.10005 4 7.90006 4 7.80005C4 7.60006 4.09998 7.50005 4.3 7.40004L5.99999 6.40006L6.49998 7.30006L5.5 7.90006L6.49998 8.40005L5.99999 9.20004ZM7.49999 6.60005L7 5.80006L8.99999 4.60006L9.49998 5.50006L7.49999 6.60005ZM13.5 4.90006L12 4.10005L10.5 4.90006L10 4.00006L11.7 3.00005C11.9 2.90005 12 2.90005 12.2 3.00005L14 4.00006L13.5 4.90006ZM16.5 6.60005L14.5 5.50006L15 4.60006L17 5.80006L16.5 6.60005Z"   fill="#000000" >
</path>
<path d="M4 7.80005L4.99998 7.80005L4.99998 9.80004L4 9.80004L4 7.80005ZM4 9.90005L4.99998 9.90005L4.99998 11.9L4 11.9L4 9.90005Z"   fill="#000000" >
</path>
<path d="M19 7.69995L20 7.69995L20 9.69997L19 9.69997L19 7.69995ZM19 9.89996L20 9.89996L20 11.9L19 11.9L19 9.89996Z"   fill="#000000" >
</path>
<path d="M11.5 12L12.5 12L12.5 13.5L11.5 13.5L11.5 12ZM11.5 13.8L12.5 13.8L12.5 15.3L11.5 15.3L11.5 13.8Z"   fill="#000000" >
</path>
<g opacity="0.3">
<path d="M12.6 5.19997L11.6 5.19997L11.6 3.19995L12.6 4.19996L12.6 5.19997ZM11.6 5.39996L12.6 5.39996L12.6 7.39995L11.6 7.39995L11.6 5.39996Z"   fill="#000000" >
</path>
</g>
</svg>
