<svg xmlns="http://www.w3.org/2000/svg" xmlns:xlink="http://www.w3.org/1999/xlink" width="24" height="24" viewBox="0 0 24 24" fill="none">
<path d="M4.10205 9.81698L9.76205 4.15698L10.4621 4.86698L4.81205 10.517L4.10205 9.81698ZM4.26205 14.407L14.3021 4.36698L15.0121 5.07698L4.97205 15.117L4.26205 14.407ZM13.5321 19.147L19.1821 13.497L19.8921 14.197L14.2321 19.857L13.5321 19.147ZM8.91205 19.007L18.9521 8.96698L19.6521 9.67698L9.61205 19.717L8.91205 19.007ZM5.49205 17.807L17.8621 5.42698L18.5721 6.13698L6.20205 18.517L5.49205 17.807Z"   fill="#0063B1" >
</path>
<path d="M4 5.99999L4.99998 5.99999L4.99998 18L4 18L4 5.99999ZM5.99999 19L18.1 19L18.1 20L5.99999 20L5.99999 19ZM19 5.99999L20 5.99999L20 18L19 18L19 5.99999ZM5.99999 4L18.1 4L18.1 4.99998L5.99999 4.99998L5.99999 4Z"   fill="#000000" >
</path>
<path d="M21.5 6.49998L17.5 6.49998L17.5 2.5L21.5 2.5L21.5 6.49998ZM18.5 5.5L20.5 5.5L20.5 3.49998L18.5 3.49998L18.5 5.5Z"   fill="#000000" >
</path>
<path d="M6.49998 6.49998L2.5 6.49998L2.5 2.5L6.49998 2.5L6.49998 6.49998ZM3.49998 5.5L5.5 5.5L5.5 3.49998L3.49998 3.49998L3.49998 5.5Z"   fill="#000000" >
</path>
<path d="M6.49998 21.5L2.5 21.5L2.5 17.5L6.49998 17.5L6.49998 21.5ZM3.49998 20.5L5.5 20.5L5.5 18.5L3.49998 18.5L3.49998 20.5Z"   fill="#000000" >
</path>
<path d="M21.5 21.5L17.5 21.5L17.5 17.5L21.5 17.5L21.5 21.5ZM18.5 20.5L20.5 20.5L20.5 18.5L18.5 18.5L18.5 20.5Z"   fill="#000000" >
</path>
</svg>
