<svg xmlns="http://www.w3.org/2000/svg" xmlns:xlink="http://www.w3.org/1999/xlink" width="32" height="32" viewBox="0 0 32 32" fill="none">
<path d="M20.6666 28L11.3333 28C10.9333 28 10.6666 27.7334 10.6666 27.3334L10.6666 18C10.6666 17.6 10.9333 17.3334 11.3333 17.3334L20.6666 17.3334C21.0666 17.3334 21.3333 17.6 21.3333 18L21.3333 27.3334C21.3333 27.7334 21.0666 28 20.6666 28ZM12 26.6667L20 26.6667L20 18.6667L12 18.6667L12 26.6667Z"   fill="#0063B1" >
</path>
<path d="M27.3333 28L4.66666 28C4.26666 28 4 27.7333 4 27.3333L4 12.5333C4 12.2666 4.13334 12.1333 4.26666 12L15.6 4.13333C15.8667 3.99999 16.1333 3.99999 16.4 4.13333L27.7333 12C27.8667 12.1333 28 12.2666 28 12.5333L28 27.3333C28 27.7333 27.7333 28 27.3333 28ZM5.33334 26.6666L26.6667 26.6666L26.6667 12.8L16 5.46665L5.33334 12.8L5.33334 26.6666Z"   fill="#000000" >
</path>
</svg>
